<svg width="87" height="132" viewBox="0 0 87 132" fill="none" xmlns="http://www.w3.org/2000/svg">
<path d="M62.27 0.989435C69.4633 -1.9994 76.1431 2.05311 78.0185 9.51476L78.0933 9.80906C78.4121 11.0495 78.8207 12.4718 79.3673 14.2604L80.2133 16.9776C80.7373 18.6477 81.3434 20.5718 81.4517 20.919L81.8288 22.1354C82.7103 24.9965 83.3807 27.3114 83.9805 29.6171C85.6531 36.0476 86.5052 41.4886 86.3833 46.5244C86.219 53.3086 84.236 59.1516 79.9182 63.6332L79.7684 63.7872L67.2669 51.5099C69.3871 49.3515 69.5251 43.6523 67.0215 34.0271L66.9114 33.6072C66.3733 31.5714 65.7458 29.4315 64.9009 26.7067L63.804 23.2116L63.7808 23.2434C60.5272 27.6685 56.8495 33.5842 53.7109 39.3153L53.5432 39.6222L38.1558 31.2396C42.5422 23.1898 47.8567 14.841 52.4479 9.27528C55.8326 5.17215 58.8608 2.40597 62.27 0.989435Z" fill="#323337"/>
<path d="M14.185 55.1438C21.183 20.6424 38.1639 28.5471 46.157 26.6699C82.4329 26.6699 77.8941 49.5955 78.509 59.607C79.1238 69.6215 76.0496 121.563 67.4417 129.7C58.8339 137.833 8.03646 120.543 1.58057 110.528C1.58057 90.1087 4.96222 79.55 14.185 55.1438Z" fill="#3F4244"/>
<path d="M66.0998 82.353C67.1561 71.0935 64.6024 33.0339 59.5299 27.8711C85.9683 33.1904 79.9665 59.5175 79.9665 79.5373C79.9665 103.101 70.7222 129.899 66.0998 131.464C61.4777 133.028 42.6806 128.648 49.4599 129.899C56.2392 131.153 64.251 102.059 66.0998 82.353Z" fill="#37383B"/>
<path d="M56.302 118.038V85.8086L44.005 87.3732C42.7753 98.3253 41.0538 120.792 44.005 123.045C47.6941 125.861 56.302 119.602 56.302 118.038Z" fill="#37383C"/>
<path d="M12.7624 73.476L12.7937 73.4791C22.8772 71.976 45.8931 79.9464 56.1405 84.1176C56.3455 85.1597 55.5871 88.1228 50.9143 91.627C45.0732 96.0072 47.7831 119.679 44.1509 121.668C36.0119 126.125 4.03988 111.73 0.189345 108.524C-0.527976 102.788 0.811804 85.8359 3.88617 79.8142C7.369 72.9903 9.298 73.1655 12.7624 73.476Z" fill="#4F5256"/>
<path d="M6.0439 81.2605C6.10935 80.5846 6.7104 80.0898 7.38638 80.1552C16.507 81.0382 40.7071 88.3965 45.0033 91.314C45.5651 91.6955 45.7112 92.4602 45.3296 93.0219C44.9481 93.5836 44.1833 93.7298 43.6215 93.3482C39.7082 90.6908 15.8922 83.4493 7.14936 82.6028C6.47338 82.5374 5.97845 81.9364 6.0439 81.2605Z" fill="#37383B"/>
</svg>
