<svg width="384" height="513" viewBox="0 0 384 513" fill="none" xmlns="http://www.w3.org/2000/svg">
<path d="M82.034 248L166.247 268.997L151.938 326.383L67.7258 305.387L82.034 248Z" fill="#C5CED2"/>
<path d="M77.3084 250.266L161.521 271.262L147.213 328.649L63.0002 307.652L77.3084 250.266Z" fill="#D4DDE1"/>
<path d="M166.89 275.927C167.124 274.99 166.554 274.04 165.616 273.806L136.748 266.609C136.266 266.489 135.756 266.579 135.345 266.857L124.947 273.888C124.536 274.167 124.025 274.257 123.543 274.137L79.5425 263.166C78.6048 262.932 77.6551 263.503 77.4213 264.44L66.2457 309.263C66.012 310.201 66.5826 311.151 67.5203 311.384L151.054 332.211C151.991 332.445 152.941 331.875 153.175 330.938L166.89 275.927Z" fill="#7193B1"/>
<path d="M190.291 342.21C211.23 342.21 228.203 334.636 228.203 325.294C228.203 315.951 211.23 308.378 190.291 308.378C169.353 308.378 152.379 315.951 152.379 325.294C152.379 334.636 169.353 342.21 190.291 342.21Z" fill="#445A73"/>
<path d="M213.743 380.876C218.568 380.42 222.854 383.922 223.386 388.72L223.401 388.866L228.325 440.965C228.786 445.839 225.209 450.163 220.335 450.623C215.511 451.079 211.225 447.578 210.692 442.779L210.677 442.633L205.753 390.534C205.293 385.661 208.87 381.337 213.743 380.876Z" fill="#EBBAAA"/>
<path d="M174.856 380.68C179.703 380.68 183.64 384.569 183.719 389.397L183.72 389.543V437.473C183.72 442.368 179.751 446.336 174.856 446.336C170.01 446.336 166.073 442.447 165.994 437.619L165.993 437.473V389.543C165.993 384.648 169.961 380.68 174.856 380.68Z" fill="#EBBAAA"/>
<path d="M147.938 306.366L200.49 302.589L188.972 415.671L187.987 426.34L162.875 425.102L153.635 400.276L147.938 306.366Z" fill="#445A73"/>
<path d="M191.833 308.228H241.018L236.34 405.409L230.991 424.177L205.222 426.187L203.744 417.374L191.833 308.228Z" fill="#445A73"/>
<path opacity="0.2" fill-rule="evenodd" clip-rule="evenodd" d="M151.964 341.57L160.65 317.236L165.75 319.13L157.063 341.57H151.964Z" fill="white"/>
<path opacity="0.2" fill-rule="evenodd" clip-rule="evenodd" d="M237.925 341.57L229.239 317.236L224.139 319.13L232.826 341.57H237.925Z" fill="white"/>
<path d="M130.888 466.98C130.824 459.636 131.824 455.169 138.208 452.17C144.592 449.169 150.605 443.399 161.65 438.452C161.65 438.452 163.103 438.177 165.47 439.457C167.489 440.548 170.083 443.23 173.991 443.194C178.236 443.156 182.017 442.257 184.367 441.025C185.382 438.244 187.634 438.225 187.634 438.225C187.634 438.225 190.805 444.26 190.858 450.324C190.911 456.388 190.906 466.458 190.906 466.458L130.888 466.98Z" fill="#DCE1E6"/>
<path d="M159.346 438.896C159.783 438.701 160.295 438.898 160.489 439.335C160.737 439.893 160.916 440.506 161.038 441.172C161.217 442.15 161.257 442.95 161.257 444.366C161.257 444.973 160.651 445.386 160.092 445.179L160.041 445.158L155.821 443.296L156.722 446.561C156.9 447.208 156.308 447.796 155.671 447.63L155.621 447.615L151.382 446.247L151.382 450.081C151.382 450.719 150.719 451.132 150.152 450.867L150.103 450.842L147.224 449.282L147.225 452.161C147.225 452.621 146.865 452.998 146.411 453.025L146.358 453.027C145.898 453.027 145.521 452.667 145.494 452.214L145.492 452.161V447.828C145.492 447.19 146.155 446.777 146.723 447.042L146.771 447.066L149.65 448.626L149.65 445.057C149.65 444.487 150.188 444.078 150.73 444.217L150.782 444.233L154.625 445.473L153.666 441.998C153.476 441.31 154.15 440.709 154.804 440.956L154.85 440.975L159.502 443.027C159.479 442.492 159.434 442.053 159.352 441.585L159.334 441.485C159.247 441.005 159.125 440.57 158.967 440.182L158.906 440.039C158.712 439.602 158.909 439.09 159.346 438.896Z" fill="white"/>
<path fill-rule="evenodd" clip-rule="evenodd" d="M149.713 450.452L167.749 440.843C167.749 440.843 169.187 441.867 170.078 442.311C170.969 442.756 172.327 443.159 172.327 443.159L151.819 454.407C149.11 455.851 147.067 458.289 146.121 461.211L145.666 462.619L141.403 461.239L141.859 459.831C143.162 455.806 145.978 452.443 149.713 450.452Z" fill="#363636"/>
<path d="M133.303 452.73C135.262 452.02 137.336 451.482 141.313 450.583L139.623 455.447L139.671 460.993L128.352 461.089C127.89 461.095 127.064 460.478 127.458 457.978C127.951 454.858 130.52 453.742 133.303 452.73Z" fill="#EAF4FB"/>
<path d="M191.095 465.511L190.767 459.678L140.013 460.468L127.358 459.54L126.971 464.01C126.838 465.556 127.996 466.91 129.542 467.015L140.076 467.745L189.733 466.974C190.521 466.961 191.14 466.298 191.095 465.511Z" fill="#363636"/>
<path d="M188.88 441.988C187.647 443.662 183.202 444.663 181.529 444.91C179.856 445.153 178.064 444.938 178.782 447.706C179.289 449.662 184.162 448.871 186.068 448.855C187.617 448.839 189.79 453.521 190.599 451.934C190.599 446.494 189.573 443.546 188.88 441.988Z" fill="#363636"/>
<path d="M264.007 466.98C264.071 459.636 263.07 455.169 256.686 452.17C250.303 449.169 244.289 443.399 233.245 438.452C233.245 438.452 231.791 438.177 229.425 439.457C227.405 440.548 224.811 443.23 220.903 443.194C216.659 443.156 212.877 442.257 210.527 441.025C209.512 438.244 207.26 438.225 207.26 438.225C207.26 438.225 204.089 444.26 204.036 450.324C203.983 456.388 203.988 466.458 203.988 466.458L264.007 466.98Z" fill="#DCE1E6"/>
<path d="M234.405 439.335C234.599 438.898 235.111 438.701 235.548 438.896C235.985 439.09 236.182 439.602 235.988 440.039C235.8 440.462 235.659 440.945 235.56 441.485C235.477 441.934 235.429 442.35 235.401 442.839L235.392 443.027L240.044 440.975C240.696 440.687 241.389 441.266 241.24 441.949L241.228 441.998L240.27 445.473L244.111 444.233C244.653 444.058 245.208 444.444 245.242 445.002L245.244 445.057L245.244 448.626L248.123 447.066C248.684 446.762 249.363 447.149 249.4 447.774L249.402 447.828V452.161C249.402 452.639 249.014 453.027 248.535 453.027C248.075 453.027 247.698 452.667 247.671 452.214L247.669 452.161L247.669 449.282L244.79 450.842C244.229 451.146 243.55 450.76 243.513 450.135L243.511 450.081L243.511 446.247L239.274 447.615C238.634 447.822 238.021 447.255 238.16 446.611L238.172 446.561L239.073 443.296L234.853 445.158C234.297 445.403 233.675 445.015 233.639 444.42L233.637 444.366L233.639 443.881C233.649 442.756 233.698 442.032 233.856 441.172C233.978 440.506 234.157 439.893 234.405 439.335Z" fill="white"/>
<path fill-rule="evenodd" clip-rule="evenodd" d="M245.182 450.452L227.146 440.843C227.146 440.843 225.707 441.867 224.816 442.311C223.926 442.756 222.567 443.159 222.567 443.159L243.075 454.407C245.785 455.851 247.828 458.289 248.773 461.211L249.229 462.619L253.491 461.239L253.036 459.831C251.733 455.806 248.917 452.443 245.182 450.452Z" fill="#363636"/>
<path d="M261.591 452.73C259.632 452.02 257.558 451.482 253.582 450.583L255.271 455.447L255.223 460.993L266.542 461.089C267.004 461.095 267.83 460.478 267.436 457.978C266.943 454.858 264.374 453.742 261.591 452.73Z" fill="#EAF4FB"/>
<path d="M203.799 465.511L204.128 459.678L254.881 460.468L267.536 459.54L267.923 464.01C268.056 465.556 266.898 466.91 265.353 467.015L254.818 467.745L205.161 466.974C204.374 466.961 203.755 466.298 203.799 465.511Z" fill="#363636"/>
<path d="M206.014 441.988C207.247 443.662 211.692 444.663 213.365 444.91C215.037 445.153 216.83 444.938 216.113 447.706C215.605 449.662 210.732 448.871 208.826 448.855C207.277 448.839 205.104 453.521 204.295 451.934C204.295 446.494 205.321 443.546 206.014 441.988Z" fill="#363636"/>
<path d="M190.257 417.332H158.857L161.771 431.258H189.609L190.257 417.332Z" fill="#7F9AB9"/>
<path d="M202.675 417.332H234.074L231.161 431.258H203.322L202.675 417.332Z" fill="#7F9AB9"/>
<path d="M154.563 343.108L154.771 345.659L156.047 345.555L155.839 343.004L154.563 343.108ZM154.979 348.211L155.186 350.762L156.462 350.659L156.255 348.107L154.979 348.211ZM155.394 353.314L155.602 355.866L156.878 355.762L156.67 353.21L155.394 353.314ZM155.809 358.417L156.017 360.969L157.293 360.865L157.085 358.313L155.809 358.417ZM156.225 363.52L156.432 366.072L157.708 365.968L157.501 363.416L156.225 363.52ZM156.64 368.623L156.848 371.175L158.124 371.071L157.916 368.52L156.64 368.623ZM157.055 373.726L157.263 376.278L158.539 376.174L158.331 373.623L157.055 373.726ZM157.471 378.83L157.678 381.381L158.954 381.277L158.747 378.726L157.471 378.83ZM157.886 383.933L158.094 386.484L159.37 386.38L159.162 383.829L157.886 383.933ZM158.301 389.036L158.509 391.587L159.785 391.484L159.577 388.932L158.301 389.036ZM158.717 394.139L158.924 396.691L160.2 396.587L159.993 394.035L158.717 394.139ZM159.268 399.336L159.931 401.809L161.168 401.477L160.504 399.004L159.268 399.336ZM160.595 404.281L161.259 406.754L162.495 406.422L161.831 403.949L160.595 404.281ZM161.922 409.226L162.586 411.699L163.822 411.367L163.158 408.894L161.922 409.226ZM163.249 414.171L163.913 416.644L165.149 416.312L164.486 413.839L163.249 414.171Z" fill="#697B8F"/>
<path d="M235.096 342.871L234.888 345.422L236.164 345.526L236.372 342.975L235.096 342.871ZM234.681 347.974L234.473 350.526L235.749 350.629L235.956 348.078L234.681 347.974ZM234.265 353.077L234.057 355.629L235.333 355.733L235.541 353.181L234.265 353.077ZM233.85 358.18L233.642 360.732L234.918 360.836L235.126 358.284L233.85 358.18ZM233.434 363.283L233.227 365.835L234.503 365.939L234.71 363.387L233.434 363.283ZM233.019 368.386L232.811 370.938L234.087 371.042L234.295 368.49L233.019 368.386ZM232.604 373.49L232.396 376.041L233.672 376.145L233.879 373.593L232.604 373.49ZM232.188 378.593L231.981 381.144L233.256 381.248L233.464 378.697L232.188 378.593ZM231.773 383.696L231.565 386.247L232.841 386.351L233.049 383.8L231.773 383.696ZM231.358 388.799L231.15 391.351L232.426 391.454L232.633 388.903L231.358 388.799ZM230.942 393.902L230.735 396.454L232.01 396.557L232.218 394.006L230.942 393.902ZM230.43 398.871L229.767 401.344L231.003 401.675L231.667 399.203L230.43 398.871ZM229.103 403.816L228.44 406.289L229.676 406.62L230.34 404.148L229.103 403.816ZM227.776 408.761L227.113 411.234L228.349 411.565L229.013 409.093L227.776 408.761ZM226.449 413.706L225.786 416.179L227.022 416.51L227.685 414.038L226.449 413.706Z" fill="#697B8F"/>
<path d="M140.262 218.554C134.479 215.291 127.146 217.335 123.884 223.118C116.1 236.917 112.203 250.495 111.255 266.029C110.493 278.508 111.417 290.67 114.305 313.399C115.142 319.986 121.161 324.647 127.748 323.81C134.334 322.973 138.996 316.955 138.159 310.368L137.843 307.862C135.388 288.193 134.639 277.597 135.255 267.494C135.986 255.534 138.865 245.5 144.827 234.932C148.089 229.149 146.045 221.816 140.262 218.554Z" fill="#EBBAAA"/>
<path d="M208.719 169.063H181.114V190.712H208.719V169.063Z" fill="#EBBAAA"/>
<path d="M148.397 186.521C161.127 174.836 181.293 177.327 190.795 191.76C199.656 205.219 195.383 223.36 181.445 231.448L144.404 252.943L109.311 222.399L148.397 186.521Z" fill="#E8E8E8"/>
<path d="M248.19 218.832C253.973 215.57 261.306 217.613 264.568 223.396C272.352 237.196 276.248 250.773 277.197 266.307C277.959 278.786 277.035 290.948 274.146 313.677C273.309 320.264 267.291 324.926 260.704 324.089C254.117 323.252 249.456 317.233 250.293 310.646L250.609 308.14C253.063 288.472 253.813 277.875 253.196 267.772C252.466 255.813 249.586 245.778 243.625 235.21C240.363 229.427 242.406 222.094 248.19 218.832Z" fill="#EBBAAA"/>
<path d="M250.937 188.717C239.727 175.567 219.407 175.583 208.216 188.75C197.781 201.029 199.812 219.555 212.66 229.282L246.805 255.131L285.359 229.092L250.937 188.717Z" fill="#E8E8E8"/>
<path d="M282.388 225.845L242.916 252.136L246.805 255.131L285.359 229.091L282.388 225.845Z" fill="#6A6A6A"/>
<path d="M149.268 212.652C150.635 194.372 165.865 180.238 184.197 180.238H208.022C227.367 180.238 243.049 195.92 243.049 215.265V262.128V330.033L145.568 326.833V262.128L149.268 212.652Z" fill="#E8E8E8"/>
<path d="M112.484 219.419L147.171 248.767L143.282 251.762L109.218 222.364L112.484 219.419Z" fill="#6A6A6A"/>
<mask id="mask0_277_5417" style="mask-type:luminance" maskUnits="userSpaceOnUse" x="145" y="180" width="99" height="153">
<path d="M149.309 212.686C150.247 199.976 157.204 185.593 167.934 180.238C175.845 180.238 178.641 180.238 184.24 180.238H208.206C213.705 180.238 219.731 180.238 224.023 181.088C235.683 186.774 243.233 201.419 243.233 215.265V263.371V332.308L145.568 329.059V263.371L149.309 212.686Z" fill="white"/>
</mask>
<g mask="url(#mask0_277_5417)">
<path d="M195.569 206.635C209.741 206.635 221.229 195.828 221.229 182.497C221.229 169.166 209.741 158.359 195.569 158.359C181.397 158.359 169.909 169.166 169.909 182.497C169.909 195.828 181.397 206.635 195.569 206.635Z" fill="#6A6A6A"/>
</g>
<mask id="mask1_277_5417" style="mask-type:luminance" maskUnits="userSpaceOnUse" x="109" y="178" width="177" height="153">
<path d="M243.232 252.426V263.371V330.068L145.568 326.818L145.568 263.371L146.424 251.771L144.404 252.943L109.311 222.399L148.397 186.521C155.96 179.578 166.15 177.64 175.167 180.238C176.306 180.238 177.342 180.238 178.36 180.238H184.24H208.206C212.139 180.238 216.341 180.238 219.986 180.549C230.564 176.711 243.022 179.432 250.937 188.717L285.359 229.091L246.805 255.131L243.232 252.426Z" fill="white"/>
</mask>
<g mask="url(#mask1_277_5417)">
<path d="M242.865 188.512L276.341 231.954L275.327 232.735L241.852 189.293L242.865 188.512Z" fill="#6A6A6A"/>
<path d="M242.731 203.419L271.161 240.042L270.15 240.827L241.72 204.204L242.731 203.419Z" fill="#6A6A6A"/>
<path d="M242.777 218.238L265.984 248.132L264.973 248.917L241.766 219.023L242.777 218.238Z" fill="#6A6A6A"/>
<path d="M242.591 232.758L260.806 256.222L259.795 257.007L241.58 233.543L242.591 232.758Z" fill="#6A6A6A"/>
<path d="M148.837 188.512L149.851 189.293L116.376 232.735L115.362 231.954L148.837 188.512Z" fill="#6A6A6A"/>
<path d="M148.972 203.419L149.983 204.204L121.552 240.827L120.541 240.042L148.972 203.419Z" fill="#6A6A6A"/>
<path d="M148.926 218.238L149.937 219.023L126.73 248.917L125.719 248.132L148.926 218.238Z" fill="#6A6A6A"/>
<path d="M149.112 232.758L150.123 233.543L131.908 257.007L130.896 256.222L149.112 232.758Z" fill="#6A6A6A"/>
<path d="M224.331 170.842V345.837H223.051V170.842H224.331Z" fill="#6A6A6A"/>
<path d="M215.051 170.842V345.837H213.771V170.842H215.051Z" fill="#6A6A6A"/>
<path d="M205.771 170.842V345.837H204.491V170.842H205.771Z" fill="#6A6A6A"/>
<path d="M196.491 170.842V345.837H195.211V170.842H196.491Z" fill="#6A6A6A"/>
<path d="M187.211 170.842V345.837H185.931V170.842H187.211Z" fill="#6A6A6A"/>
<path d="M177.931 170.842V345.837H176.651V170.842H177.931Z" fill="#6A6A6A"/>
<path d="M168.651 170.842V345.837H167.371V170.842H168.651Z" fill="#6A6A6A"/>
<path d="M159.371 170.842V345.837H158.091V170.842H159.371Z" fill="#6A6A6A"/>
<path d="M150.091 170.842V345.837H148.811V170.842H150.091Z" fill="#6A6A6A"/>
<path d="M233.611 170.842V345.837H232.331V170.842H233.611Z" fill="#6A6A6A"/>
<path d="M242.891 170.842V345.837H241.611V170.842H242.891Z" fill="#6A6A6A"/>
</g>
<path fill-rule="evenodd" clip-rule="evenodd" d="M195.593 201.186C207.832 201.186 217.753 193.237 217.753 183.433C217.753 182.385 217.64 181.359 217.422 180.361L210.936 179.278H176.328C175.5 179.278 174.674 180.325 173.863 180.498L173.728 180.527C173.534 181.472 173.433 182.443 173.433 183.433C173.433 193.237 183.354 201.186 195.593 201.186Z" fill="#EBBAAA"/>
<path fill-rule="evenodd" clip-rule="evenodd" d="M235.2 221.781C235.132 222.074 235.079 222.372 234.992 222.658C234.876 223.038 234.741 223.412 234.6 223.782C234.49 224.071 234.356 224.351 234.234 224.635C234.177 224.766 234.093 224.821 233.94 224.82C231.661 224.814 229.383 224.816 227.105 224.816H226.88C226.922 224.736 226.941 224.676 226.978 224.63C227.503 223.977 228.011 223.308 228.566 222.68C228.872 222.335 229.244 222.046 229.607 221.758C230.05 221.406 230.496 221.053 230.973 220.754C231.409 220.481 231.881 220.264 232.35 220.051C232.696 219.893 233.057 219.76 233.422 219.654C234.001 219.486 234.593 219.371 235.2 219.381V221.781Z" fill="black"/>
<path fill-rule="evenodd" clip-rule="evenodd" d="M220.272 224.82C220.121 223.812 220.148 222.811 220.207 221.813C220.242 221.216 220.342 220.619 220.46 220.031C220.559 219.541 220.718 219.063 220.864 218.584C221.221 217.42 221.801 216.37 222.552 215.417C222.787 215.12 223.072 214.862 223.339 214.58C223.85 214.985 224.236 215.445 224.561 215.952C224.852 216.404 225.135 216.865 225.377 217.344C225.574 217.734 225.714 218.153 225.862 218.565C225.984 218.907 226.096 219.254 226.186 219.605C226.269 219.924 226.325 220.251 226.38 220.576C226.576 221.74 226.578 222.914 226.542 224.088C226.535 224.33 226.488 224.571 226.459 224.82H220.272Z" fill="black"/>
<path fill-rule="evenodd" clip-rule="evenodd" d="M219.808 224.814H219.573C217.259 224.814 214.944 224.811 212.63 224.82C212.44 224.821 212.34 224.761 212.266 224.603C211.987 223.999 211.722 223.391 211.542 222.748C211.37 222.129 211.203 221.51 211.2 220.862C211.199 220.418 211.207 219.974 211.206 219.529C211.205 219.414 211.257 219.368 211.365 219.383C211.729 219.43 212.094 219.47 212.455 219.532C212.734 219.579 213.015 219.635 213.284 219.722C213.709 219.86 214.141 219.994 214.539 220.19C215.086 220.458 215.627 220.75 216.13 221.091C216.66 221.451 217.156 221.865 217.64 222.286C218.012 222.611 218.359 222.968 218.685 223.339C219.088 223.797 219.457 224.284 219.84 224.759C219.83 224.777 219.819 224.796 219.808 224.814Z" fill="black"/>
<path fill-rule="evenodd" clip-rule="evenodd" d="M233.92 225.78C233.696 226.08 233.495 226.352 233.291 226.622C233.221 226.715 233.123 226.737 233.004 226.737C231.231 226.733 229.458 226.734 227.685 226.734C223.055 226.734 218.426 226.733 213.796 226.74C213.565 226.74 213.412 226.679 213.289 226.502C213.145 226.294 212.986 226.096 212.836 225.891C212.817 225.865 212.815 225.827 212.8 225.78H233.92Z" fill="black"/>
<path fill-rule="evenodd" clip-rule="evenodd" d="M214.111 227.7H232.32C231.995 228.016 231.712 228.305 231.409 228.575C231.339 228.637 231.202 228.651 231.095 228.652C229.708 228.656 228.322 228.655 226.935 228.655C223.127 228.655 219.319 228.651 215.511 228.66C215.172 228.661 214.897 228.604 214.673 228.347C214.488 228.135 214.279 227.943 214.08 227.742C214.09 227.728 214.1 227.714 214.111 227.7Z" fill="black"/>
<path fill-rule="evenodd" clip-rule="evenodd" d="M216.351 229.623H216.503C218.142 229.623 219.782 229.625 221.421 229.62C221.601 229.619 221.691 229.652 221.696 229.837C221.708 230.291 221.74 230.745 221.76 231.199C221.762 231.256 221.74 231.314 221.731 231.371C221.709 231.506 221.629 231.558 221.479 231.535C220.973 231.454 220.464 231.391 219.961 231.297C219.629 231.234 219.297 231.15 218.981 231.037C218.569 230.891 218.161 230.728 217.773 230.536C217.336 230.318 216.921 230.063 216.499 229.82C216.431 229.78 216.38 229.717 216.32 229.665C216.331 229.651 216.341 229.637 216.351 229.623Z" fill="black"/>
<path fill-rule="evenodd" clip-rule="evenodd" d="M224.975 230.32C224.975 230.08 224.968 229.84 224.976 229.601C224.986 229.345 225.038 229.302 225.298 229.302C226.82 229.302 228.341 229.302 229.863 229.302C229.9 229.302 229.938 229.296 229.973 229.304C230.01 229.313 230.045 229.335 230.08 229.351C230.057 229.38 230.04 229.419 230.01 229.438C229.663 229.658 229.327 229.897 228.964 230.088C228.512 230.326 228.045 230.542 227.571 230.734C227.262 230.859 226.931 230.941 226.603 231.012C226.231 231.093 225.851 231.14 225.475 231.202C225.433 231.209 225.391 231.218 225.349 231.219C224.933 231.227 224.968 231.185 224.966 230.878C224.966 230.781 224.962 230.686 224.961 230.59C224.959 230.5 224.96 230.41 224.96 230.32H224.975Z" fill="black"/>
<path fill-rule="evenodd" clip-rule="evenodd" d="M224.96 229.369C224.82 229.576 224.684 229.783 224.541 229.986C224.243 230.411 223.896 230.795 223.506 231.144C223.39 231.247 223.327 231.245 223.207 231.139C222.624 230.625 222.166 230.02 221.76 229.375C221.885 229.284 224.766 229.269 224.96 229.369Z" fill="black"/>
<path d="M234.02 140.975C243.258 140.975 249.941 130.4 250.747 122.561C251.553 114.723 243.258 106.806 234.02 106.806C224.783 106.806 217.294 113.86 217.294 122.561C217.294 131.263 224.783 140.975 234.02 140.975Z" fill="#EBBAAA"/>
<path d="M155.812 142.783C146.575 142.783 139.892 132.207 139.086 124.368C138.28 116.53 146.575 108.613 155.812 108.613C165.05 108.613 172.539 115.667 172.539 124.368C172.539 133.07 165.05 142.783 155.812 142.783Z" fill="#EBBAAA"/>
<path d="M146.604 98.6578C146.604 72.2046 167.772 50.76 193.883 50.76C219.994 50.76 241.161 72.2046 241.161 98.6578L237.961 135.687C234.173 158.744 223.252 176.211 201.161 176.211H186.604C164.513 176.211 154.325 156.444 149.804 135.687L146.604 98.6578Z" fill="#F4D4C9"/>
<path d="M227.343 87.3741L224.455 63.1391C224.019 59.4769 223.973 58.5428 234.384 66.2164C244.795 73.8901 246.459 98.3753 243.79 109.18L241.791 122.849L237.477 121.233L236.423 105.464C231.177 100.184 228.267 95.1296 227.343 87.3741Z" fill="black"/>
<path d="M152.845 89.5659C153.275 81.7682 152.396 82.1698 152.683 76.9714C152.886 73.2892 152.192 72.4154 148.476 81.0744C144.759 89.7336 145.319 100.584 146.092 111.055L147.009 120.705L148.476 120.786L149.138 108.782C151.729 100.464 152.415 97.3634 152.845 89.5659Z" fill="black"/>
<path fill-rule="evenodd" clip-rule="evenodd" d="M195.725 45.1392C195.703 45.1392 195.681 45.1392 195.659 45.1392C195.636 45.1392 195.614 45.1392 195.593 45.1392C181.533 45.188 147.869 52.9833 146.604 89.4643C150.343 84.9705 154.826 86.4604 159.954 83.5279C170.749 77.3548 180.853 71.6448 192.549 71.6448C202.599 71.6448 214.451 76.0909 222.777 80.078C230.225 83.6444 237.302 84.1484 244.581 89.4643C243.316 52.9834 209.783 45.188 195.725 45.1392Z" fill="black"/>
<path d="M221.48 105.798C223.112 105.798 224.435 107.12 224.435 108.752C224.435 110.355 223.158 111.66 221.566 111.705L221.481 111.706L205.85 111.707C204.218 111.707 202.895 110.384 202.895 108.753C202.895 107.15 204.172 105.845 205.764 105.799L205.849 105.798L221.48 105.798Z" fill="#393939"/>
<path d="M182.401 105.85C184.032 105.786 185.405 107.056 185.469 108.687C185.532 110.288 184.308 111.642 182.719 111.75L182.633 111.755L167.019 112.369C165.389 112.433 164.015 111.163 163.951 109.533C163.888 107.931 165.113 106.577 166.702 106.469L166.787 106.465L182.401 105.85Z" fill="#393939"/>
<path d="M190.623 119.334L196.01 120.79L192.544 133.615C191.712 136.692 193.998 139.719 197.167 139.78L197.264 139.781H199.4V145.361H197.264C190.439 145.361 185.458 138.944 187.105 132.359L187.157 132.159L190.623 119.334Z" fill="#EBBAAA"/>
<path d="M185.189 159.693C191.623 161.659 201.227 161.659 206.184 159.613C207.461 159.086 209.027 155.278 208.5 154C207.983 152.748 205.61 154.485 204.351 154.958L204.276 154.988C200.476 156.556 192.045 156.556 186.651 154.908C185.33 154.504 182.404 152.679 182 154C181.596 155.322 183.868 159.29 185.189 159.693Z" fill="#CD9E8E"/>
<path d="M185.282 52.1436C214.913 47.0932 224.085 57.1884 225.778 61.3085C227.472 65.4285 228.106 72.0741 225.778 74.9981C222.392 79.251 206.448 70.016 193.466 72.1425C180.485 74.2691 177.945 81.845 168.774 87.9589C161.437 92.8498 154.146 93.9838 151.418 93.9397C153.253 88.6232 151.159 72.5117 152.966 67.3016C155.223 60.7891 169.489 54.8354 185.282 52.1436Z" fill="black"/>
<path d="M185.459 80.1759C190.093 72.0668 207.341 70.6831 215.385 71.0049L221.177 75.3489C214.496 74.2409 197.998 73.6552 185.459 80.1759Z" fill="black"/>
<path d="M217.774 47.3062C219.024 48.2226 221.924 50.5554 223.523 52.555C224.345 53.5826 225.239 54.8568 226.023 57.5539C226.389 58.815 225.394 56.127 224.023 54.0547C222.621 51.9349 218.774 49.3057 220.274 51.0554C222.773 56.0543 230.772 74.4003 229.772 62.8028C228.772 51.2053 221.357 47.6394 217.774 47.3062Z" fill="black"/>
<path d="M232.522 58.3037C229.722 58.3037 226.19 62.1362 224.773 64.0525L232.522 67.3018L239.52 66.302L234.021 64.0525L241.52 65.0523L236.521 61.803L241.52 63.3026C241.103 62.9694 240.12 62.2029 239.52 61.803C238.92 61.403 235.604 60.3033 234.021 59.8034H237.521C237.021 59.3035 235.321 58.3037 232.522 58.3037Z" fill="black"/>
<path d="M173.5 115.091C175.237 115.091 176.651 116.476 176.699 118.201L176.7 118.291V125.698C176.7 127.465 175.267 128.898 173.5 128.898C171.762 128.898 170.348 127.513 170.301 125.787L170.3 125.698V118.291C170.3 116.524 171.732 115.091 173.5 115.091Z" fill="black"/>
<path d="M214.74 115.091C216.478 115.091 217.892 116.476 217.939 118.202L217.94 118.291L217.94 125.698C217.94 127.465 216.507 128.898 214.74 128.898C213.003 128.898 211.589 127.513 211.541 125.787L211.54 125.698L211.54 118.291C211.54 116.524 212.973 115.091 214.74 115.091Z" fill="black"/>
</svg>
