<svg width="104" height="85" viewBox="0 0 104 85" fill="none" xmlns="http://www.w3.org/2000/svg">
<path d="M19.034 -3.89553e-06L103.247 20.9966L88.9384 78.3834L4.72582 57.3868L19.034 -3.89553e-06Z" fill="#C5CED2"/>
<path d="M14.3084 2.26562L98.521 23.2622L84.2128 80.649L0.000231857 59.6524L14.3084 2.26562Z" fill="#D4DDE1"/>
<path d="M103.89 27.9275C104.124 26.9899 103.554 26.0401 102.616 25.8062L73.7482 18.6088C73.2663 18.4888 72.7562 18.579 72.3447 18.8571L61.9473 25.8884C61.5358 26.1665 61.0254 26.2571 60.5434 26.1368L16.5425 15.1662C15.6048 14.9323 14.6551 15.5029 14.4213 16.4405L3.24575 61.2635C3.01196 62.2011 3.58258 63.1508 4.52028 63.3844L88.0538 84.2113C88.9914 84.4449 89.9412 83.8753 90.1748 82.9377L103.89 27.9275Z" fill="#7193B1"/>
</svg>
