<svg width="178" height="164" viewBox="0 0 178 164" fill="none" xmlns="http://www.w3.org/2000/svg">
<path d="M100.719 0.0632019H73.1138V21.7118H100.719V0.0632019Z" fill="#EBBAAA"/>
<path fill-rule="evenodd" clip-rule="evenodd" d="M61.3101 30.3445C67.1562 33.4923 69.3437 40.7835 66.1955 46.6299C56.8013 64.0763 40.6973 81.8536 29.3117 90.0373C26.5463 92.0248 23.0039 94.2331 19.2554 95.2619C17.3922 95.7733 14.195 96.3595 10.616 95.3038C6.33762 94.0418 3.17266 90.9253 1.65404 87.0654C0.3798 83.8267 0.502649 80.731 0.752729 78.7342C1.02374 76.5698 1.61567 74.421 2.31497 72.4072C3.71555 68.3742 6.01871 63.5582 9.13766 57.9656C12.3717 52.1666 19.6946 50.0875 25.4935 53.3214C27.1562 54.2485 28.5127 55.5118 29.5264 56.9787C35.2298 50.508 40.9472 42.8021 45.0243 35.2299C48.1725 29.3838 55.4637 27.1963 61.3101 30.3445Z" fill="#EBBAAA"/>
<path d="M40.3966 17.5205C53.1265 5.83537 73.2929 8.32721 82.7953 22.7602C91.6565 36.2191 87.3828 54.3595 73.4452 62.4475L36.404 83.9429L1.31104 53.3992L40.3966 17.5205Z" fill="#E8E8E8"/>
<path d="M140.19 49.8317C145.973 46.5694 153.306 48.6131 156.568 54.3963C164.352 68.1957 168.248 81.7728 169.197 97.3071C169.959 109.786 169.035 121.948 166.146 144.677C165.309 151.264 159.291 155.925 152.704 155.088C146.117 154.251 141.456 148.233 142.293 141.646L142.609 139.14C145.063 119.472 145.813 108.875 145.196 98.7724C144.466 86.8127 141.586 76.7783 135.625 66.2101C132.363 60.4269 134.406 53.094 140.19 49.8317Z" fill="#EBBAAA"/>
<path d="M142.937 19.717C131.727 6.56722 111.407 6.58322 100.216 19.7503C89.7809 32.029 91.812 50.555 104.66 60.2815L138.805 86.1307L177.359 60.0914L142.937 19.717Z" fill="#E8E8E8"/>
<path d="M174.388 56.845L134.916 83.1359L138.805 86.1307L177.359 60.0914L174.388 56.845Z" fill="#6A6A6A"/>
<path d="M41.2677 43.6523C42.6347 25.372 57.8655 11.2379 76.1967 11.2379H100.022C119.367 11.2379 135.049 26.9198 135.049 46.2645V93.1278V161.033L37.5679 157.832V93.1278L41.2677 43.6523Z" fill="#E8E8E8"/>
<path d="M4.4837 50.419L39.1712 79.7672L35.2819 82.7621L1.21826 53.3634L4.4837 50.419Z" fill="#6A6A6A"/>
<mask id="mask0_277_4617" style="mask-type:luminance" maskUnits="userSpaceOnUse" x="37" y="11" width="99" height="153">
<path d="M41.3087 43.6862C42.2466 30.9762 49.2044 16.5928 59.9336 11.2379C67.8453 11.2379 70.6405 11.2379 76.2399 11.2379H100.206C105.705 11.2379 111.731 11.2379 116.023 12.0878C127.683 17.7739 135.233 32.4187 135.233 46.2645V94.3714V163.308L37.5679 160.058V94.3714L41.3087 43.6862Z" fill="white"/>
</mask>
<g mask="url(#mask0_277_4617)">
<path d="M87.5689 37.6349C101.741 37.6349 113.229 26.8281 113.229 13.4971C113.229 0.166201 101.741 -10.6407 87.5689 -10.6407C73.3972 -10.6407 61.9087 0.166201 61.9087 13.4971C61.9087 26.8281 73.3972 37.6349 87.5689 37.6349Z" fill="#6A6A6A"/>
</g>
<mask id="mask1_277_4617" style="mask-type:luminance" maskUnits="userSpaceOnUse" x="1" y="9" width="177" height="153">
<path d="M135.232 83.4261V94.3714V161.068L37.5681 157.818L37.5678 94.3714L38.4238 82.7711L36.404 83.9432L1.31104 53.3992L40.3966 17.5208C47.9604 10.5775 58.1499 8.63956 67.1675 11.238C68.3057 11.238 69.3419 11.238 70.3601 11.238H76.2398H100.206C104.139 11.238 108.341 11.238 111.986 11.549C122.564 7.71092 135.022 10.4319 142.937 19.717L177.359 60.0914L138.805 86.1308L135.232 83.4261Z" fill="white"/>
</mask>
<g mask="url(#mask1_277_4617)">
<path d="M134.865 19.512L168.341 62.9539L167.327 63.7352L133.852 20.2932L134.865 19.512Z" fill="#6A6A6A"/>
<path d="M134.731 34.4196L163.161 71.042L162.15 71.8269L133.72 35.2045L134.731 34.4196Z" fill="#6A6A6A"/>
<path d="M134.777 49.2378L157.984 79.1322L156.973 79.9171L133.766 50.0227L134.777 49.2378Z" fill="#6A6A6A"/>
<path d="M134.591 63.7585L152.806 87.2221L151.795 88.0071L133.58 64.5434L134.591 63.7585Z" fill="#6A6A6A"/>
<path d="M40.8367 19.512L41.8506 20.2932L8.37572 63.7352L7.36182 62.9539L40.8367 19.512Z" fill="#6A6A6A"/>
<path d="M40.9716 34.4196L41.9827 35.2045L13.5521 71.8269L12.541 71.042L40.9716 34.4196Z" fill="#6A6A6A"/>
<path d="M40.9259 49.2378L41.9369 50.0227L18.7298 79.9171L17.7188 79.1322L40.9259 49.2378Z" fill="#6A6A6A"/>
<path d="M41.1115 63.7585L42.1226 64.5434L23.9076 88.0071L22.8965 87.2221L41.1115 63.7585Z" fill="#6A6A6A"/>
<path d="M116.331 1.8421V176.837H115.051V1.8421H116.331Z" fill="#6A6A6A"/>
<path d="M107.051 1.8421V176.837H105.771V1.8421H107.051Z" fill="#6A6A6A"/>
<path d="M97.7712 1.8421V176.837H96.4912V1.8421H97.7712Z" fill="#6A6A6A"/>
<path d="M88.4914 1.8421V176.837H87.2114V1.8421H88.4914Z" fill="#6A6A6A"/>
<path d="M79.2112 1.8421V176.837H77.9312V1.8421H79.2112Z" fill="#6A6A6A"/>
<path d="M69.9314 1.8421V176.837H68.6514V1.8421H69.9314Z" fill="#6A6A6A"/>
<path d="M60.6511 1.8421V176.837H59.3711V1.8421H60.6511Z" fill="#6A6A6A"/>
<path d="M51.3713 1.8421V176.837H50.0913V1.8421H51.3713Z" fill="#6A6A6A"/>
<path d="M42.091 1.8421V176.837H40.811V1.8421H42.091Z" fill="#6A6A6A"/>
<path d="M125.611 1.8421V176.837H124.331V1.8421H125.611Z" fill="#6A6A6A"/>
<path d="M134.891 1.8421V176.837H133.611V1.8421H134.891Z" fill="#6A6A6A"/>
<path d="M61.3101 30.3445C67.1562 33.4923 69.3437 40.7835 66.1955 46.6299C59.9258 58.2738 50.6675 70.0648 41.8176 79.053C40.4736 80.4181 37.6819 83.012 36.3687 84.2373L18.1787 68.3397L29.5264 56.9787C35.2298 50.508 40.9472 42.8021 45.0243 35.2299C48.1725 29.3839 55.4637 27.1963 61.3101 30.3445Z" fill="#EBBAAA"/>
</g>
<path fill-rule="evenodd" clip-rule="evenodd" d="M87.5929 32.1854C99.8317 32.1854 109.753 24.2373 109.753 14.4328C109.753 13.3851 109.64 12.3586 109.422 11.3605L102.936 10.2779H68.3283C67.4998 10.2779 66.6736 11.325 65.8633 11.4978L65.7283 11.5266C65.5337 12.4722 65.4326 13.443 65.4326 14.4328C65.4326 24.2373 75.3542 32.1854 87.5929 32.1854Z" fill="#EBBAAA"/>
<path fill-rule="evenodd" clip-rule="evenodd" d="M127.2 52.7808C127.132 53.0737 127.079 53.3715 126.992 53.6584C126.876 54.0379 126.741 54.4118 126.6 54.7823C126.49 55.0711 126.356 55.3512 126.234 55.6347C126.177 55.766 126.093 55.8204 125.94 55.82C123.661 55.814 121.383 55.8159 119.105 55.8159H118.88C118.922 55.736 118.941 55.676 118.978 55.6302C119.503 54.9766 120.011 54.3075 120.566 53.6801C120.872 53.3347 121.244 53.0459 121.607 52.7575C122.05 52.4058 122.496 52.0529 122.973 51.754C123.409 51.4806 123.881 51.2638 124.35 51.0508C124.696 50.8933 125.057 50.7598 125.422 50.654C126.001 50.4864 126.593 50.3705 127.2 50.3806V52.7808Z" fill="black"/>
<path fill-rule="evenodd" clip-rule="evenodd" d="M112.272 55.82C112.121 54.8119 112.148 53.8107 112.207 52.8132C112.242 52.2161 112.342 51.619 112.46 51.0311C112.559 50.5414 112.718 50.0631 112.864 49.5844C113.221 48.4197 113.801 47.3701 114.552 46.4172C114.787 46.1196 115.072 45.8617 115.339 45.58C115.85 45.9854 116.236 46.4452 116.561 46.9515C116.852 47.4041 117.135 47.8646 117.377 48.3441C117.574 48.7336 117.714 49.1525 117.862 49.5651C117.984 49.9065 118.096 50.2536 118.186 50.6053C118.269 50.9241 118.325 51.2508 118.38 51.5756C118.576 52.7398 118.578 53.9139 118.542 55.0883C118.535 55.3303 118.488 55.5712 118.459 55.82H112.272Z" fill="black"/>
<path fill-rule="evenodd" clip-rule="evenodd" d="M111.808 55.814H111.573C109.259 55.814 106.944 55.811 104.63 55.82C104.44 55.8207 104.34 55.7613 104.266 55.6024C103.987 54.9985 103.722 54.3909 103.542 53.7478C103.37 53.1285 103.203 52.5101 103.2 51.8621C103.199 51.4175 103.207 50.9737 103.206 50.5291C103.205 50.4143 103.257 50.3683 103.365 50.3825C103.729 50.43 104.094 50.4704 104.455 50.5317C104.734 50.5792 105.015 50.6345 105.284 50.722C105.709 50.8596 106.141 50.9935 106.539 51.1894C107.086 51.4575 107.627 51.7495 108.13 52.0909C108.66 52.451 109.156 52.8649 109.64 53.2863C110.012 53.6105 110.359 53.968 110.685 54.3385C111.088 54.7966 111.457 55.2842 111.84 55.759C111.83 55.777 111.819 55.7957 111.808 55.814Z" fill="black"/>
<path fill-rule="evenodd" clip-rule="evenodd" d="M125.92 56.78C125.696 57.0802 125.495 57.3515 125.291 57.6221C125.221 57.715 125.123 57.7368 125.004 57.7368C123.231 57.7333 121.458 57.7344 119.685 57.7344C115.055 57.7344 110.426 57.7326 105.796 57.74C105.565 57.7404 105.412 57.6789 105.289 57.502C105.145 57.2943 104.986 57.0958 104.836 56.8909C104.817 56.8648 104.815 56.827 104.8 56.78H125.92Z" fill="black"/>
<path fill-rule="evenodd" clip-rule="evenodd" d="M106.111 58.7H124.32C123.995 59.0158 123.712 59.3052 123.409 59.5745C123.339 59.6369 123.202 59.651 123.095 59.6513C121.708 59.6557 120.322 59.6546 118.935 59.6546C115.127 59.6546 111.319 59.651 107.511 59.66C107.172 59.6611 106.897 59.6033 106.673 59.3464C106.488 59.1345 106.279 58.9425 106.08 58.7415C106.09 58.7278 106.1 58.7137 106.111 58.7Z" fill="black"/>
<path fill-rule="evenodd" clip-rule="evenodd" d="M108.351 60.6232H108.503C110.142 60.6232 111.782 60.6253 113.421 60.62C113.601 60.6193 113.691 60.6523 113.696 60.8368C113.708 61.2909 113.74 61.7448 113.76 62.1986C113.762 62.2555 113.74 62.3135 113.731 62.3711C113.709 62.5056 113.629 62.5583 113.479 62.5344C112.973 62.4543 112.464 62.3911 111.961 62.297C111.629 62.2341 111.297 62.1494 110.981 62.037C110.569 61.8909 110.161 61.7276 109.773 61.5354C109.336 61.3183 108.921 61.063 108.499 60.8199C108.431 60.7802 108.38 60.717 108.32 60.6646C108.331 60.6506 108.341 60.6369 108.351 60.6232Z" fill="black"/>
<path fill-rule="evenodd" clip-rule="evenodd" d="M116.975 61.3198C116.975 61.0802 116.968 60.8402 116.976 60.6006C116.986 60.3454 117.038 60.3022 117.298 60.3022C118.82 60.3018 120.341 60.3022 121.863 60.3022C121.9 60.3022 121.938 60.2961 121.973 60.3044C122.01 60.313 122.045 60.335 122.08 60.3512C122.057 60.3804 122.04 60.4186 122.01 60.4377C121.663 60.6578 121.327 60.8967 120.964 61.0877C120.512 61.3263 120.045 61.5417 119.571 61.7338C119.262 61.8588 118.931 61.9413 118.603 62.0123C118.231 62.093 117.851 62.1399 117.475 62.2015C117.433 62.2087 117.391 62.2181 117.349 62.2192C116.933 62.2271 116.968 62.1849 116.966 61.8776C116.966 61.7814 116.962 61.6859 116.961 61.5897C116.959 61.4996 116.96 61.4099 116.96 61.3198H116.975Z" fill="black"/>
<path fill-rule="evenodd" clip-rule="evenodd" d="M116.96 60.3686C116.82 60.5758 116.684 60.7833 116.541 60.9861C116.243 61.4107 115.896 61.7945 115.506 62.1441C115.39 62.2472 115.327 62.245 115.207 62.1394C114.624 61.6252 114.166 61.02 113.76 60.3747C113.885 60.2837 116.766 60.2691 116.96 60.3686Z" fill="black"/>
</svg>
