<svg width="384" height="513" viewBox="0 0 384 513" fill="none" xmlns="http://www.w3.org/2000/svg">
<path d="M188.206 351.834C208.617 351.834 225.163 343.997 225.163 334.328C225.163 324.66 208.617 316.823 188.206 316.823C167.795 316.823 151.25 324.66 151.25 334.328C151.25 343.997 167.795 351.834 188.206 351.834Z" fill="#35383E"/>
<path d="M206.824 401.434V455.198C206.824 459.969 210.692 463.838 215.464 463.838C220.236 463.838 224.104 459.969 224.104 455.198V401.434C224.104 396.663 220.236 392.794 215.464 392.794C210.692 392.794 206.824 396.663 206.824 401.434Z" fill="#DCE1E9"/>
<path d="M163.338 402.373L168.691 451.359C169.209 456.102 173.475 459.527 178.218 459.009C182.962 458.491 186.387 454.225 185.869 449.481L180.515 400.496C179.997 395.752 175.731 392.327 170.988 392.846C166.244 393.364 162.819 397.63 163.338 402.373Z" fill="#DCE1E9"/>
<path d="M169.22 444.778C168.085 443.031 166.4 442.942 165.035 441.937C164.366 442.89 164.416 444.289 163.81 446.158L159.869 451.025L153.019 458.362L146.489 461.905L150.427 466.446C153.065 464.388 168.032 448.452 169.22 444.778Z" fill="#3B3937"/>
<path d="M192.361 468.826C192.361 468.826 192.509 460.868 190.778 456.478C189.047 452.084 187.203 440.737 187.203 440.737C187.203 440.737 184.228 443.982 178.635 444.033L168.095 444.122C168.095 444.122 158.918 456.935 156.221 458.654C153.524 460.372 138.247 463.706 138.247 463.706C135.346 463.732 133.014 466.103 133.039 469.006L133.063 471.681L164.926 471.402L192.361 468.826Z" fill="#1C1B19"/>
<path d="M164.636 451.06C165.425 449.825 167.034 447.166 167.155 446.398C174.526 447.614 184.444 447.367 188.11 445.735C189.095 448.606 189.6 452.5 189.6 452.5C188.971 453.786 181.916 456.318 179.2 456.82C177.75 455.713 176.674 455.434 175.548 454.804C173.783 453.815 167.89 451.246 164.636 451.06Z" fill="#D0271C"/>
<path d="M180.8 462.58C181.92 461.94 188.334 459.566 191.2 457.94C192.617 458.951 192.439 465.057 192.469 468.577L178.396 469.342C179.172 466.666 180.427 462.954 180.8 462.58Z" fill="#D0271C"/>
<path d="M172.13 461.22C170.624 461.716 169.389 461.722 168.664 461.233C166.794 459.946 167.835 457.783 168.279 456.935C167.454 457.988 166.633 459.047 166.01 460.186C165.025 461.966 164.669 463.882 165.457 465.057C166.872 467.178 169.943 466.004 171.888 465.018L189.938 455.882L172.13 461.22Z" fill="#D0271C"/>
<path d="M146.354 464.66C142.358 465.175 137.239 465.38 136.269 464.106L142.811 462.132L151.422 458.695L153.671 459.796L153.36 460.759L158.186 463.758L156.131 466.654L156.1 466.641C154.523 465.95 150.389 464.138 146.354 464.66Z" fill="#D0271C"/>
<path d="M165.708 446.464L164.007 445.802C163.483 445.598 162.894 445.857 162.69 446.381C162.486 446.904 162.745 447.493 163.269 447.697L164.97 448.36C165.493 448.563 166.083 448.304 166.287 447.781C166.49 447.258 166.231 446.668 165.708 446.464Z" fill="#1C1B19"/>
<path d="M163.173 449.367L161.472 448.704C160.948 448.501 160.359 448.76 160.155 449.283C159.951 449.806 160.21 450.396 160.734 450.6L162.435 451.262C162.958 451.466 163.548 451.207 163.751 450.683C163.955 450.16 163.696 449.571 163.173 449.367Z" fill="#1C1B19"/>
<path d="M160.958 452.266L159.257 451.604C158.734 451.4 158.145 451.659 157.941 452.182C157.737 452.705 157.996 453.295 158.519 453.499L160.22 454.161C160.743 454.365 161.333 454.106 161.537 453.583C161.741 453.059 161.482 452.47 160.958 452.266Z" fill="#1C1B19"/>
<path d="M158.423 455.168L156.723 454.506C156.199 454.302 155.61 454.561 155.406 455.085C155.202 455.608 155.461 456.197 155.985 456.401L157.685 457.064C158.209 457.267 158.798 457.008 159.002 456.485C159.206 455.962 158.947 455.372 158.423 455.168Z" fill="#1C1B19"/>
<path d="M154.609 458.08L152.908 457.418C152.384 457.214 151.795 457.473 151.591 457.997C151.387 458.52 151.646 459.109 152.17 459.313L153.87 459.976C154.394 460.179 154.983 459.92 155.187 459.397C155.391 458.874 155.132 458.284 154.609 458.08Z" fill="#1C1B19"/>
<path d="M192.747 468.494L162.76 470.113L132.919 469.015L132.483 472.922C132.351 474.106 133.261 475.15 134.453 475.182L162.189 475.879L177.67 475.914L193.145 475.271L192.747 468.494Z" fill="#D0CEC1"/>
<path d="M193.046 475.933L192.965 474.014L184.297 474.398L180.717 474.548C176.366 474.724 173.115 474.828 171.034 474.846L170.453 474.85L169.529 474.852C159.137 474.864 135.207 474.275 132.948 473.617L132.411 475.46C135.043 476.227 160.804 476.836 170.754 476.768L171.558 476.76L172.588 476.742C174.679 476.698 177.507 476.601 181.045 476.457L183.999 476.333L193.046 475.933Z" fill="#D0271C"/>
<path d="M223.622 444.458C224.757 442.711 226.443 442.622 227.807 441.617C228.477 442.57 228.427 443.969 229.033 445.838L232.974 450.705L239.824 458.042L246.354 461.585L242.416 466.126C239.778 464.068 224.811 448.132 223.622 444.458Z" fill="#3B3937"/>
<path d="M200.482 468.506C200.482 468.506 200.334 460.548 202.066 456.158C203.797 451.764 205.64 440.417 205.64 440.417C205.64 440.417 208.615 443.662 214.208 443.713L224.749 443.802C224.749 443.802 233.925 456.615 236.622 458.334C239.319 460.052 254.596 463.386 254.596 463.386C257.497 463.412 259.829 465.783 259.804 468.686L259.781 471.361L227.918 471.082L200.482 468.506Z" fill="#1C1B19"/>
<path d="M228.207 450.74C227.418 449.505 225.809 446.846 225.688 446.078C218.317 447.294 208.399 447.047 204.733 445.415C203.748 448.286 203.243 452.18 203.243 452.18C203.872 453.466 210.927 455.998 213.643 456.5C215.093 455.393 216.169 455.114 217.294 454.484C219.06 453.495 224.952 450.926 228.207 450.74Z" fill="#D0271C"/>
<path d="M212.043 462.26C210.923 461.62 204.509 459.246 201.643 457.62C200.227 458.631 200.405 464.737 200.374 468.257L214.448 469.022C213.671 466.346 212.417 462.634 212.043 462.26Z" fill="#D0271C"/>
<path d="M220.713 460.9C222.219 461.396 223.454 461.402 224.18 460.913C226.05 459.626 225.009 457.463 224.564 456.615C225.39 457.668 226.21 458.727 226.834 459.866C227.818 461.646 228.175 463.562 227.386 464.737C225.972 466.858 222.9 465.684 220.956 464.698L202.905 455.562L220.713 460.9Z" fill="#D0271C"/>
<path d="M246.49 464.34C250.485 464.855 255.604 465.06 256.575 463.786L250.032 461.812L241.422 458.375L239.172 459.476L239.483 460.439L234.657 463.438L236.712 466.334L236.744 466.321C238.321 465.63 242.455 463.818 246.49 464.34Z" fill="#D0271C"/>
<path d="M227.874 448.04L229.574 447.377C230.098 447.173 230.357 446.584 230.153 446.061C229.949 445.537 229.36 445.278 228.836 445.482L227.135 446.144C226.612 446.348 226.353 446.938 226.557 447.461C226.761 447.984 227.35 448.243 227.874 448.04Z" fill="#1C1B19"/>
<path d="M230.408 450.942L232.109 450.28C232.632 450.076 232.891 449.486 232.688 448.963C232.484 448.44 231.894 448.181 231.371 448.384L229.67 449.047C229.147 449.251 228.888 449.84 229.092 450.363C229.295 450.887 229.885 451.146 230.408 450.942Z" fill="#1C1B19"/>
<path d="M232.623 453.841L234.324 453.179C234.848 452.975 235.107 452.386 234.903 451.862C234.699 451.339 234.11 451.08 233.586 451.284L231.885 451.946C231.362 452.15 231.103 452.739 231.306 453.263C231.51 453.786 232.1 454.045 232.623 453.841Z" fill="#1C1B19"/>
<path d="M235.158 456.744L236.859 456.081C237.382 455.877 237.641 455.288 237.437 454.765C237.234 454.241 236.644 453.982 236.121 454.186L234.42 454.848C233.896 455.052 233.637 455.642 233.841 456.165C234.045 456.688 234.634 456.947 235.158 456.744Z" fill="#1C1B19"/>
<path d="M238.972 459.656L240.673 458.993C241.197 458.789 241.456 458.2 241.252 457.677C241.048 457.153 240.459 456.894 239.935 457.098L238.234 457.76C237.711 457.964 237.452 458.554 237.656 459.077C237.859 459.6 238.449 459.859 238.972 459.656Z" fill="#1C1B19"/>
<path d="M200.096 468.174L230.083 469.793L259.924 468.695L260.36 472.602C260.492 473.786 259.582 474.83 258.39 474.862L230.655 475.559L215.173 475.594L199.698 474.951L200.096 468.174Z" fill="#D0CEC1"/>
<path d="M199.878 473.694L199.797 475.613L208.844 476.013L212.796 476.177L215.443 476.277C218.077 476.372 220.158 476.429 221.669 476.444L221.792 476.445C231.516 476.529 257.774 475.914 260.432 475.14L259.896 473.297C257.566 473.975 232.205 474.581 222.39 474.53L221.563 474.523L220.603 474.508C218.503 474.468 215.579 474.369 211.874 474.218L209.671 474.126L199.878 473.694Z" fill="#D0271C"/>
<path d="M148.48 314.74H191.68L190.08 429.873L187.52 438.9L163.04 437.62L159.324 427.796L148.48 314.74Z" fill="#35383E"/>
<path d="M191.269 316.667H234.615L232.96 427.38L229.44 436.66L204.48 440.954L202.156 429.94L191.269 316.667Z" fill="#35383E"/>
<path d="M161.92 435.06H188.16V442.74H163.438L161.92 435.06Z" fill="#1D1F23"/>
<path d="M203.52 435.06H229.76L228.48 442.1H204.718L203.52 435.06Z" fill="#1D1F23"/>
<path d="M132 306.148C131.809 301.195 132.278 294.405 133.339 286.807L133.391 286.439C135.623 270.697 139.957 254.347 144.085 246.109L144.21 245.862C147.185 240.039 144.875 232.907 139.052 229.932C133.229 226.958 126.097 229.267 123.122 235.091C117.615 245.873 112.636 264.468 110.024 282.567L109.946 283.115C108.664 292.156 108.082 300.434 108.337 307.062C108.488 310.962 108.924 314.366 109.736 317.313C110.991 321.875 113.13 325.613 117.041 328.17C122.514 331.749 129.851 330.213 133.43 324.74C136.373 320.238 135.857 314.475 132.535 310.58L132.433 310.462C132.231 309.465 132.071 307.991 132 306.148Z" fill="#EBBAAA"/>
<path d="M230.878 238.377C236.827 248.923 241.637 265.242 244.14 282.441C246.346 297.6 246.324 311.308 244.605 316.305L244.552 316.454C242.318 322.599 245.488 329.393 251.634 331.627C257.779 333.862 264.572 330.691 266.807 324.546C270.268 315.028 270.324 297.933 267.573 279.03C264.684 259.179 259.086 240.186 251.503 226.743C248.29 221.047 241.069 219.035 235.373 222.248C229.678 225.461 227.666 232.682 230.878 238.377Z" fill="#EBBAAA"/>
<path d="M155.89 235.535L122.452 224.671L120.802 229.749L154.24 240.614L155.89 235.535Z" fill="#F1EDED"/>
<path d="M225.359 247.211L258.797 236.347L257.147 231.268L223.709 242.133L225.359 247.211Z" fill="#F1EDED"/>
<path d="M149.297 209.817C149.564 198.804 158.381 189.912 169.39 189.552L195.094 188.711C197.188 188.645 199.286 188.754 201.361 189.041L226.451 192.511C237.52 194.041 245.396 204.048 244.282 215.167L239.535 262.491L241.917 330.291C241.94 330.871 214.341 330.321 213.76 330.291H169.39L144.172 326.485C143.614 326.455 143.189 325.97 143.235 325.413L148.163 256.597L149.297 209.817Z" fill="#A6612E"/>
<path d="M191.076 217.388C203.827 217.388 214.164 207.051 214.164 194.299C214.164 181.548 203.827 171.211 191.076 171.211C178.325 171.211 167.988 181.548 167.988 194.299C167.988 207.051 178.325 217.388 191.076 217.388Z" fill="#9A4E16"/>
<path d="M191.479 169.562H190.674C183.974 169.562 178.543 174.994 178.543 181.694V195.361C178.543 202.061 183.974 207.493 190.674 207.493H191.479C198.179 207.493 203.61 202.061 203.61 195.361V181.694C203.61 174.994 198.179 169.562 191.479 169.562Z" fill="#EBBAAA"/>
<path d="M172.095 223.145C175.802 210.63 168.662 197.479 156.147 193.772C143.631 190.065 130.481 197.205 126.773 209.721L107.512 274.746C103.805 287.261 110.945 300.412 123.46 304.119C135.976 307.826 149.126 300.686 152.833 288.171L172.095 223.145Z" fill="#D1D6DF"/>
<path d="M106.304 315.7C104.256 309.812 105.6 281.46 108.16 271.86L142.784 277.94C138.88 290.1 138.24 306.1 135.36 321.78L135.311 321.782C128.544 322.104 108.858 323.042 106.304 315.7Z" fill="#D1D6DF"/>
<path d="M114.88 271.22L138.08 278.26L112.8 275.86L114.88 271.22Z" fill="#BAC1CF"/>
<path d="M120.64 280.5L138.56 279.54L123.04 284.5L120.64 280.5Z" fill="#BAC1CF"/>
<path d="M129.44 318.9C130.766 318.9 131.84 317.825 131.84 316.5C131.84 315.174 130.766 314.1 129.44 314.1C128.115 314.1 127.04 315.174 127.04 316.5C127.04 317.825 128.115 318.9 129.44 318.9Z" fill="#9CA8BB"/>
<path d="M218.78 192.73L218.78 192.73C231.98 188.185 246.365 195.201 250.91 208.4L274.906 278.088C279.451 291.288 272.435 305.673 259.235 310.218C246.035 314.763 231.65 307.747 227.105 294.548L203.109 224.86C198.564 211.66 205.58 197.275 218.78 192.73Z" fill="#D1D6DF"/>
<path d="M186.56 272.18C186.306 250.69 187.52 223.749 187.52 213.46C185.28 213.46 183.04 213.14 181.44 212.18C181.526 203.91 182.111 195.43 178.597 187.7L151.229 192.971C146.966 198.838 139.466 216.365 138.262 249.939C137.058 283.513 139.516 316.48 138.262 331.597C143.528 333.12 173.096 338.197 190.4 332.782C190.4 311.121 186.936 303.994 186.56 272.18Z" fill="#D6DCE7"/>
<path d="M169.28 327.54C162.112 328.052 145.6 323.06 138.24 320.5V331.38C142.4 334.58 153.191 335.586 159.04 336.5C169.28 338.1 178.24 336.5 191.04 334.58L190.4 324.82C185.92 325.78 176.448 327.028 169.28 327.54Z" fill="#C4CAD3"/>
<path d="M275.2 316.34C277.248 310.452 277.76 289.78 275.2 280.18L238.72 278.58C242.624 290.74 243.264 306.74 246.144 322.42L246.193 322.422C252.96 322.744 272.646 323.682 275.2 316.34Z" fill="#D1D6DF"/>
<path d="M264.48 267.7L241.28 274.74L266.56 272.34L264.48 267.7Z" fill="#BAC1CF"/>
<path d="M260.16 277.94L242.24 276.98L257.76 281.94L260.16 277.94Z" fill="#BAC1CF"/>
<path d="M252.064 319.54C250.739 319.54 249.664 318.465 249.664 317.14C249.664 315.815 250.739 314.74 252.064 314.74C253.39 314.74 254.464 315.815 254.464 317.14C254.464 318.465 253.39 319.54 252.064 319.54Z" fill="#9CA8BB"/>
<path d="M195.84 272.98C196.079 252.185 195.52 222.936 195.52 212.98C197.28 212.98 199.184 213.14 201.6 212.34C202.747 203.828 205.844 194.382 209.082 187.06L227.656 190.055C232.276 190.8 236.36 193.461 237.552 197.987C240.208 208.071 242.156 226.958 243.02 251.74C244.153 284.227 245.86 317.624 247.04 332.252C237.837 333.562 214.042 337.492 197.76 332.252C197.76 311.292 195.486 303.764 195.84 272.98Z" fill="#D6DCE7"/>
<path d="M186.56 258.42C178.368 266.612 147.733 286.793 137.92 290.42V321.78L159.36 326.58C159.36 326.58 158.599 317.351 163.2 309.3C170.88 295.86 174.4 286.9 186.56 277.94V258.42Z" fill="#43519A"/>
<path d="M237.44 198.42C233.6 213.78 205.44 244.98 195.84 251.7V275.7C223.68 242.74 232.96 233.78 241.44 227.38C241.44 222.1 239.84 202.9 237.44 198.42Z" fill="#43519A"/>
<path d="M169.6 201.3C168 197.78 164.586 192.66 163.52 189.78C162.56 190.527 153.76 190.9 144.64 192.66C133.953 194.722 130.56 201.78 128.32 205.62C126.08 209.46 119.04 231.38 117.92 240.18C120.16 241.78 130.08 237.46 134.4 232.98C137.21 230.066 140.32 221.14 147.2 215.38C151.623 211.677 171.326 205.098 169.6 201.3Z" fill="#43519A"/>
<path d="M164.556 179.06C162.636 183.54 162.102 186.633 162.636 190.9C162.636 197.739 175.833 207.745 181.486 212.362C183.756 203.38 183.756 187.082 181.806 187.082C177.513 187.082 169.356 183.22 164.556 179.06Z" fill="#C4CAD3"/>
<path d="M218.515 179.06C220.435 183.22 220.968 186.633 220.435 190.9C220.435 197.739 206.917 208.065 201.264 212.682C198.995 203.7 199.315 187.082 201.264 187.082C205.557 187.082 213.715 183.22 218.515 179.06Z" fill="#C4CAD3"/>
<path d="M202.979 231.121L199.144 231.322C198.526 231.354 198.052 231.881 198.084 232.499C198.116 233.117 198.643 233.591 199.261 233.559L203.096 233.358C203.714 233.326 204.188 232.799 204.156 232.181C204.123 231.563 203.596 231.089 202.979 231.121Z" fill="#EAF0FA"/>
<path d="M203.033 255.28L199.199 255.481C198.581 255.514 198.106 256.041 198.139 256.658C198.171 257.276 198.698 257.751 199.316 257.718L203.151 257.517C203.768 257.485 204.243 256.958 204.21 256.34C204.178 255.722 203.651 255.248 203.033 255.28Z" fill="#EAF0FA"/>
<path d="M219.2 325.94C226.368 326.452 240.32 325.78 246.4 320.82L247.04 332.02C240.64 333.62 231.84 334.9 229.44 334.9C219.076 334.9 210.24 335.22 197.44 333.3V323.86C201.92 324.82 212.032 325.428 219.2 325.94Z" fill="#C4CAD3"/>
<path d="M203.033 278.958L199.199 279.159C198.581 279.192 198.106 279.719 198.139 280.336C198.171 280.954 198.698 281.429 199.316 281.396L203.151 281.195C203.768 281.163 204.243 280.636 204.21 280.018C204.178 279.401 203.651 278.926 203.033 278.958Z" fill="#EAF0FA"/>
<path d="M203.673 301.678L199.838 301.879C199.22 301.912 198.746 302.439 198.778 303.056C198.811 303.674 199.338 304.149 199.955 304.116L203.79 303.915C204.408 303.883 204.882 303.356 204.85 302.738C204.818 302.121 204.291 301.646 203.673 301.678Z" fill="#EAF0FA"/>
<path d="M181.6 234.74C182.925 234.74 184 233.665 184 232.34C184 231.014 182.925 229.94 181.6 229.94C180.274 229.94 179.2 231.014 179.2 232.34C179.2 233.665 180.274 234.74 181.6 234.74Z" fill="#9CA8BB"/>
<path d="M205.113 328.527L201.291 328.159C200.675 328.099 200.128 328.551 200.068 329.166C200.009 329.782 200.46 330.329 201.076 330.388L204.898 330.756C205.514 330.816 206.061 330.365 206.12 329.749C206.18 329.133 205.729 328.586 205.113 328.527Z" fill="#9CA8BB"/>
<path d="M180.96 258.1C182.286 258.1 183.36 257.025 183.36 255.7C183.36 254.374 182.286 253.3 180.96 253.3C179.635 253.3 178.56 254.374 178.56 255.7C178.56 257.025 179.635 258.1 180.96 258.1Z" fill="#9CA8BB"/>
<path d="M181.28 283.06C182.605 283.06 183.68 281.985 183.68 280.66C183.68 279.335 182.605 278.26 181.28 278.26C179.954 278.26 178.88 279.335 178.88 280.66C178.88 281.985 179.954 283.06 181.28 283.06Z" fill="#9CA8BB"/>
<path d="M183.2 306.1C184.525 306.1 185.6 305.025 185.6 303.7C185.6 302.374 184.525 301.3 183.2 301.3C181.874 301.3 180.8 302.374 180.8 303.7C180.8 305.025 181.874 306.1 183.2 306.1Z" fill="#9CA8BB"/>
<path d="M186.08 332.02C187.405 332.02 188.48 330.945 188.48 329.62C188.48 328.294 187.405 327.22 186.08 327.22C184.754 327.22 183.68 328.294 183.68 329.62C183.68 330.945 184.754 332.02 186.08 332.02Z" fill="#9CA8BB"/>
<path d="M144.96 279.54H150.72L152.32 307.06L146.24 307.7L144.96 279.54Z" fill="#EAF0FA"/>
<path d="M237.12 280.18H231.36L229.76 307.7L235.84 308.34L237.12 280.18Z" fill="#EAF0FA"/>
<path d="M231.989 143.76C241.227 143.76 247.91 133.184 248.716 125.346C249.522 117.508 241.227 109.591 231.989 109.591C222.751 109.591 215.263 116.645 215.263 125.346C215.263 134.048 222.751 143.76 231.989 143.76Z" fill="#EBBAAA"/>
<path d="M153.781 145.567C144.543 145.567 137.861 134.992 137.055 127.153C136.249 119.315 144.543 111.398 153.781 111.398C163.019 111.398 170.508 118.452 170.508 127.153C170.508 135.855 163.019 145.567 153.781 145.567Z" fill="#EBBAAA"/>
<path d="M144.573 101.442C144.573 74.9893 165.74 53.5446 191.851 53.5446C217.962 53.5446 239.13 74.9892 239.13 101.442L235.93 138.471C232.142 161.528 221.221 178.996 199.13 178.996H184.573C162.482 178.996 152.294 159.229 147.773 138.471L144.573 101.442Z" fill="#F4D4C9"/>
<path d="M225.311 90.1585L222.424 65.9236C221.987 62.2614 221.942 61.3273 232.353 69.0009C242.764 76.6746 244.428 101.16 241.758 111.965L239.76 125.634L235.446 124.017L234.391 108.248C229.146 102.968 226.235 97.9141 225.311 90.1585Z" fill="black"/>
<path d="M150.813 92.3506C151.243 84.5528 150.365 84.9544 150.651 79.756C150.855 76.0738 150.161 75.2 146.444 83.859C142.728 92.5182 143.288 103.368 144.06 113.84L144.978 123.49L146.444 123.571L147.106 111.567C149.698 103.248 150.383 100.148 150.813 92.3506Z" fill="black"/>
<path fill-rule="evenodd" clip-rule="evenodd" d="M193.694 47.9237C193.672 47.9237 193.649 47.9237 193.627 47.9237C193.605 47.9237 193.583 47.9237 193.561 47.9237C179.502 47.9725 145.838 55.7678 144.573 92.2488C148.311 87.755 152.795 89.245 157.923 86.3125C168.718 80.1394 178.822 74.4293 190.518 74.4293C200.568 74.4293 212.42 78.8755 220.746 82.8626C228.193 86.429 235.271 86.933 242.55 92.2488C241.284 55.7679 207.752 47.9725 193.694 47.9237Z" fill="black"/>
<path d="M219.449 108.582C221.081 108.582 222.404 109.905 222.404 111.536C222.404 113.139 221.127 114.444 219.535 114.49L219.449 114.491L203.818 114.492C202.187 114.492 200.864 113.169 200.864 111.537C200.864 109.934 202.14 108.629 203.732 108.584L203.818 108.583L219.449 108.582Z" fill="#393939"/>
<path d="M180.37 108.635C182 108.571 183.374 109.841 183.438 111.471C183.501 113.073 182.277 114.427 180.688 114.535L180.602 114.539L164.988 115.153C163.358 115.217 161.984 113.948 161.92 112.317C161.857 110.715 163.081 109.361 164.67 109.254L164.756 109.249L180.37 108.635Z" fill="#393939"/>
<path d="M188.592 122.118L193.979 123.574L190.513 136.4C189.681 139.476 191.967 142.503 195.136 142.564L195.233 142.565H197.369V148.146H195.233C188.408 148.146 183.427 141.729 185.073 135.143L185.125 134.944L188.592 122.118Z" fill="#EBBAAA"/>
<path d="M183.158 162.478C189.592 164.443 199.195 164.443 204.153 162.398C205.43 161.871 206.996 158.062 206.469 156.785C205.952 155.533 203.579 157.269 202.32 157.743L202.244 157.772C198.445 159.34 190.014 159.34 184.62 157.692C183.298 157.289 180.372 155.463 179.969 156.785C179.565 158.106 181.836 162.074 183.158 162.478Z" fill="#CD9E8E"/>
<path d="M183.251 54.9282C212.882 49.8778 222.054 59.9731 223.747 64.0932C225.44 68.2132 226.075 74.8587 223.747 77.7828C220.361 82.0357 204.416 72.8006 191.435 74.9272C178.454 77.0537 175.914 84.6296 166.743 90.7436C159.405 95.6344 152.115 96.7685 149.387 96.7243C151.221 91.4079 149.128 75.2963 150.934 70.0863C153.192 63.5738 167.458 57.62 183.251 54.9282Z" fill="black"/>
<path d="M183.428 82.9605C188.061 74.8513 205.309 73.4676 213.354 73.7895L219.146 78.1335C212.465 77.0255 195.966 76.4398 183.428 82.9605Z" fill="black"/>
<path d="M215.743 50.0906C216.993 51.007 219.892 53.3399 221.492 55.3394C222.314 56.367 223.208 57.6412 223.991 60.3384C224.358 61.5994 223.363 58.9114 221.992 56.8391C220.59 54.7193 216.743 52.0901 218.243 53.8398C220.742 58.8387 228.741 77.1847 227.741 65.5872C226.741 53.9897 219.326 50.4238 215.743 50.0906Z" fill="black"/>
<path d="M230.49 61.0883C227.691 61.0883 224.159 64.9208 222.742 66.837L230.49 70.0863L237.489 69.0865L231.99 66.837L239.488 67.8368L234.489 64.5875L239.488 66.0872C239.072 65.7539 238.089 64.9874 237.489 64.5875C236.889 64.1876 233.573 63.0878 231.99 62.5879H235.489C234.99 62.0881 233.29 61.0883 230.49 61.0883Z" fill="black"/>
<path d="M171.469 117.876C173.206 117.876 174.62 119.26 174.667 120.986L174.669 121.076V128.482C174.669 130.25 173.236 131.682 171.469 131.682C169.731 131.682 168.317 130.298 168.27 128.572L168.269 128.482V121.076C168.269 119.308 169.701 117.876 171.469 117.876Z" fill="black"/>
<path d="M212.709 117.876C214.447 117.876 215.861 119.26 215.908 120.986L215.909 121.076L215.909 128.483C215.909 130.25 214.476 131.682 212.709 131.682C210.971 131.682 209.557 130.298 209.51 128.572L209.509 128.482L209.509 121.076C209.509 119.308 210.942 117.876 212.709 117.876Z" fill="black"/>
</svg>
