<svg width="48" height="48" viewBox="0 0 48 48" fill="none" xmlns="http://www.w3.org/2000/svg">
<path d="M38.25 31.4995H1.5L9.375 24.3745H30.375L38.25 31.4995Z" fill="#BE7B85"/>
<path d="M38.25 31.4995V34.4995C38.25 34.9139 37.9144 35.2495 37.5 35.2495H2.25C1.83562 35.2495 1.5 34.9139 1.5 34.4995V31.4995H38.25ZM37.125 35.2495L35.7975 45.1983C35.7 45.9445 35.0625 46.4995 34.3125 46.4995H5.4375C4.6875 46.4995 4.05 45.9445 3.9525 45.1983L2.625 35.2495H37.125Z" fill="#924A56"/>
<path d="M12.9487 46.4995H5.4375C4.6875 46.4995 4.05 45.9445 3.9525 45.1983L2.625 35.2495H37.125C37.125 35.2495 2.03625 35.242 12.9487 46.4995Z" fill="#66313C"/>
<path d="M22.3125 35.062V42.187C22.3125 42.5995 21.975 42.937 21.5625 42.937H18.1875C17.775 42.937 17.4375 42.5995 17.4375 42.187V35.062C17.4375 34.6758 17.7337 34.3533 18.1125 34.3158L18.1875 34.312H21.5625C21.975 34.312 22.3125 34.6495 22.3125 35.062Z" fill="#FFC362"/>
<path d="M19.875 40.312C19.5641 40.312 19.3125 40.0604 19.3125 39.7495V37.8745C19.3125 37.5636 19.5641 37.312 19.875 37.312C20.1859 37.312 20.4375 37.5636 20.4375 37.8745V39.7495C20.4375 40.0604 20.1859 40.312 19.875 40.312Z" fill="#ED9D3E"/>
<path d="M25.875 27.937H13.875C13.5641 27.937 13.3125 27.6854 13.3125 27.3745C13.3125 27.0636 13.5641 26.812 13.875 26.812H25.875C26.1859 26.812 26.4375 27.0636 26.4375 27.3745C26.4375 27.6854 26.1859 27.937 25.875 27.937Z" fill="#924A56"/>
<path d="M21.5625 42.937H18.1875C17.775 42.937 17.4375 42.5995 17.4375 42.187V35.062C17.4375 34.6758 17.7337 34.3533 18.1125 34.3158L18.1875 34.312C18.1875 34.312 17.2838 41.4895 21.5625 42.937Z" fill="#ED9D3E"/>
<path d="M34.5 15.6674C34.6009 16.2614 34.8623 17.2866 35.625 18.2924C36.0045 18.793 36.4099 19.1586 36.75 19.4174L38.625 15.7495L38.25 13.1245L35.25 11.9995L34.5 15.6674Z" fill="#303256"/>
<path d="M19.0123 16.522L19.3873 17.3432L14.6961 21.0932L14.1636 20.3545C14.2986 19.942 14.4823 19.5482 14.7073 19.1845C15.4198 18.022 16.5448 17.1407 17.8761 16.7395C18.2398 16.627 18.6186 16.552 19.0123 16.522Z" fill="#FCAF9F"/>
<path d="M38.4451 8.19333L37.9088 15.6671H30.3751L26.7226 18.4083L24.3976 20.1521L23.7076 20.6696C23.2988 20.9733 22.7063 20.7896 22.5451 20.3058L22.3088 19.5933C22.0913 18.9333 22.0838 18.2358 22.2751 17.5871C22.3838 17.2008 22.5638 16.8333 22.8113 16.5033L24.0001 14.9171L24.6263 13.0383C25.0763 11.6883 24.1726 10.2596 22.7551 10.0946L20.7938 9.86208C19.8038 9.74583 18.8551 10.2971 18.4613 11.2121L16.8751 14.5421L18.0001 17.0133L14.9176 19.4771L12.0376 15.4908C11.7751 15.1271 11.6888 14.6658 11.8051 14.2346L13.6538 7.14708C13.7926 6.60708 14.1676 6.15708 14.6776 5.92083L23.8238 1.67208C24.1838 1.50708 24.5851 1.45833 24.9713 1.53333L36.0001 3.66708C36.0001 3.66708 36.0001 3.67083 36.0038 3.67833L38.4451 8.19333Z" fill="#FCAF9F"/>
<path d="M38.445 8.19322L37.9087 15.667H34.5C36.7763 9.61072 36.0413 3.96697 36.0038 3.67822L38.445 8.19322Z" fill="#FA847A"/>
<path d="M25.125 22.1245C25.125 25.2258 22.6012 27.7495 19.5 27.7495C16.3987 27.7495 13.875 25.2258 13.875 22.1245C13.875 21.5058 13.9763 20.9095 14.1638 20.3545C14.2988 19.942 14.4825 19.5483 14.7075 19.1845C15.42 18.022 16.545 17.1408 17.8762 16.7395C18.24 16.627 18.6188 16.552 19.0125 16.522C19.1738 16.507 19.335 16.4995 19.5 16.4995C20.1487 16.4995 20.7712 16.6083 21.3525 16.8108C21.7125 16.9383 22.0538 17.0995 22.3725 17.2908C22.335 17.3883 22.305 17.4858 22.275 17.587C22.0838 18.2358 22.0913 18.9333 22.3088 19.5933L22.545 20.3058C22.545 20.3058 22.545 20.3095 22.5487 20.3133C22.5863 20.4258 22.6462 20.5195 22.725 20.5945C22.9762 20.8495 23.3963 20.902 23.7075 20.6695L24.3975 20.152L24.6825 19.9383C24.8363 20.302 24.9525 20.6845 25.0275 21.0858C25.08 21.3633 25.1137 21.6445 25.1212 21.9333C25.125 21.997 25.125 22.0608 25.125 22.1245Z" fill="#FFD066"/>
<path d="M25.1212 21.9332C24.5662 21.7082 23.9025 21.4382 23.5687 21.3107C23.19 21.1682 22.8975 20.8382 22.725 20.5945C22.9762 20.8495 23.3963 20.902 23.7075 20.6695L24.3975 20.152L24.6825 19.9382C24.8363 20.302 24.9525 20.6845 25.0275 21.0857C25.08 21.3632 25.1137 21.6445 25.1212 21.9332ZM20.625 26.6245C17.5237 26.6245 15 24.1007 15 20.9995C15 19.7354 15.4245 18.571 16.1314 17.6309C14.7645 18.658 13.875 20.2874 13.875 22.1245C13.875 25.2257 16.3987 27.7495 19.5 27.7495C21.3371 27.7495 22.9665 26.86 23.9936 25.4931C23.0535 26.2 21.8891 26.6245 20.625 26.6245Z" fill="#ED9D3E"/>
<path d="M20.258 17.2017C20.5532 17.2914 20.633 17.6679 20.3923 17.8602C20.1414 18.0612 19.7263 18.2521 19.0573 18.2469C18.4573 18.2416 18.1288 18.0732 17.9484 17.8884C17.7557 17.6911 17.8509 17.3547 18.1153 17.2764C18.5972 17.1335 19.4563 16.9584 20.258 17.2017Z" fill="#FFF7E1"/>
<path d="M26.7225 18.4082L24.3975 20.1519L23.7075 20.6694C23.7075 20.6694 23.226 19.8264 24.375 18.9328C25.2323 18.2661 26.1462 18.2946 26.7225 18.4082Z" fill="#FFD6CF"/>
<path d="M46.5 2.54199V19.417H36.75C37.2337 17.4407 37.7025 14.5907 37.5 11.167C37.3162 8.05074 36.6375 5.49324 36 3.66699L46.5 2.54199Z" fill="#ECEAFD"/>
<path d="M40.875 12.6669C40.8075 15.1869 40.5225 17.4519 40.1512 19.4169H36.75C37.2337 17.4407 37.7025 14.5907 37.5 11.1669C37.3162 8.05068 36.6375 5.49318 36 3.66693L40.0613 3.23193C40.5788 5.80818 40.9725 9.00318 40.875 12.6669Z" fill="#51528C"/>
<path d="M46.5001 2.54199V19.417H40.1514C46.4814 14.8345 46.5001 2.54199 46.5001 2.54199Z" fill="#C5C2FF"/>
<path d="M46.5 19.0426H37.2202C37.809 16.4506 38.031 13.7953 37.8742 11.1455C37.7302 8.71289 37.2701 6.30801 36.5055 3.99051L46.5397 2.91539C46.7456 2.89326 46.8949 2.70838 46.8727 2.50251C46.8506 2.29663 46.6654 2.14776 46.4599 2.16951L36.0161 3.28851L25.0425 1.16563C24.5771 1.07526 24.1016 1.13263 23.6655 1.33251L14.52 5.58126C13.9061 5.86551 13.458 6.40251 13.2911 7.05313L11.4431 14.1376C11.2969 14.6791 11.403 15.2529 11.7337 15.7111L14.2657 19.2159C14.0835 19.5425 13.9241 19.8819 13.8086 20.2348C13.6039 20.8404 13.5 21.4764 13.5 22.1248C13.5 22.7799 13.6091 23.4091 13.8041 23.9998H9.375C9.282 23.9998 9.19237 24.0343 9.12337 24.0965L7.24837 25.793C7.09462 25.9321 7.083 26.1691 7.22175 26.3229C7.296 26.4046 7.39762 26.4463 7.5 26.4463C7.58962 26.4463 7.67962 26.4144 7.75125 26.3495L9.51937 24.7498H14.1131C15.0892 26.7444 17.1337 28.1248 19.5 28.1248C21.8306 28.1248 23.9002 26.7571 24.8865 24.7498H30.2306L37.2765 31.1248H2.4735L4.23825 29.528C4.392 29.3889 4.40362 29.1519 4.26487 28.9981C4.12575 28.8444 3.88912 28.8328 3.735 28.9715L1.24837 31.2215C1.17 31.2928 1.125 31.3936 1.125 31.4998V35.2498C1.125 35.4568 1.293 35.6248 1.5 35.6248H2.2965L3.57937 45.2476C3.70312 46.1754 4.50187 46.8748 5.43787 46.8748H34.3114C35.2474 46.8748 36.0461 46.1754 36.1699 45.2476L37.1962 37.5493C37.2236 37.3441 37.0792 37.1551 36.8741 37.1278C36.6712 37.1011 36.4804 37.2448 36.4526 37.4499L35.4262 45.1483C35.352 45.7048 34.8724 46.1248 34.311 46.1248H5.43825C4.87687 46.1248 4.39762 45.7051 4.323 45.1483L3.05325 35.6248H17.0625V42.1873C17.0625 42.8075 17.5672 43.3123 18.1875 43.3123H21.5625C22.1827 43.3123 22.6875 42.8075 22.6875 42.1873V35.6248H38.25C38.457 35.6248 38.625 35.4568 38.625 35.2498V31.4998C38.625 31.3936 38.58 31.2928 38.5016 31.2215L30.6266 24.0965C30.5576 24.0343 30.468 23.9998 30.375 23.9998H25.1977C25.3072 23.669 25.3901 23.3255 25.4404 22.9711C25.4696 22.766 25.3267 22.5763 25.1216 22.547C24.9172 22.517 24.7267 22.6606 24.6975 22.8658C24.3334 25.4364 22.0987 27.3748 19.5 27.3748C16.605 27.3748 14.25 25.0198 14.25 22.1248C14.25 21.5581 14.3404 21.0031 14.5204 20.4714C14.6452 20.0896 14.8155 19.7233 15.0274 19.3805C15.7016 18.2806 16.7516 17.4703 17.9872 17.0979C18.3326 16.991 18.6874 16.9231 19.0474 16.8954C19.7771 16.8283 20.5339 16.9228 21.2272 17.1643C21.4657 17.2486 21.6949 17.3559 21.918 17.4729C21.9172 17.4759 21.9161 17.4785 21.915 17.4815C21.6994 18.2124 21.7125 18.9834 21.9525 19.7116L22.1887 20.4245C22.3039 20.7695 22.5697 21.0305 22.9181 21.1404C23.0291 21.1753 23.1435 21.1925 23.2575 21.1925C23.4975 21.1925 23.7349 21.1164 23.9321 20.9698L30.4995 16.0423H34.1925C34.392 16.9479 34.7794 17.7984 35.3257 18.5188C35.6666 18.9684 36.069 19.3708 36.5224 19.7158C36.5876 19.7653 36.6675 19.7923 36.7492 19.7923H46.4992C46.7062 19.7923 46.8742 19.6243 46.8742 19.4173C46.8742 19.2103 46.707 19.0426 46.5 19.0426ZM21.9375 42.1873C21.9375 42.3939 21.7691 42.5623 21.5625 42.5623H18.1875C17.9809 42.5623 17.8125 42.3939 17.8125 42.1873V35.0623C17.8125 34.8556 17.9809 34.6873 18.1875 34.6873H21.5625C21.7691 34.6873 21.9375 34.8556 21.9375 35.0623V42.1873ZM22.6684 34.8748C22.5784 34.3438 22.1186 33.9373 21.5625 33.9373H18.1875C17.6314 33.9373 17.1712 34.3438 17.0816 34.8748H1.875V31.8748H37.875V34.8748H22.6684ZM21.4759 16.457C20.8432 16.2365 20.1787 16.1248 19.5 16.1248C19.3234 16.1248 19.1505 16.1326 18.984 16.1484C18.6829 16.1713 18.3836 16.2283 18.0874 16.301L17.2886 14.5464L18.8055 11.3608C19.1321 10.6021 19.932 10.1398 20.7495 10.235L22.7115 10.4675C23.2732 10.5328 23.7694 10.8444 24.0731 11.3218C24.3776 11.8003 24.4492 12.383 24.2704 12.92L23.6632 14.741L22.5109 16.2785C22.3927 16.436 22.2907 16.6029 22.2004 16.7746C21.966 16.6554 21.726 16.5455 21.4759 16.457ZM30.375 15.2926C30.294 15.2926 30.2149 15.3189 30.15 15.3676L23.484 20.3694C23.3857 20.4421 23.2627 20.4628 23.1442 20.4256C23.0276 20.3889 22.9391 20.3023 22.9012 20.1886L22.6654 19.4769C22.4734 18.8945 22.4629 18.278 22.6361 17.6896C22.734 17.3428 22.8941 17.0195 23.1116 16.7289L24.3004 15.1426C24.3244 15.1104 24.3431 15.0744 24.3559 15.0365L24.9821 13.1578C25.233 12.4051 25.1325 11.5895 24.7061 10.9194C24.2805 10.2504 23.5852 9.81426 22.7992 9.72276L20.8376 9.49026C19.6931 9.35789 18.5737 10.0036 18.123 11.0514L16.5367 14.3814C16.4891 14.4815 16.4884 14.5974 16.5341 14.6983L17.3647 16.523C16.302 16.928 15.3769 17.6221 14.6974 18.5326L12.342 15.2724C12.144 14.9983 12.0802 14.6555 12.1684 14.33L14.0175 7.24101C14.1285 6.80789 14.4266 6.45126 14.8361 6.26151L23.9797 2.01388C24.2707 1.88038 24.5895 1.84213 24.9 1.90251L35.7127 3.99426C36.5036 6.32151 36.9806 8.74063 37.1257 11.1901C37.2067 12.5596 37.1827 13.9303 37.0586 15.293H30.375V15.2926ZM35.9239 18.0661C35.4757 17.4755 35.1562 16.7814 34.971 16.0426H36.9799C36.873 16.9411 36.7189 17.8348 36.5231 18.7213C36.3071 18.5169 36.1027 18.302 35.9239 18.0661Z" fill="#2C3E50"/>
<path d="M5.62492 28.1429C5.71455 28.1429 5.80455 28.111 5.87617 28.0458L6.31042 27.6528C6.46417 27.5137 6.4758 27.2767 6.33667 27.1233C6.19755 26.9699 5.96092 26.9579 5.80717 27.097L5.37292 27.49C5.21917 27.6292 5.20755 27.8662 5.34667 28.0195C5.42092 28.1013 5.52292 28.1429 5.62492 28.1429Z" fill="#2C3E50"/>
</svg>
