<svg width="32" height="32" viewBox="0 0 32 32" fill="none" xmlns="http://www.w3.org/2000/svg">
<g clip-path="url(#clip0_142_1657)">
<path d="M24.3334 11.5795C25.3437 11.5795 26.3126 11.1782 27.027 10.4638M24.3334 11.5795C23.3231 11.5795 22.3542 11.1782 21.6398 10.4638M24.3334 11.5795V14.4368M27.027 10.4638C27.7414 9.7494 28.1427 8.78048 28.1427 7.77018M27.027 10.4638L29.048 12.4835M28.1427 7.77018C28.1427 6.75988 27.7414 5.79097 27.027 5.07658M28.1427 7.77018H31M27.027 5.07658C26.3126 4.36219 25.3437 3.96085 24.3334 3.96085M27.027 5.07658L29.048 3.05552M24.3334 3.96085C23.3231 3.96085 22.3542 4.36219 21.6398 5.07658M24.3334 3.96085V1.10352M21.6398 5.07658C20.9254 5.79097 20.524 6.75988 20.524 7.77018M21.6398 5.07658L19.6187 3.05552M20.524 7.77018C20.524 8.78048 20.9254 9.7494 21.6398 10.4638M20.524 7.77018H17.6667M21.6398 10.4638L19.6187 12.4835M23.6987 1.10352H24.968M28.5987 2.60752L29.496 3.50485M31 7.13552V8.40485M29.496 12.0355L28.5987 12.9328M24.968 14.4368H23.6987M20.068 12.9328L19.1707 12.0355M17.6667 8.40485V7.13552M19.1707 3.50485L20.068 2.60752M21.644 26.6128L15.952 27.7515M16.5147 21.2942L13.8294 22.4289C13.6174 22.5161 13.39 22.5595 13.1608 22.5563C12.9316 22.5531 12.7055 22.5034 12.496 22.4102C12.2827 22.3156 12.0904 22.1795 11.9302 22.0099C11.7699 21.8403 11.645 21.6405 11.5627 21.4222C11.4021 21.0083 11.399 20.5499 11.5538 20.1339C11.7086 19.7179 12.0107 19.3731 12.4027 19.1648L15.088 17.8235C15.3786 17.6729 15.6975 17.5852 16.0241 17.5659C16.3508 17.5466 16.6778 17.5962 16.984 17.7115L22.5014 19.8862" stroke="#00A5BF" stroke-width="1.5" stroke-linecap="round" stroke-linejoin="round"/>
<path d="M5.52379 27.7964H7.42379L11.0491 30.5617C11.2191 30.7527 11.4565 30.8703 11.7115 30.8897C11.9664 30.9091 12.2189 30.8288 12.4158 30.6657L17.4825 26.4817C17.6829 26.3162 17.811 26.0791 17.8396 25.8208C17.8682 25.5624 17.7951 25.3031 17.6358 25.0977L14.8438 21.999M12.1131 19.3537L11.8198 19.1124C11.5292 18.8965 11.1881 18.7587 10.8292 18.712C10.4702 18.6654 10.1053 18.7114 9.76913 18.8457L5.52246 20.6577" stroke="#00A5BF" stroke-width="1.5" stroke-linecap="round" stroke-linejoin="round"/>
<path d="M1 28.6892H4.16267C4.52041 28.7074 4.8709 28.5838 5.13802 28.3451C5.40514 28.1064 5.56732 27.772 5.58933 27.4145V21.0438C5.56699 20.6865 5.40466 20.3525 5.13758 20.1141C4.8705 19.8757 4.52019 19.7523 4.16267 19.7705H1M26.2333 28.6892H23.0667C22.7089 28.7074 22.3584 28.5838 22.0913 28.3451C21.8242 28.1064 21.662 27.772 21.64 27.4145V21.0438C21.6623 20.6865 21.8247 20.3525 22.0918 20.1141C22.3588 19.8757 22.7091 19.7523 23.0667 19.7705H26.2293M13.7013 7.77051H1.70133M1.70133 7.77051L5.70133 3.77051M1.70133 7.77051L5.70133 11.7705" stroke="#00A5BF" stroke-width="1.5" stroke-linecap="round" stroke-linejoin="round"/>
</g>
<defs>
<clipPath id="clip0_142_1657">
<rect width="32" height="32" fill="white"/>
</clipPath>
</defs>
</svg>
