<svg width="95" height="131" viewBox="0 0 95 131" fill="none" xmlns="http://www.w3.org/2000/svg">
<path d="M47.5 68.8652V113.876C47.5 122.158 40.78 128.88 32.5 128.88H29.5C19.57 128.88 11.5 120.808 11.5 110.875V89.8702" stroke="#E67514" stroke-width="4" stroke-linecap="round" stroke-linejoin="round"/>
<path d="M23.5 101.873V89.8701" stroke="#E67514" stroke-width="4" stroke-linecap="round" stroke-linejoin="round"/>
<path d="M35.5 101.873V89.8701" stroke="#E67514" stroke-width="4" stroke-linecap="round" stroke-linejoin="round"/>
<path d="M47.5 113.876L62.5 86.8691" stroke="#E67514" stroke-width="4" stroke-linecap="round" stroke-linejoin="round"/>
<path d="M38.5 74.8669L23.05 59.4133C15.67 52.0315 11.5 41.9791 11.5 31.5366C11.5 21.3042 19.27 12.4521 29.5 11.8819C37.33 11.4618 44.2 15.7529 47.5 22.1744C51.01 15.3628 58.51 10.9517 66.91 12.002C76.54 13.2023 83.5 21.8443 83.5 31.5366C83.5 41.9791 79.36 52.0315 71.95 59.4133L56.5 74.8669" stroke="#E67514" stroke-width="4" stroke-linecap="round" stroke-linejoin="round"/>
<path d="M53.5 35.8584H44.5L41.5 38.8591V41.8598L44.5 44.8605H50.5L53.5 47.8613V50.862L50.5 53.8627H41.5" stroke="#E67514" stroke-width="4" stroke-linecap="round" stroke-linejoin="round"/>
<path d="M47.5 35.8581V32.8574" stroke="#E67514" stroke-width="4" stroke-linecap="round" stroke-linejoin="round"/>
<path d="M47.5 53.8623V56.863" stroke="#E67514" stroke-width="4" stroke-linecap="round" stroke-linejoin="round"/>
<path d="M2.5 22.5346C2.5 12.3021 10.27 3.45002 20.5 2.87988" stroke="#E67514" stroke-width="4" stroke-linecap="round" stroke-linejoin="round"/>
<path d="M92.5 22.5346C92.5 12.3021 84.73 3.45002 74.5 2.87988" stroke="#E67514" stroke-width="4" stroke-linecap="round" stroke-linejoin="round"/>
</svg>
