<svg width="32" height="40" viewBox="0 0 32 40" fill="none" xmlns="http://www.w3.org/2000/svg">
<path d="M30.7656 33L25.9356 28.17C25.1856 27.42 24.1656 27 23.1056 27H21.7656L19.7656 28H15.7656C14.6656 28 13.7656 28.9 13.7656 30V32" stroke="#00A5BF" stroke-width="2" stroke-linecap="round" stroke-linejoin="round"/>
<path d="M24.7656 38.9999L22.7656 36.9999H10.7656L1.76562 27.9999L3.33563 27.6099C4.86563 27.2299 6.49563 27.5799 7.72563 28.5699L11.7656 31.9999H19.7656" stroke="#00A5BF" stroke-width="2" stroke-linecap="round" stroke-linejoin="round"/>
<path d="M14.9656 21L14.7656 22L12.7656 24H10.7656L8.76564 22L6.76564 24H4.76564L2.76564 22L1.07564 13.54C0.875637 12.55 1.07563 11.53 1.63563 10.69C2.33563 9.63 3.52564 9 4.79564 9H12.7656" stroke="#00A5BF" stroke-width="2" stroke-linecap="round" stroke-linejoin="round"/>
<path d="M8.76562 9L6.76562 5" stroke="#00A5BF" stroke-width="2" stroke-linecap="round" stroke-linejoin="round"/>
<path d="M20.1456 8.95C20.4756 6.88 18.8656 5 16.7656 5C14.6656 5 13.0656 6.88 13.3856 8.95L15.6056 23.01C15.6956 23.58 16.1856 24 16.7656 24C17.3456 24 17.8356 23.58 17.9256 23.01L20.1456 8.95Z" stroke="#00A5BF" stroke-width="2" stroke-linecap="round" stroke-linejoin="round"/>
<path d="M15.7656 2L16.7656 5L18.7656 1" stroke="#00A5BF" stroke-width="2" stroke-linecap="round" stroke-linejoin="round"/>
</svg>
