<svg width="49" height="48" viewBox="0 0 49 48" fill="none" xmlns="http://www.w3.org/2000/svg">
<g clip-path="url(#clip0_171_986)">
<path d="M39.6594 24.2344L36.1901 16.6018C35.9667 16.1102 35.6064 15.6933 35.1524 15.401C34.6983 15.1086 34.1697 14.9531 33.6297 14.9531H4.31567C3.56975 14.9531 2.85438 15.2494 2.32694 15.7769C1.79949 16.3043 1.50317 17.0197 1.50317 17.7656V34.7812C1.50317 35.5272 1.79949 36.2425 2.32694 36.77C2.85438 37.2974 3.56975 37.5938 4.31567 37.5938H45.2844C46.0303 37.5938 46.7457 37.2974 47.2732 36.77C47.8006 36.2425 48.0969 35.5272 48.0969 34.7812V29.074C48.0969 28.4837 47.9112 27.9084 47.566 27.4296C47.2209 26.9507 46.7338 26.5926 46.1738 26.4059L39.6594 24.2344Z" fill="#FBFBFB"/>
<path d="M46.1738 26.4058L39.6594 24.2344L36.19 16.6018C35.9666 16.1102 35.6063 15.6933 35.1523 15.401C34.6983 15.1086 34.1697 14.9531 33.6296 14.9531H30.8171C31.3571 14.9531 31.8857 15.1086 32.3397 15.401C32.7937 15.6933 33.154 16.1102 33.3775 16.6018L36.8469 24.2344L43.3613 26.4058C43.9213 26.5925 44.4083 26.9506 44.7535 27.4295C45.0986 27.9083 45.2843 28.4837 45.2844 29.0739V34.7812C45.2844 35.5272 44.988 36.2425 44.4606 36.77C43.9331 37.2974 43.2178 37.5938 42.4719 37.5938H45.2844C46.0303 37.5938 46.7456 37.2974 47.2731 36.77C47.8005 36.2425 48.0969 35.5272 48.0969 34.7812V29.074C48.0968 28.4837 47.9111 27.9084 47.566 27.4296C47.2208 26.9507 46.7338 26.5926 46.1738 26.4059V26.4058Z" fill="#F2F2F2"/>
<path d="M35.8382 24.2344H25.175C25.1258 24.2344 25.077 24.2247 25.0315 24.2059C24.986 24.187 24.9447 24.1594 24.9099 24.1246C24.875 24.0897 24.8474 24.0484 24.8286 24.0029C24.8097 23.9574 24.8 23.9086 24.8 23.8594V18.1406C24.8 18.0914 24.8097 18.0426 24.8286 17.9971C24.8474 17.9516 24.875 17.9103 24.9099 17.8754C24.9447 17.8406 24.986 17.813 25.0315 17.7941C25.077 17.7753 25.1258 17.7656 25.175 17.7656H33.186C33.2574 17.7656 33.3274 17.786 33.3876 17.8246C33.4477 17.8632 33.4956 17.9182 33.5254 17.9831L36.1775 23.7019C36.2041 23.7589 36.2159 23.8218 36.2117 23.8846C36.2076 23.9474 36.1877 24.0081 36.1539 24.0612C36.12 24.1143 36.0734 24.1579 36.0182 24.1882C35.963 24.2185 35.9011 24.2344 35.8382 24.2344Z" fill="#B3E0FF"/>
<path d="M1.50317 17.7656V29.5781H16.6438V14.9531H4.31567C3.56975 14.9531 2.85438 15.2494 2.32694 15.7769C1.79949 16.3043 1.50317 17.0197 1.50317 17.7656Z" fill="#EEEEEE"/>
<path d="M48.0969 29.5781V34.7812C48.0969 35.1506 48.0242 35.5163 47.8829 35.8576C47.7416 36.1988 47.5344 36.5089 47.2732 36.77C47.012 37.0312 46.702 37.2384 46.3607 37.3797C46.0195 37.521 45.6538 37.5938 45.2844 37.5938H4.31567C3.94632 37.5938 3.58059 37.521 3.23935 37.3797C2.89811 37.2384 2.58805 37.0312 2.32688 36.77C2.06571 36.5089 1.85855 36.1988 1.71721 35.8576C1.57588 35.5163 1.50315 35.1506 1.50317 34.7812V29.5781H48.0969ZM12.8938 20.8594H10.7375V18.7031C10.7375 18.4545 10.6388 18.216 10.463 18.0402C10.2871 17.8644 10.0487 17.7656 9.80005 17.7656H8.86255C8.61391 17.7656 8.37545 17.8644 8.19964 18.0402C8.02382 18.216 7.92505 18.4545 7.92505 18.7031V20.8594H5.7688C5.52016 20.8594 5.2817 20.9581 5.10589 21.134C4.93007 21.3098 4.8313 21.5482 4.8313 21.7969V22.7344C4.8313 22.983 4.93007 23.2215 5.10589 23.3973C5.2817 23.5731 5.52016 23.6719 5.7688 23.6719H7.92505V25.8281C7.92505 26.0768 8.02382 26.3152 8.19964 26.491C8.37545 26.6669 8.61391 26.7656 8.86255 26.7656H9.80005C10.0487 26.7656 10.2871 26.6669 10.463 26.491C10.6388 26.3152 10.7375 26.0768 10.7375 25.8281V23.6719H12.8938C13.1424 23.6719 13.3809 23.5731 13.5567 23.3973C13.7325 23.2215 13.8313 22.983 13.8313 22.7344V21.7969C13.8313 21.5482 13.7325 21.3098 13.5567 21.134C13.3809 20.9581 13.1424 20.8594 12.8938 20.8594Z" fill="#FF6666"/>
<path d="M17.8157 37.5938H7.40942C7.40942 36.2138 7.95761 34.8904 8.93338 33.9146C9.90916 32.9388 11.2326 32.3906 12.6125 32.3906C13.9925 32.3906 15.3159 32.9388 16.2917 33.9146C17.2675 34.8904 17.8157 36.2138 17.8157 37.5938Z" fill="#FF4E4E"/>
<path d="M11.2063 42.7969C14.0799 42.7969 16.4094 40.4674 16.4094 37.5938C16.4094 34.7201 14.0799 32.3906 11.2063 32.3906C8.33269 32.3906 6.00317 34.7201 6.00317 37.5938C6.00317 40.4674 8.33269 42.7969 11.2063 42.7969Z" fill="#4A4F60"/>
<path d="M11.2063 32.3906C10.9711 32.3911 10.7362 32.4073 10.5032 32.4393C11.7496 32.6093 12.8921 33.2251 13.7194 34.1728C14.5466 35.1205 15.0024 36.3358 15.0024 37.5938C15.0024 38.8517 14.5466 40.067 13.7194 41.0147C12.8921 41.9624 11.7496 42.5782 10.5032 42.7482C11.2096 42.8448 11.9284 42.7951 12.6149 42.6022C13.3013 42.4093 13.9408 42.0774 14.4936 41.6271C15.0464 41.1767 15.5007 40.6176 15.8284 39.9843C16.1561 39.351 16.3501 38.6571 16.3984 37.9458C16.4467 37.2344 16.3482 36.5206 16.1092 35.8489C15.8701 35.1771 15.4955 34.5617 15.0086 34.0408C14.5217 33.5199 13.933 33.1046 13.2789 32.8207C12.6248 32.5368 11.9193 32.3904 11.2063 32.3906Z" fill="#3B3F4D"/>
<path d="M40.3157 37.5938H29.9094C29.9094 36.2138 30.4576 34.8904 31.4334 33.9146C32.4092 32.9388 33.7326 32.3906 35.1125 32.3906C36.4925 32.3906 37.8159 32.9388 38.7917 33.9146C39.7675 34.8904 40.3157 36.2138 40.3157 37.5938Z" fill="#FF4E4E"/>
<path d="M33.7063 42.7969C36.5799 42.7969 38.9094 40.4674 38.9094 37.5938C38.9094 34.7201 36.5799 32.3906 33.7063 32.3906C30.8327 32.3906 28.5032 34.7201 28.5032 37.5938C28.5032 40.4674 30.8327 42.7969 33.7063 42.7969Z" fill="#4A4F60"/>
<path d="M33.7063 32.3906C33.4711 32.3911 33.2362 32.4073 33.0032 32.4393C34.2496 32.6093 35.3921 33.2251 36.2194 34.1728C37.0466 35.1205 37.5024 36.3358 37.5024 37.5938C37.5024 38.8517 37.0466 40.067 36.2194 41.0147C35.3921 41.9624 34.2496 42.5782 33.0032 42.7482C33.7096 42.8448 34.4284 42.7951 35.1149 42.6022C35.8013 42.4093 36.4408 42.0774 36.9936 41.6271C37.5464 41.1767 38.0007 40.6176 38.3284 39.9843C38.6561 39.351 38.8501 38.6571 38.8984 37.9458C38.9467 37.2344 38.8482 36.5206 38.6092 35.8489C38.3701 35.1771 37.9955 34.5617 37.5086 34.0408C37.0217 33.5199 36.433 33.1046 35.7789 32.8207C35.1248 32.5368 34.4193 32.3904 33.7063 32.3906Z" fill="#3B3F4D"/>
<path d="M30.3782 10.5469C31.0246 10.5469 31.6446 10.8037 32.1017 11.2608C32.5589 11.7179 32.8157 12.3379 32.8157 12.9844V14.9531H27.9407V12.9844C27.9407 12.3379 28.1975 11.7179 28.6546 11.2608C29.1117 10.8037 29.7317 10.5469 30.3782 10.5469Z" fill="#FF6666"/>
<path d="M30.3782 10.5469C30.14 10.5468 29.9031 10.5816 29.675 10.6503C30.1765 10.8015 30.6159 11.1101 30.9283 11.5305C31.2406 11.9509 31.4093 12.4606 31.4094 12.9844V14.9531H32.8157V12.9844C32.8157 12.3379 32.5589 11.7179 32.1017 11.2608C31.6446 10.8037 31.0246 10.5469 30.3782 10.5469Z" fill="#FF4E4E"/>
<path d="M33.7063 39C34.4829 39 35.1125 38.3704 35.1125 37.5938C35.1125 36.8171 34.4829 36.1875 33.7063 36.1875C32.9296 36.1875 32.3 36.8171 32.3 37.5938C32.3 38.3704 32.9296 39 33.7063 39Z" fill="#676E87"/>
<path d="M11.2063 39C11.9829 39 12.6125 38.3704 12.6125 37.5938C12.6125 36.8171 11.9829 36.1875 11.2063 36.1875C10.4296 36.1875 9.80005 36.8171 9.80005 37.5938C9.80005 38.3704 10.4296 39 11.2063 39Z" fill="#676E87"/>
<path d="M45.2844 34.7812C45.2844 35.5272 44.9881 36.2425 44.4607 36.77C43.9332 37.2974 43.2178 37.5938 42.4719 37.5938H45.2844C46.0303 37.5938 46.7457 37.2974 47.2732 36.77C47.8006 36.2425 48.0969 35.5272 48.0969 34.7812V29.5781H45.2844V34.7812Z" fill="#FF4E4E"/>
<path d="M33.2346 24.2344H31.5903L26.9337 17.7656H28.579L33.2346 24.2344ZM31.1543 24.2344H30.5028L25.8462 17.7656H26.4978L31.1543 24.2344Z" fill="#D9F0FF"/>
<path d="M32.8802 7.83112C32.9606 7.87655 33.0491 7.90568 33.1408 7.91685C33.2325 7.92802 33.3255 7.92101 33.4144 7.89623C33.5034 7.87144 33.5866 7.82935 33.6593 7.77239C33.732 7.71542 33.7927 7.64468 33.838 7.56422L34.7296 5.98359C34.7758 5.90313 34.8057 5.8143 34.8175 5.72223C34.8292 5.63016 34.8227 5.53667 34.7981 5.44715C34.7736 5.35764 34.7315 5.27387 34.6744 5.20069C34.6174 5.1275 34.5463 5.06634 34.4655 5.02073C34.3847 4.97512 34.2956 4.94597 34.2034 4.93496C34.1113 4.92395 34.0178 4.9313 33.9285 4.95658C33.8392 4.98186 33.7558 5.02457 33.6831 5.08225C33.6104 5.13994 33.5498 5.21144 33.5048 5.29266L32.6133 6.87328C32.5217 7.03569 32.4983 7.22785 32.5484 7.40748C32.5984 7.58711 32.7178 7.7395 32.8802 7.83112ZM8.72239 9.9375H19.1552C19.3417 9.9375 19.5205 9.86342 19.6524 9.73156C19.7842 9.5997 19.8583 9.42086 19.8583 9.23438C19.8583 9.04789 19.7842 8.86905 19.6524 8.73719C19.5205 8.60533 19.3417 8.53125 19.1552 8.53125H8.72239C8.53591 8.53125 8.35707 8.60533 8.22521 8.73719C8.09335 8.86905 8.01927 9.04789 8.01927 9.23438C8.01927 9.42086 8.09335 9.5997 8.22521 9.73156C8.35707 9.86342 8.53591 9.9375 8.72239 9.9375ZM4.74374 9.9375H5.89311C6.07959 9.9375 6.25843 9.86342 6.3903 9.73156C6.52216 9.5997 6.59624 9.42086 6.59624 9.23438C6.59624 9.04789 6.52216 8.86905 6.3903 8.73719C6.25843 8.60533 6.07959 8.53125 5.89311 8.53125H4.74374C4.55726 8.53125 4.37841 8.60533 4.24655 8.73719C4.11469 8.86905 4.04061 9.04789 4.04061 9.23438C4.04061 9.42086 4.11469 9.5997 4.24655 9.73156C4.37841 9.86342 4.55726 9.9375 4.74374 9.9375ZM12.701 7.29178H20.4813C20.6677 7.29178 20.8466 7.2177 20.9785 7.08584C21.1103 6.95398 21.1844 6.77514 21.1844 6.58866C21.1844 6.40218 21.1103 6.22333 20.9785 6.09147C20.8466 5.95961 20.6677 5.88553 20.4813 5.88553H12.701C12.5145 5.88553 12.3356 5.95961 12.2038 6.09147C12.0719 6.22333 11.9978 6.40218 11.9978 6.58866C11.9978 6.77514 12.0719 6.95398 12.2038 7.08584C12.3356 7.2177 12.5145 7.29178 12.701 7.29178ZM26.9183 7.56422C27.01 7.72664 27.1623 7.84602 27.342 7.89608C27.5216 7.94614 27.7138 7.9228 27.8762 7.83117C28.0386 7.73955 28.158 7.58715 28.2081 7.40751C28.2581 7.22788 28.2348 7.03571 28.1432 6.87328L27.2516 5.29266C27.2062 5.21223 27.1455 5.14153 27.0728 5.08459C27.0001 5.02765 26.9169 4.98558 26.828 4.96079C26.739 4.93601 26.646 4.92898 26.5544 4.94012C26.4627 4.95125 26.3741 4.98034 26.2937 5.0257C26.1313 5.11733 26.0119 5.26972 25.9619 5.44936C25.9118 5.629 25.9351 5.82117 26.0268 5.98359L26.9183 7.56422ZM30.3782 7.92188C30.5647 7.92188 30.7435 7.8478 30.8754 7.71593C31.0072 7.58407 31.0813 7.40523 31.0813 7.21875V5.15625C31.0813 4.96977 31.0072 4.79093 30.8754 4.65907C30.7435 4.5272 30.5647 4.45312 30.3782 4.45312C30.1917 4.45312 30.0128 4.5272 29.881 4.65907C29.7491 4.79093 29.675 4.96977 29.675 5.15625V7.21875C29.675 7.40523 29.7491 7.58407 29.881 7.71593C30.0128 7.8478 30.1917 7.92188 30.3782 7.92188ZM39.5692 38.2969H45.2844C46.2165 38.2958 47.1101 37.9251 47.7692 37.266C48.4283 36.6069 48.799 35.7133 48.8 34.7812V29.074C48.8007 28.336 48.5688 27.6165 48.1373 27.0178C47.7057 26.419 47.0965 25.9715 46.3961 25.7388L40.1727 23.6643L36.8301 16.3108C36.5501 15.6969 36.0996 15.1763 35.5322 14.811C34.9649 14.4456 34.3045 14.2509 33.6297 14.25H33.5188V12.9844C33.5188 12.1514 33.1879 11.3526 32.5989 10.7636C32.01 10.1746 31.2111 9.84375 30.3782 9.84375C29.5452 9.84375 28.7464 10.1746 28.1574 10.7636C27.5684 11.3526 27.2375 12.1514 27.2375 12.9844V14.25H4.31567C3.38359 14.251 2.48998 14.6218 1.8309 15.2809C1.17182 15.9399 0.801091 16.8335 0.800049 17.7656L0.800049 34.7812C0.801091 35.7133 1.17182 36.6069 1.8309 37.266C2.48998 37.9251 3.38359 38.2958 4.31567 38.2969H5.34336C5.52393 39.7997 6.27495 41.1758 7.44121 42.1406H1.50317C1.31669 42.1406 1.13785 42.2147 1.00599 42.3466C0.874128 42.4784 0.800049 42.6573 0.800049 42.8438C0.800049 43.0302 0.874128 43.2091 1.00599 43.3409C1.13785 43.4728 1.31669 43.5469 1.50317 43.5469H48.0969C48.2834 43.5469 48.4622 43.4728 48.5941 43.3409C48.726 43.2091 48.8 43.0302 48.8 42.8438C48.8 42.6573 48.726 42.4784 48.5941 42.3466C48.4622 42.2147 48.2834 42.1406 48.0969 42.1406H37.4714C38.6377 41.1758 39.3887 39.7997 39.5692 38.2969ZM28.6438 12.9844C28.6438 12.5244 28.8265 12.0832 29.1518 11.758C29.477 11.4327 29.9182 11.25 30.3782 11.25C30.8382 11.25 31.2793 11.4327 31.6046 11.758C31.9298 12.0832 32.1125 12.5244 32.1125 12.9844V14.25H28.6438V12.9844ZM17.3469 15.6562H33.6297C34.0346 15.6568 34.4308 15.7736 34.7712 15.9929C35.1116 16.2121 35.3819 16.5244 35.55 16.8928L39.0193 24.5254C39.0593 24.6134 39.1171 24.6922 39.189 24.757C39.2608 24.8217 39.3453 24.8708 39.437 24.9014L45.9515 27.0728C46.3393 27.2018 46.6812 27.4409 46.9355 27.7609C47.1898 28.0809 47.3454 28.468 47.3835 28.875H17.3469V15.6562ZM2.2063 17.7656C2.20692 17.2064 2.42936 16.6702 2.82481 16.2748C3.22026 15.8793 3.75642 15.6569 4.31567 15.6562H15.9407V28.875H2.2063V17.7656ZM4.31567 36.8906C3.75642 36.89 3.22026 36.6676 2.82481 36.2721C2.42936 35.8767 2.20692 35.3405 2.2063 34.7812V30.2812H47.3938V34.7812C47.3932 35.3405 47.1707 35.8767 46.7753 36.2721C46.3798 36.6676 45.8437 36.89 45.2844 36.8906H39.5692C39.3976 35.4563 38.7062 34.1346 37.6257 33.1757C36.5453 32.2169 35.1509 31.6873 33.7063 31.6873C32.2617 31.6873 30.8673 32.2169 29.7868 33.1757C28.7064 34.1346 28.015 35.4563 27.8434 36.8906H17.0692C16.8976 35.4563 16.2062 34.1346 15.1257 33.1757C14.0453 32.2169 12.6509 31.6873 11.2063 31.6873C9.76173 31.6873 8.36728 32.2169 7.28685 33.1757C6.20642 34.1346 5.51497 35.4563 5.34336 36.8906H4.31567ZM11.2063 42.0938C10.3163 42.0938 9.44625 41.8298 8.70623 41.3354C7.96621 40.8409 7.38944 40.1381 7.04884 39.3158C6.70825 38.4936 6.61913 37.5888 6.79277 36.7158C6.9664 35.8429 7.39498 35.0411 8.02432 34.4118C8.65365 33.7824 9.45548 33.3538 10.3284 33.1802C11.2013 33.0066 12.1061 33.0957 12.9284 33.4363C13.7506 33.7769 14.4534 34.3537 14.9479 35.0937C15.4424 35.8337 15.7063 36.7037 15.7063 37.5938C15.705 38.7868 15.2304 39.9306 14.3868 40.7743C13.5432 41.6179 12.3994 42.0924 11.2063 42.0938ZM14.9714 42.1406C16.1376 41.1758 16.8887 39.7997 17.0692 38.2969H27.8434C28.0239 39.7997 28.7749 41.1758 29.9412 42.1406H14.9714ZM33.7063 42.0938C32.8163 42.0938 31.9463 41.8298 31.2062 41.3354C30.4662 40.8409 29.8894 40.1381 29.5488 39.3158C29.2082 38.4936 29.1191 37.5888 29.2928 36.7158C29.4664 35.8429 29.895 35.0411 30.5243 34.4118C31.1537 33.7824 31.9555 33.3538 32.8284 33.1802C33.7013 33.0066 34.6061 33.0957 35.4284 33.4363C36.2506 33.7769 36.9534 34.3537 37.4479 35.0937C37.9424 35.8337 38.2063 36.7037 38.2063 37.5938C38.205 38.7868 37.7304 39.9306 36.8868 40.7743C36.0432 41.6179 34.8994 42.0924 33.7063 42.0938ZM33.7063 35.4844C33.2891 35.4844 32.8813 35.6081 32.5344 35.8399C32.1875 36.0716 31.9171 36.4011 31.7575 36.7865C31.5978 37.172 31.5561 37.5961 31.6375 38.0053C31.7188 38.4144 31.9197 38.7903 32.2147 39.0853C32.5097 39.3803 32.8856 39.5812 33.2948 39.6626C33.704 39.744 34.1281 39.7022 34.5135 39.5426C34.899 39.3829 35.2284 39.1125 35.4602 38.7657C35.692 38.4188 35.8157 38.0109 35.8157 37.5938C35.8151 37.0345 35.5926 36.4983 35.1972 36.1029C34.8017 35.7074 34.2655 35.485 33.7063 35.4844ZM33.7063 38.2969C33.5672 38.2969 33.4313 38.2556 33.3157 38.1784C33.2 38.1011 33.1099 37.9913 33.0567 37.8628C33.0035 37.7343 32.9896 37.593 33.0167 37.4566C33.0438 37.3202 33.1108 37.1949 33.2091 37.0966C33.3074 36.9982 33.4327 36.9313 33.5691 36.9041C33.7055 36.877 33.8469 36.8909 33.9754 36.9441C34.1039 36.9974 34.2137 37.0875 34.2909 37.2031C34.3682 37.3187 34.4094 37.4547 34.4094 37.5938C34.4092 37.7802 34.3351 37.9589 34.2033 38.0907C34.0714 38.2225 33.8927 38.2967 33.7063 38.2969ZM12.8938 20.1562H11.4407V18.7031C11.4402 18.2682 11.2672 17.8511 10.9596 17.5436C10.652 17.236 10.235 17.063 9.80005 17.0625H8.86255C8.42758 17.063 8.01057 17.236 7.703 17.5436C7.39543 17.8511 7.22242 18.2682 7.22192 18.7031V20.1562H5.7688C5.33383 20.1567 4.91682 20.3298 4.60925 20.6373C4.30168 20.9449 4.12867 21.3619 4.12817 21.7969V22.7344C4.12867 23.1693 4.30168 23.5864 4.60925 23.8939C4.91682 24.2015 5.33383 24.3745 5.7688 24.375H7.22192V25.8281C7.22242 26.2631 7.39543 26.6801 7.703 26.9877C8.01057 27.2952 8.42758 27.4683 8.86255 27.4688H9.80005C10.235 27.4683 10.652 27.2952 10.9596 26.9877C11.2672 26.6801 11.4402 26.2631 11.4407 25.8281V24.375H12.8938C13.3288 24.3745 13.7458 24.2015 14.0533 23.8939C14.3609 23.5864 14.5339 23.1693 14.5344 22.7344V21.7969C14.5339 21.3619 14.3609 20.9449 14.0533 20.6373C13.7458 20.3298 13.3288 20.1567 12.8938 20.1562ZM13.1282 22.7344C13.1281 22.7965 13.1034 22.8561 13.0594 22.9C13.0155 22.944 12.9559 22.9687 12.8938 22.9688H10.7375C10.5511 22.9688 10.3722 23.0428 10.2404 23.1747C10.1085 23.3066 10.0344 23.4854 10.0344 23.6719V25.8281C10.0343 25.8903 10.0096 25.9498 9.96569 25.9938C9.92176 26.0377 9.86219 26.0624 9.80005 26.0625H8.86255C8.80041 26.0624 8.74084 26.0377 8.6969 25.9938C8.65297 25.9498 8.62825 25.8903 8.62817 25.8281V23.6719C8.62817 23.4854 8.55409 23.3066 8.42223 23.1747C8.29037 23.0428 8.11153 22.9688 7.92505 22.9688H5.7688C5.70666 22.9687 5.64709 22.944 5.60315 22.9C5.55922 22.8561 5.5345 22.7965 5.53442 22.7344V21.7969C5.5345 21.7347 5.55922 21.6752 5.60315 21.6312C5.64709 21.5873 5.70666 21.5626 5.7688 21.5625H7.92505C8.11153 21.5625 8.29037 21.4884 8.42223 21.3566C8.55409 21.2247 8.62817 21.0459 8.62817 20.8594V18.7031C8.62825 18.641 8.65297 18.5814 8.6969 18.5375C8.74084 18.4935 8.80041 18.4688 8.86255 18.4688H9.80005C9.86219 18.4688 9.92176 18.4935 9.96569 18.5375C10.0096 18.5814 10.0343 18.641 10.0344 18.7031V20.8594C10.0344 21.0459 10.1085 21.2247 10.2404 21.3566C10.3722 21.4884 10.5511 21.5625 10.7375 21.5625H12.8938C12.9559 21.5626 13.0155 21.5873 13.0594 21.6312C13.1034 21.6752 13.1281 21.7347 13.1282 21.7969V22.7344ZM34.0629 17.4698C34.0065 17.3482 33.9165 17.2452 33.8035 17.173C33.6905 17.1009 33.5591 17.0625 33.425 17.0625H24.8C24.6136 17.0625 24.4347 17.1366 24.3029 17.2684C24.171 17.4003 24.0969 17.5791 24.0969 17.7656V24.2344C24.0969 24.4209 24.171 24.5997 24.3029 24.7316C24.4347 24.8634 24.6136 24.9375 24.8 24.9375H36.425C36.5431 24.9375 36.6593 24.9078 36.7629 24.851C36.8665 24.7943 36.9541 24.7123 37.0176 24.6128C37.0812 24.5133 37.1187 24.3993 37.1266 24.2815C37.1345 24.1637 37.1126 24.0457 37.0629 23.9386L34.0629 17.4698ZM25.5032 23.5312V18.4688H32.976L35.3239 23.5312H25.5032ZM11.2063 35.4844C10.7891 35.4844 10.3813 35.6081 10.0344 35.8399C9.68751 36.0716 9.41714 36.4011 9.25749 36.7865C9.09784 37.172 9.05606 37.5961 9.13745 38.0053C9.21885 38.4144 9.41974 38.7903 9.71475 39.0853C10.0097 39.3803 10.3856 39.5812 10.7948 39.6626C11.204 39.744 11.6281 39.7022 12.0135 39.5426C12.399 39.3829 12.7284 39.1125 12.9602 38.7657C13.192 38.4188 13.3157 38.0109 13.3157 37.5938C13.3151 37.0345 13.0926 36.4983 12.6972 36.1029C12.3017 35.7074 11.7655 35.485 11.2063 35.4844ZM11.2063 38.2969C11.0672 38.2969 10.9313 38.2556 10.8157 38.1784C10.7 38.1011 10.6099 37.9913 10.5567 37.8628C10.5035 37.7343 10.4896 37.593 10.5167 37.4566C10.5438 37.3202 10.6108 37.1949 10.7091 37.0966C10.8074 36.9982 10.9327 36.9313 11.0691 36.9041C11.2055 36.877 11.3469 36.8909 11.4754 36.9441C11.6039 36.9974 11.7137 37.0875 11.7909 37.2031C11.8682 37.3187 11.9094 37.4547 11.9094 37.5938C11.9092 37.7802 11.8351 37.9589 11.7033 38.0907C11.5714 38.2225 11.3927 38.2967 11.2063 38.2969Z" fill="#313440"/>
</g>
<defs>
<clipPath id="clip0_171_986">
<rect width="48" height="48" fill="white" transform="translate(0.800049)"/>
</clipPath>
</defs>
</svg>
