<svg width="40" height="40" viewBox="0 0 40 40" fill="none" xmlns="http://www.w3.org/2000/svg">
<path d="M18.4922 12.013C18.4337 12.216 18.5508 12.4284 18.754 12.4871L26.6703 14.7721C26.7058 14.7821 26.7415 14.787 26.7766 14.787C26.9428 14.787 27.0959 14.6778 27.1443 14.5103C27.2028 14.3074 27.0858 14.0949 26.8826 14.0363L18.9662 11.7513C18.7622 11.6933 18.5508 11.8099 18.4922 12.013ZM17.5126 11.3318L15.3793 10.716C15.1757 10.6581 14.9639 10.7747 14.9052 10.9778C14.8467 11.1807 14.9637 11.3931 15.1669 11.4518L17.3002 12.0676C17.3358 12.0777 17.3715 12.0825 17.4065 12.0825C17.5727 12.0825 17.7258 11.9734 17.7742 11.8059C17.8328 11.6028 17.7158 11.3905 17.5126 11.3318Z" fill="#00A5BF"/>
<path d="M31.7715 16.3517H29.4323L31.6222 8.76385C32.0012 7.45088 31.247 6.08026 29.9339 5.70119L26.1055 4.59479L26.1553 2.94494C26.1936 1.58205 25.1178 0.441195 23.755 0.398929L10.5511 0.000804083C9.19203 -0.0335709 8.04352 1.03846 8.00141 2.40135L7.58414 16.3518H7.49227C6.11789 16.3518 5 17.4696 5 18.8403C5 20.2146 6.11789 21.3324 7.49227 21.3324H8.24648L16.4047 31.2248V38.6671C16.4047 38.7934 16.4659 38.916 16.5731 38.9849C16.6382 39.0271 16.7109 39.0499 16.7875 39.0499C16.8373 39.0499 16.887 39.0424 16.933 39.0232L22.6219 36.6803C22.7673 36.6192 22.8592 36.4812 22.8592 36.3243V31.2249L31.0174 21.3325H31.7716C33.146 21.3325 34.2639 20.2147 34.2639 18.8403C34.2637 17.4696 33.1459 16.3517 31.7715 16.3517ZM29.7195 6.43619C30.6268 6.70033 31.1512 7.64604 30.8871 8.54948L28.636 16.3517H21.8292L14.3755 14.2002C14.1687 14.1428 13.9582 14.2576 13.9008 14.4606C13.8395 14.6634 13.9582 14.8778 14.1611 14.9352L19.0691 16.3517H11.332L14.9115 3.9401C15.1756 3.03291 16.1251 2.51213 17.0286 2.77252L29.7195 6.43619ZM8.76695 2.42409C8.79758 1.49768 9.55563 0.766351 10.4744 0.766351H10.528L23.732 1.16448C24.6737 1.19143 25.4164 1.98002 25.3896 2.92182L25.3437 4.37651L17.2391 2.03744C15.9298 1.65838 14.5554 2.41635 14.1764 3.72955L10.5318 16.3517H8.35344L8.76695 2.42409ZM22.1815 30.8458C22.1279 30.9146 22.0934 30.9989 22.0934 31.087V36.0678L17.1702 38.0967V31.087C17.1702 30.9989 17.1396 30.9146 17.0822 30.8458L9.23789 21.3323H30.0258L22.1815 30.8458Z" fill="#00A5BF"/>
<path d="M25.7953 9.64792C25.5618 10.4519 24.7233 10.9037 23.9347 10.674L17.1241 8.70995C16.3278 8.48042 15.8684 7.64573 16.0981 6.8494C16.3278 6.05307 17.1624 5.58987 17.9587 5.81963L24.7693 7.78745C25.5656 8.01713 26.0251 8.85159 25.7953 9.64792ZM23.372 26.4008C23.104 26.3702 22.9011 26.1404 22.9011 25.8686C22.9011 25.5968 23.104 25.3671 23.372 25.3364C23.483 25.325 23.5826 25.2637 23.6438 25.1757C23.7051 25.0839 23.728 24.9728 23.7012 24.8655C23.6017 24.456 23.4409 24.0654 23.2189 23.7017C23.1615 23.6099 23.0696 23.5446 22.9624 23.5256C22.8514 23.5026 22.7404 23.5332 22.6562 23.5983C22.4418 23.7667 22.1355 23.7477 21.944 23.5563C21.7526 23.3649 21.7335 23.0587 21.9019 22.8442C21.9708 22.7599 21.9976 22.6489 21.9785 22.5418C21.9594 22.4308 21.8943 22.3388 21.7986 22.2814C21.4387 22.0633 21.0444 21.8986 20.6347 21.7992C20.5276 21.7722 20.4165 21.7953 20.3285 21.8566C20.2366 21.9177 20.1792 22.0174 20.1639 22.1245C20.1333 22.3963 19.9036 22.5992 19.6318 22.5992C19.36 22.5992 19.1303 22.3963 19.0997 22.1245C19.0882 22.0174 19.0269 21.9178 18.9389 21.8566C18.847 21.7953 18.736 21.7723 18.6288 21.7992C18.2192 21.8986 17.8287 22.0633 17.465 22.2814C17.3731 22.3389 17.308 22.4308 17.2851 22.5418C17.2659 22.6489 17.2965 22.7599 17.3616 22.8442C17.5301 23.0586 17.5109 23.3649 17.3195 23.5563C17.1281 23.7477 16.8218 23.7667 16.6074 23.5983C16.5232 23.5295 16.4122 23.5026 16.305 23.5218C16.194 23.5409 16.1021 23.6099 16.0447 23.7017C15.8265 24.0654 15.6657 24.456 15.5623 24.8655C15.5355 24.9728 15.5585 25.0839 15.6197 25.1757C15.6848 25.2637 15.7805 25.325 15.8915 25.3364C16.1595 25.3671 16.3625 25.5968 16.3625 25.8686C16.3625 26.1404 16.1596 26.3702 15.8915 26.4008C15.7805 26.416 15.6848 26.4735 15.6197 26.5653C15.5585 26.6534 15.5355 26.7683 15.5623 26.8717C15.6657 27.2813 15.8265 27.6756 16.0447 28.0356C16.1021 28.1313 16.1978 28.1964 16.305 28.2154C16.4122 28.2345 16.5232 28.2078 16.6112 28.1388C16.8218 27.9703 17.1281 27.9896 17.3195 28.181C17.5109 28.3724 17.5301 28.6786 17.3616 28.8931C17.2965 28.9774 17.2697 29.0884 17.2889 29.1995C17.308 29.3066 17.3731 29.3984 17.465 29.456C17.8248 29.6741 18.2153 29.8349 18.6288 29.9382C18.6594 29.9459 18.6901 29.9498 18.7207 29.9498C18.7972 29.9498 18.8738 29.9268 18.9389 29.8808C19.0269 29.8195 19.0882 29.72 19.0997 29.6128C19.1303 29.341 19.36 29.1381 19.6318 29.1381C19.9036 29.1381 20.1333 29.341 20.1639 29.609C20.1792 29.72 20.2366 29.8157 20.3285 29.8808C20.4165 29.9421 20.5276 29.9612 20.6347 29.9382C21.0444 29.8388 21.4349 29.6741 21.7986 29.456C21.8905 29.3984 21.9555 29.3027 21.9785 29.1956C21.9976 29.0885 21.967 28.9774 21.9019 28.8931C21.7335 28.6788 21.7526 28.3725 21.944 28.1811C22.1355 27.9897 22.4418 27.9704 22.6562 28.1389C22.7404 28.2041 22.8514 28.2346 22.9624 28.2117C23.0696 28.1925 23.1615 28.1274 23.2189 28.0356C23.4371 27.6719 23.6017 27.2814 23.7012 26.8718C23.728 26.7646 23.7051 26.6535 23.6438 26.5617C23.5787 26.4735 23.483 26.4122 23.372 26.4008ZM22.8551 27.0324C22.8169 27.1319 22.7786 27.2276 22.7326 27.3233C22.2771 27.1742 21.7602 27.2813 21.4042 27.6411C21.0482 27.9972 20.9372 28.5141 21.0865 28.9696C20.9908 29.0154 20.8951 29.0538 20.7955 29.0921C20.5812 28.6632 20.1371 28.3724 19.6317 28.3724C19.1264 28.3724 18.6822 28.6632 18.4679 29.0921C18.3683 29.0538 18.2726 29.0154 18.1769 28.9696C18.3262 28.5141 18.219 27.9972 17.8592 27.6411C17.5032 27.2852 16.9864 27.1742 16.5308 27.3233C16.4848 27.2276 16.4465 27.1319 16.4121 27.0324C16.837 26.8181 17.128 26.3739 17.128 25.8686C17.128 25.3632 16.837 24.9192 16.4121 24.7048C16.4465 24.6053 16.4848 24.5096 16.5308 24.4139C16.9863 24.5631 17.5032 24.456 17.8592 24.0961C18.219 23.74 18.3262 23.2231 18.1769 22.7676C18.2726 22.7216 18.3683 22.6833 18.4679 22.6452C18.6822 23.074 19.1263 23.3649 19.6317 23.3649C20.137 23.3649 20.5812 23.074 20.7955 22.6452C20.8951 22.6833 20.9908 22.7217 21.0865 22.7676C20.9372 23.2231 21.0482 23.74 21.4042 24.0961C21.7602 24.4521 22.277 24.5631 22.7326 24.4139C22.7786 24.5096 22.8169 24.6053 22.8551 24.7048C22.4264 24.9192 22.1354 25.3632 22.1354 25.8686C22.1355 26.3739 22.4264 26.8181 22.8551 27.0324Z" fill="#00A5BF"/>
<path d="M19.632 24.1729C18.6978 24.1729 17.936 24.9348 17.936 25.8689C17.936 26.8029 18.6978 27.5647 19.632 27.5647C20.5661 27.5647 21.3279 26.803 21.3279 25.8689C21.3279 24.9348 20.5661 24.1729 19.632 24.1729ZM19.632 26.799C19.119 26.799 18.7017 26.3818 18.7017 25.8689C18.7017 25.3559 19.1189 24.9385 19.632 24.9385C20.145 24.9385 20.5623 25.3559 20.5623 25.8689C20.5623 26.3818 20.1449 26.799 19.632 26.799Z" fill="#00A5BF"/>
</svg>
