<svg width="19" height="19" viewBox="0 0 19 19" fill="none" xmlns="http://www.w3.org/2000/svg">
<g clip-path="url(#clip0_406_14994)">
<path d="M16.5 3H2.5C1.96957 3 1.46086 3.21071 1.08579 3.58579C0.710714 3.96086 0.5 4.46957 0.5 5L0.5 7.25H18.5V5C18.5 4.46957 18.2893 3.96086 17.9142 3.58579C17.5391 3.21071 17.0304 3 16.5 3Z" fill="#141414"/>
<path d="M0.5 14C0.5 14.5304 0.710714 15.0391 1.08579 15.4142C1.46086 15.7893 1.96957 16 2.5 16H16.5C17.0304 16 17.5391 15.7893 17.9142 15.4142C18.2893 15.0391 18.5 14.5304 18.5 14V11.75H0.5V14Z" fill="#007A3D"/>
<path d="M0.5 7.25H18.5V11.75H0.5V7.25Z" fill="#EEEEEE"/>
<path d="M1.1755 3.50195C0.963235 3.68956 0.793248 3.92012 0.676795 4.17837C0.560342 4.43662 0.50008 4.71666 0.5 4.99995L0.5 14C0.5 14.5965 0.761 15.132 1.1755 15.4985L9.25 9.49995L1.1755 3.50195Z" fill="#CE1126"/>
</g>
<defs>
<clipPath id="clip0_406_14994">
<rect width="18" height="18" fill="white" transform="translate(0.5 0.5)"/>
</clipPath>
</defs>
</svg>
