<svg width="49" height="48" viewBox="0 0 49 48" fill="none" xmlns="http://www.w3.org/2000/svg">
<path d="M21.3999 42C30.9268 42 38.6499 34.2769 38.6499 24.75C38.6499 15.2231 30.9268 7.5 21.3999 7.5C11.873 7.5 4.1499 15.2231 4.1499 24.75C4.1499 34.2769 11.873 42 21.3999 42Z" fill="#FF4A64"/>
<path d="M21.3999 35.25C27.1989 35.25 31.8999 30.549 31.8999 24.75C31.8999 18.951 27.1989 14.25 21.3999 14.25C15.6009 14.25 10.8999 18.951 10.8999 24.75C10.8999 30.549 15.6009 35.25 21.3999 35.25Z" fill="white"/>
<path d="M21.3999 28.5C23.471 28.5 25.1499 26.8211 25.1499 24.75C25.1499 22.6789 23.471 21 21.3999 21C19.3288 21 17.6499 22.6789 17.6499 24.75C17.6499 26.8211 19.3288 28.5 21.3999 28.5Z" fill="#FF4A64"/>
<path fill-rule="evenodd" clip-rule="evenodd" d="M43.8452 20.3317C44.1519 19.872 44.1804 19.2802 43.9194 18.792C43.6584 18.3045 43.1507 18 42.5972 18C40.7297 18 38.4047 18 37.2024 18C36.7014 18 36.2327 18.2505 35.9544 18.6683C34.8182 20.3723 31.8999 24.75 31.8999 24.75H40.8999C40.8999 24.75 42.5447 22.2832 43.8452 20.3317ZM43.8452 29.1682C44.1519 29.628 44.1804 30.2198 43.9194 30.708C43.6584 31.1955 43.1507 31.5 42.5972 31.5C40.7297 31.5 38.4047 31.5 37.2024 31.5C36.7014 31.5 36.2327 31.2495 35.9544 30.8318C34.8182 29.1278 31.8999 24.75 31.8999 24.75H40.8999C40.8999 24.75 42.5447 27.2167 43.8452 29.1682Z" fill="#339EEF"/>
<path fill-rule="evenodd" clip-rule="evenodd" d="M36.5874 31.206C34.0719 37.1078 28.2159 41.25 21.3999 41.25C12.2934 41.25 4.8999 33.8565 4.8999 24.75C4.8999 15.6435 12.2934 8.25 21.3999 8.25C28.2159 8.25 34.0719 12.3923 36.5874 18.294C36.7494 18.675 37.1904 18.852 37.5714 18.69C37.9517 18.528 38.1294 18.087 37.9674 17.706C35.2239 11.268 28.8354 6.75 21.3999 6.75C11.4654 6.75 3.3999 14.8155 3.3999 24.75C3.3999 34.6845 11.4654 42.75 21.3999 42.75C28.8354 42.75 35.2239 38.232 37.9674 31.794C38.1294 31.413 37.9517 30.972 37.5714 30.81C37.1904 30.648 36.7494 30.825 36.5874 31.206Z" fill="#3B2E5E"/>
<path fill-rule="evenodd" clip-rule="evenodd" d="M21.3999 13.5C15.1907 13.5 10.1499 18.5407 10.1499 24.75C10.1499 30.9592 15.1907 36 21.3999 36C27.6092 36 32.6499 30.9592 32.6499 24.75C32.6499 18.5407 27.6092 13.5 21.3999 13.5ZM21.3999 15C26.7812 15 31.1499 19.3687 31.1499 24.75C31.1499 30.1313 26.7812 34.5 21.3999 34.5C16.0187 34.5 11.6499 30.1313 11.6499 24.75C11.6499 19.3687 16.0187 15 21.3999 15Z" fill="#3B2E5E"/>
<path fill-rule="evenodd" clip-rule="evenodd" d="M21.3999 20.25C18.9167 20.25 16.8999 22.2667 16.8999 24.75C16.8999 27.2332 18.9167 29.25 21.3999 29.25C23.8832 29.25 25.8999 27.2332 25.8999 24.75C25.8999 22.2667 23.8832 20.25 21.3999 20.25ZM21.3999 21.75C23.0559 21.75 24.3999 23.094 24.3999 24.75C24.3999 26.406 23.0559 27.75 21.3999 27.75C19.7439 27.75 18.3999 26.406 18.3999 24.75C18.3999 23.094 19.7439 21.75 21.3999 21.75ZM44.4692 20.748C44.9297 20.058 44.9724 19.17 44.5809 18.438C44.1894 17.7067 43.4267 17.25 42.5972 17.25C40.7297 17.25 38.4047 17.25 37.2024 17.25C36.4502 17.25 35.7482 17.6258 35.3304 18.252C34.1942 19.9568 31.2759 24.3337 31.2759 24.3337C31.1222 24.564 31.1079 24.8602 31.2384 25.104C31.3689 25.3477 31.6232 25.5 31.8999 25.5H40.8999C41.1504 25.5 41.3852 25.3748 41.5239 25.1663L44.4692 20.748ZM43.2212 19.9163C43.3749 19.686 43.3892 19.3898 43.2587 19.146C43.1282 18.9022 42.8739 18.75 42.5972 18.75C40.7297 18.75 38.4047 18.75 37.2024 18.75C36.9519 18.75 36.7179 18.8752 36.5784 19.0837L33.3017 24H40.4987L43.2212 19.9163Z" fill="#3B2E5E"/>
<path fill-rule="evenodd" clip-rule="evenodd" d="M44.4694 28.752L41.5241 24.3337C41.3854 24.1252 41.1506 24 40.9001 24H31.9001C31.6234 24 31.3691 24.1522 31.2386 24.396C31.1081 24.6397 31.1224 24.936 31.2761 25.1663C31.2761 25.1663 34.1944 29.5433 35.3306 31.248C35.7484 31.8743 36.4504 32.25 37.2026 32.25C38.4049 32.25 40.7299 32.25 42.5974 32.25C43.4269 32.25 44.1896 31.7933 44.5811 31.062C44.9726 30.33 44.9299 29.442 44.4694 28.752ZM40.4989 25.5H33.3019L36.5786 30.4163C36.7181 30.6248 36.9521 30.75 37.2026 30.75C38.4049 30.75 40.7299 30.75 42.5974 30.75C42.8741 30.75 43.1284 30.5978 43.2589 30.354C43.3894 30.1102 43.3751 29.814 43.2214 29.5837L40.4989 25.5Z" fill="#3B2E5E"/>
<path fill-rule="evenodd" clip-rule="evenodd" d="M21.3999 25.5H40.8999C41.3139 25.5 41.6499 25.164 41.6499 24.75C41.6499 24.336 41.3139 24 40.8999 24H21.3999C20.9859 24 20.6499 24.336 20.6499 24.75C20.6499 25.164 20.9859 25.5 21.3999 25.5Z" fill="#3B2E5E"/>
</svg>
