<svg width="49" height="48" viewBox="0 0 49 48" fill="none" xmlns="http://www.w3.org/2000/svg">
<path d="M32.641 31.826L39.6583 28.5904C40.8723 28.0026 42.2831 28.8869 42.2831 30.2358C42.2831 30.8963 41.9269 31.5054 41.3512 31.8292C41.3512 31.8292 30.5554 39.6104 25.7493 39.8802C22.6287 40.0553 14.2354 35.0089 14.2354 35.0089V26.0102C14.2354 26.0102 16.9339 25.9345 20.1094 26.0102C22.4032 26.065 24.8844 27.227 26.7928 28.9482L31.0701 28.947C32.1019 28.9469 32.9385 29.7834 32.9385 30.8152C32.9385 31.8469 32.102 32.6834 31.0703 32.6834H22.8064" fill="#FFC69F"/>
<path d="M32.9386 30.8154C32.9445 31.2827 32.7677 31.751 32.4491 32.0984C32.1321 32.4468 31.6788 32.6685 31.2065 32.7037C31.0878 32.7129 30.9714 32.7123 30.8549 32.713L30.5049 32.7141L29.8051 32.7156L28.4054 32.7188L25.606 32.7108L24.2063 32.7009L22.8066 32.6838L24.2063 32.6665L25.606 32.6567L28.4054 32.6486C29.3376 32.6485 30.2737 32.6577 31.2027 32.6501C31.6621 32.6224 32.1075 32.4125 32.4241 32.0752C32.7451 31.7418 32.933 31.2828 32.9386 30.8154Z" fill="#F7B69A"/>
<path d="M38.5646 14.8354C37.7057 19.5389 32.5374 23.1259 30.6025 24.3132C30.1528 24.591 29.582 24.591 29.1323 24.3132C27.1973 23.1259 22.029 19.5389 21.1702 14.8354C20.5639 11.5314 22.8525 8.25754 26.2172 8.12122C27.6015 8.06563 28.8747 8.52538 29.8648 9.33875C30.85 8.52538 32.1332 8.06563 33.5175 8.12122C36.8823 8.25763 39.1708 11.5314 38.5646 14.8354Z" fill="#FF5859"/>
<path d="M29.5235 21.3422C28.9622 21.3326 28.4647 20.9825 28.2717 20.4708L27.1427 17.3997L27.0057 17.6755C26.7812 18.1343 26.3206 18.4221 25.8057 18.4221H20.8719C20.1316 18.4221 19.5293 17.8199 19.5293 17.0795C19.5293 16.3414 20.1315 15.7409 20.8719 15.7409H24.975L26.1271 13.4172C26.3481 12.9663 26.8193 12.6728 27.3261 12.6728C27.3506 12.6728 27.375 12.6735 27.3993 12.6748C27.936 12.7044 28.4019 13.0489 28.5861 13.5527L29.5709 16.2275L31.1721 12.1487C31.3768 11.6316 31.874 11.2988 32.4394 11.2988L32.4669 11.2994C33.041 11.3189 33.5384 11.7002 33.7046 12.2481L34.7656 15.7409H38.7053C39.4455 15.7409 40.0479 16.3414 40.0479 17.0795C40.0479 17.8198 39.4456 18.4221 38.7053 18.4221H33.7717C33.1803 18.4221 32.6647 18.041 32.4887 17.474L32.2577 16.7149L30.7753 20.4923C30.585 20.9968 30.082 21.3422 29.5273 21.3422H29.5235Z" fill="#EDEDED"/>
<path d="M15.8678 26.1956V35.6872C15.8678 36.8964 14.8917 37.8725 13.6825 37.8725H9.50123C8.29926 37.8725 7.31592 36.8964 7.31592 35.6872V26.1956C7.31592 24.9937 8.29926 24.0103 9.50123 24.0103H13.6825C14.8917 24.0103 15.8678 24.9937 15.8678 26.1956Z" fill="#5EDB6B"/>
<path d="M14.2365 35.3374C14.2365 35.9785 13.7266 36.4884 13.0855 36.4884C12.4518 36.4884 11.9346 35.9785 11.9346 35.3374C11.9346 34.7036 12.4518 34.1865 13.0855 34.1865C13.7266 34.1864 14.2365 34.7036 14.2365 35.3374Z" fill="#EDEDED"/>
<path d="M20.8717 18.7773H22.495C24.4286 21.6118 27.4245 23.6823 28.9455 24.6156C29.2255 24.7887 29.5468 24.8752 29.8676 24.8752C30.1884 24.8752 30.509 24.7889 30.7883 24.6162C32.3097 23.6826 35.3011 21.6105 37.2347 18.7773H38.7054C39.6416 18.7773 40.4032 18.0157 40.4032 17.0795C40.4032 16.1801 39.6962 15.4441 38.8076 15.3909C38.8476 15.2284 38.8838 15.0648 38.914 14.8995C39.2415 13.114 38.7873 11.2864 37.6672 9.88533C35.6265 7.33242 32.1592 7.18233 29.8644 8.88792C27.5435 7.16854 24.0947 7.34976 22.0678 9.88523C20.9478 11.2863 20.4933 13.114 20.8207 14.8995C20.8507 15.063 20.8863 15.225 20.9257 15.3857H20.8717C19.9355 15.3857 19.1738 16.1456 19.1738 17.0795C19.1738 18.0157 19.9355 18.7773 20.8717 18.7773ZM30.4161 24.0111C30.0831 24.217 29.6527 24.2172 29.3182 24.0106C28.2083 23.3296 25.3426 21.4175 23.3825 18.7773H25.8055C26.2979 18.7773 26.7505 18.5704 27.0651 18.2186L27.9393 20.5961C28.183 21.2429 28.8173 21.6854 29.5173 21.6975C29.5192 21.6975 29.5252 21.6975 29.5272 21.6975C30.2287 21.6975 30.8638 21.2636 31.1059 20.6221L32.2232 17.775C32.4952 18.3823 33.0939 18.7774 33.7716 18.7774H36.351C34.3909 21.4169 31.5263 23.3298 30.4161 24.0111ZM21.5198 14.7716C21.2293 13.1883 21.6315 11.5691 22.6229 10.3289C24.4583 8.0332 27.6161 7.95098 29.6393 9.61336C29.7702 9.72117 29.9597 9.72098 30.091 9.6128C32.0944 7.95848 35.2673 8.0213 37.1122 10.329C38.1037 11.5693 38.5056 13.1884 38.2151 14.7714V14.7718C38.1773 14.979 38.127 15.183 38.0714 15.3857H35.029L34.0445 12.1452C33.8343 11.4517 33.2051 10.9692 32.4729 10.9441L32.4394 10.9437C31.7272 10.9437 31.1001 11.3654 30.8412 12.0189L29.5814 15.2282L28.9195 13.4307C28.6864 12.7936 28.0973 12.3577 27.4192 12.3203C26.7465 12.284 26.1026 12.66 25.8086 13.2595L24.7545 15.3857H21.6634C21.6078 15.183 21.5576 14.9789 21.5198 14.7716ZM20.8717 16.0963H24.975C25.1101 16.0963 25.2334 16.0197 25.2933 15.8987L26.4459 13.5737C26.6164 13.2265 26.9768 13.0058 27.3796 13.0296C27.7744 13.0515 28.1171 13.3047 28.2529 13.6755L29.2376 16.3503C29.2885 16.4887 29.4196 16.5812 29.5672 16.5829C29.7205 16.576 29.8477 16.4946 29.9016 16.3575L31.5022 12.2797C31.6526 11.8998 32.0205 11.6543 32.4334 11.6543L32.4548 11.6545C32.8769 11.6689 33.2425 11.9489 33.3645 12.3515L34.4256 15.8443C34.4711 15.9939 34.6092 16.0963 34.7655 16.0963H38.7053C39.2497 16.0963 39.6926 16.5373 39.6926 17.0795C39.6926 17.6239 39.2497 18.0668 38.7053 18.0668H33.7715C33.3367 18.0668 32.9573 17.7863 32.8283 17.3706L32.5973 16.6113C32.5533 16.4667 32.4226 16.3657 32.2714 16.3597C32.1187 16.3557 31.9823 16.4443 31.9268 16.585L30.4427 20.3669C30.3028 20.7377 29.9348 20.9869 29.527 20.9869H29.5264C29.1161 20.9789 28.7456 20.7213 28.605 20.3481L27.4759 17.2771C27.4268 17.1439 27.3034 17.0527 27.1615 17.045C27.0181 17.0338 26.8872 17.1148 26.8241 17.2417L26.6863 17.5194C26.5212 17.8571 26.1835 18.0668 25.8053 18.0668H20.8715C20.3271 18.0668 19.8842 17.6239 19.8842 17.0795C19.8844 16.5373 20.3272 16.0963 20.8717 16.0963ZM9.50137 38.2276H13.6826C14.8061 38.2276 15.76 37.4939 16.0944 36.4809C18.7428 37.9399 23.2836 40.24 25.5925 40.2397C25.6529 40.2397 25.7121 40.2381 25.7694 40.2348C30.5767 39.965 40.9144 32.5812 41.5437 32.1285C42.2195 31.7399 42.6386 31.0166 42.6386 30.2359C42.6386 29.4793 42.2558 28.7877 41.6148 28.3859C40.9739 27.9842 40.1853 27.941 39.5099 28.2679L33.2696 31.1451C33.2858 31.0376 33.2942 30.9273 33.2942 30.8153C33.2942 30.2214 33.0629 29.6631 32.6429 29.2431C32.2229 28.8231 31.6643 28.5918 31.0704 28.5919L26.9285 28.593C24.9027 26.8048 22.3663 25.7088 20.1183 25.6551C18.6173 25.6193 17.2166 25.6175 16.1566 25.6256C15.8969 24.4986 14.8875 23.6549 13.6828 23.6549H9.50156C8.10075 23.6549 6.96094 24.7946 6.96094 26.1954V35.687C6.96084 37.0879 8.10056 38.2276 9.50137 38.2276ZM20.101 26.3654C22.2225 26.4161 24.6353 27.4803 26.5551 29.2122C26.6205 29.271 26.7052 29.3037 26.7931 29.3037L31.0703 29.3025C31.4746 29.3025 31.8546 29.4599 32.1405 29.7457C32.4262 30.0315 32.5837 30.4114 32.5837 30.8156C32.5837 31.1132 32.4971 31.3912 32.3483 31.6255C32.3446 31.6307 32.3411 31.636 32.3378 31.6413C32.0675 32.0548 31.6005 32.3284 31.0707 32.3284H22.8069C22.6108 32.3284 22.4517 32.4874 22.4517 32.6836C22.4517 32.8799 22.6108 33.0389 22.8069 33.0389H31.0707C31.8152 33.0389 32.4753 32.6712 32.8791 32.1077L39.8135 28.9103C40.273 28.688 40.8054 28.717 41.2376 28.9879C41.6701 29.259 41.9282 29.7255 41.9282 30.236C41.9282 30.7674 41.6405 31.2592 41.1774 31.5196C41.1659 31.5262 41.1548 31.5334 41.1439 31.5411C41.0368 31.6183 30.3773 39.2647 25.7297 39.5256C23.6091 39.6425 18.8378 37.1866 16.2208 35.7359C16.2212 35.7194 16.2233 35.7035 16.2233 35.6871V26.3356C17.2693 26.3281 18.6372 26.3307 20.101 26.3654ZM7.67128 26.1954C7.67128 25.1864 8.49234 24.3653 9.50137 24.3653H13.6826C14.6917 24.3653 15.5127 25.1864 15.5127 26.1954V35.687C15.5127 36.696 14.6917 37.5171 13.6826 37.5171H9.50137C8.49234 37.5171 7.67128 36.696 7.67128 35.687V26.1954Z" fill="#332E8E"/>
<path d="M13.0852 36.8433C13.9157 36.8433 14.5915 36.1677 14.5915 35.3371C14.5915 34.5067 13.9157 33.8311 13.0852 33.8311C12.2547 33.8311 11.5791 34.5067 11.5791 35.3371C11.5791 36.1677 12.2547 36.8433 13.0852 36.8433ZM13.0852 34.5416C13.5239 34.5416 13.881 34.8984 13.881 35.3371C13.881 35.7834 13.5315 36.1329 13.0852 36.1329C12.6464 36.1329 12.2896 35.7759 12.2896 35.3371C12.2896 34.8984 12.6464 34.5416 13.0852 34.5416Z" fill="#332E8E"/>
</svg>
