<svg width="49" height="48" viewBox="0 0 49 48" fill="none" xmlns="http://www.w3.org/2000/svg">
<path d="M2.44971 24.75H45.9497V45.75H2.44971V24.75Z" fill="#4A80AA"/>
<path d="M24.1997 2.25L2.44971 24.75H45.9497L24.1997 2.25Z" fill="#63A1F2"/>
<path d="M45.1876 13.9057C42.5078 21.3749 31.4213 21.1852 31.4213 21.1852C31.4213 21.1852 22.8833 13.8877 25.4213 6.81519C25.8322 5.65267 26.6075 4.65393 27.6319 3.96771C28.6563 3.28148 29.8749 2.94446 31.1063 3.00684C32.3377 3.06922 33.516 3.52766 34.4658 4.31389C35.4156 5.10013 36.0861 6.1721 36.3773 7.37019C37.3637 6.6303 38.5627 6.2288 39.7958 6.22549C41.0288 6.22218 42.2299 6.61723 43.2203 7.35182C44.2106 8.0864 44.9372 9.12122 45.2919 10.3022C45.6465 11.4831 45.6094 12.747 45.1876 13.9057ZM27.9638 22.7384C30.4036 30.2894 21.5078 36.9134 21.5078 36.9134C21.5078 36.9134 10.2908 36.3449 7.98084 29.1952C7.59495 28.0231 7.59829 26.7576 7.99036 25.5876C8.38242 24.4175 9.14221 23.4055 10.1564 22.7025C11.1706 21.9996 12.3848 21.6433 13.6181 21.6868C14.8513 21.7303 16.0375 22.1712 16.9996 22.9439C17.3289 21.7558 18.0332 20.7058 19.0076 19.9503C19.9819 19.1947 21.1742 18.7741 22.407 18.751C23.6397 18.7279 24.8469 19.1036 25.8489 19.8221C26.8508 20.5406 27.594 21.5635 27.9676 22.7384H27.9638Z" fill="#F28DBC"/>
<path d="M2.44971 45.75V24.75L24.1997 37.5L45.9497 24.75V45.75H2.44971Z" fill="#365E7D"/>
<path d="M24.1997 32.25L2.44971 45.75H45.9497L24.1997 32.25Z" fill="#4A80AA"/>
<path d="M2.44971 45H45.9497V46.5H2.44971V45Z" fill="black"/>
<path d="M46.4897 24.2325L41.6897 19.26C43.6306 18.089 45.1126 16.2894 45.8897 14.16C46.3354 12.9316 46.399 11.597 46.0719 10.3318C45.7449 9.06651 45.0426 7.92987 44.0574 7.07128C43.0722 6.21268 41.8502 5.67234 40.5522 5.5213C39.2541 5.37026 37.9407 5.6156 36.7847 6.22504C36.396 5.29114 35.7931 4.46175 35.0247 3.80387C34.2563 3.14598 33.344 2.67805 32.3613 2.43787C31.3787 2.19768 30.3534 2.19199 29.3681 2.42123C28.3829 2.65048 27.4654 3.10824 26.6897 3.75754L24.7397 1.73254C24.6703 1.6591 24.5865 1.60059 24.4937 1.56061C24.4008 1.52062 24.3008 1.5 24.1997 1.5C24.0986 1.5 23.9986 1.52062 23.9057 1.56061C23.8129 1.60059 23.7292 1.6591 23.6597 1.73254L1.90972 24.2325C1.77408 24.3705 1.69858 24.5566 1.69972 24.75V45.75C1.69972 45.949 1.77874 46.1397 1.91939 46.2804C2.06004 46.421 2.25081 46.5 2.44972 46.5H45.9497C46.1486 46.5 46.3394 46.421 46.48 46.2804C46.6207 46.1397 46.6997 45.949 46.6997 45.75V24.75C46.7009 24.5566 46.6254 24.3705 46.4897 24.2325ZM26.1272 7.07254C26.4819 6.0611 27.1541 5.19145 28.0435 4.59338C28.933 3.99531 29.9919 3.70087 31.0624 3.75402C32.1329 3.80716 33.1576 4.20504 33.9834 4.88827C34.8092 5.5715 35.392 6.50345 35.6447 7.54504C35.6735 7.66584 35.7319 7.77758 35.8145 7.87025C35.8972 7.96293 36.0016 8.03362 36.1183 8.076C36.235 8.11838 36.3605 8.13111 36.4833 8.11305C36.6062 8.095 36.7226 8.04672 36.8222 7.97254C37.481 7.47874 38.2519 7.15588 39.066 7.03286C39.8801 6.90983 40.7119 6.99046 41.4872 7.26754C42.1033 7.48614 42.6694 7.82566 43.1524 8.26614C43.6354 8.70662 44.0255 9.23918 44.2997 9.83254C44.5807 10.4253 44.7413 11.068 44.7722 11.7233C44.8031 12.3785 44.7037 13.0334 44.4797 13.65C42.2372 19.8975 33.3797 20.3925 31.7072 20.43C30.4622 19.29 24.0047 12.9825 26.1272 7.07254ZM24.1997 3.33004L25.6472 4.83004C25.2528 5.35808 24.9393 5.94201 24.7172 6.56254C22.0322 14.0325 30.5672 21.4425 30.9347 21.7575C31.0681 21.868 31.2342 21.9313 31.4072 21.9375H31.5347C34.5685 21.9137 37.5643 21.2599 40.3322 20.0175L44.1797 24H29.0222C28.9474 23.4941 28.832 22.995 28.6772 22.5075C28.2794 21.2623 27.5141 20.1666 26.4819 19.3645C25.4497 18.5623 24.1989 18.0914 22.894 18.0135C21.5891 17.9356 20.2912 18.2544 19.1709 18.928C18.0506 19.6016 17.1603 20.5985 16.6172 21.7875C15.1648 20.9549 13.4453 20.7202 11.8228 21.1332C10.2004 21.5461 8.80235 22.5743 7.92472 24H4.21972L24.1997 3.33004ZM29.1272 25.5H43.1897L28.5572 34.0725L26.4797 32.7825C28.0906 30.6853 29.0152 28.1421 29.1272 25.5ZM25.2047 31.9875L24.5972 31.6125C24.4777 31.539 24.3401 31.5 24.1997 31.5C24.0594 31.5 23.9217 31.539 23.8022 31.6125L19.8422 34.0725L8.46472 27.405C8.46047 26.4693 8.72153 25.5516 9.21762 24.7582C9.71372 23.9648 10.4245 23.3283 11.2677 22.9224C12.1108 22.5166 13.0517 22.358 13.9812 22.4651C14.9108 22.5722 15.791 22.9406 16.5197 23.5275C16.618 23.6046 16.7336 23.6564 16.8564 23.6786C16.9793 23.7009 17.1057 23.6928 17.2247 23.655C17.3414 23.6161 17.4467 23.5493 17.5317 23.4605C17.6166 23.3716 17.6786 23.2633 17.7122 23.145C17.9332 22.3513 18.3476 21.6248 18.9183 21.0306C19.4889 20.4363 20.1981 19.9929 20.9822 19.74C21.6012 19.5381 22.2542 19.4613 22.9031 19.5141C23.552 19.5669 24.184 19.7482 24.7622 20.0475C25.3508 20.3451 25.8742 20.7571 26.3017 21.2593C26.7293 21.7615 27.0524 22.344 27.2522 22.9725C28.3622 26.4225 26.8472 29.6925 25.2047 31.9875ZM7.24222 25.5C7.13822 25.8462 7.0605 26.1997 7.00972 26.5575L5.20972 25.5H7.24222ZM3.19972 26.0625L18.3947 34.965L3.19972 44.4V26.0625ZM5.08222 45L24.1997 33.135L43.3172 45H5.08222ZM45.1997 44.4L30.0047 34.965L45.1997 26.0625V44.4Z" fill="black"/>
</svg>
