<svg width="48" height="48" viewBox="0 0 48 48" fill="none" xmlns="http://www.w3.org/2000/svg">
<g clip-path="url(#clip0_171_1030)">
<mask id="mask0_171_1030" style="mask-type:luminance" maskUnits="userSpaceOnUse" x="0" y="0" width="48" height="48">
<path d="M0 0H48V48H0V0Z" fill="white"/>
</mask>
<g mask="url(#mask0_171_1030)">
<path d="M46.5914 16.2115C46.5914 9.3273 41.0107 3.74667 34.1278 3.74667C29.9493 3.74667 26.2621 5.80941 23.9998 8.96225C21.7387 5.80941 18.0503 3.74667 13.873 3.74667C6.98883 3.74667 1.4082 9.3273 1.4082 16.2115C1.4082 17.1867 1.53199 18.1315 1.7442 19.0423C3.47599 29.7943 15.4305 41.1399 23.9998 44.2549C32.5678 41.1399 44.5248 29.7943 46.2528 19.0423C46.4676 18.1315 46.5914 17.1867 46.5914 16.2115Z" fill="#E75A70"/>
<path d="M46.7369 20.2107C45.4737 26.5264 41.6842 30.3159 41.6842 30.3159H6.31582C6.31582 30.3159 2.52634 26.5264 1.26318 20.2107H46.7369Z" fill="#FDD888"/>
<path d="M18.9475 24V46.7368L12.6317 40.421L6.31592 46.7368V24H18.9475Z" fill="#FDD888"/>
<path d="M22.4868 12.8765L12.5343 19.8428L2.58318 12.8765C1.8556 12.3687 1.26318 12.6769 1.26318 13.5636V32.0803C1.26318 32.9683 1.8695 33.298 2.6135 32.8154L12.5343 26.3657L22.4564 32.8154C23.1979 33.298 23.8055 32.9683 23.8055 32.0803V13.5636C23.8055 12.6769 23.2118 12.3687 22.4868 12.8765Z" fill="#FDCB58"/>
<path d="M17.6844 22.7369C17.6844 24.077 17.152 25.3621 16.2045 26.3097C15.2569 27.2572 13.9718 27.7896 12.6317 27.7896C11.2917 27.7896 10.0065 27.2572 9.05898 26.3097C8.11143 25.3621 7.5791 24.077 7.5791 22.7369C7.5791 21.3969 8.11143 20.1117 9.05898 19.1642C10.0065 18.2166 11.2917 17.6843 12.6317 17.6843C13.9718 17.6843 15.2569 18.2166 16.2045 19.1642C17.152 20.1117 17.6844 21.3969 17.6844 22.7369Z" fill="#FDD888"/>
</g>
</g>
<defs>
<clipPath id="clip0_171_1030">
<rect width="48" height="48" fill="white"/>
</clipPath>
</defs>
</svg>
