<svg width="59" height="63" viewBox="0 0 59 63" fill="none" xmlns="http://www.w3.org/2000/svg">
<path d="M24.2499 61.8797V49.53C24.2499 47.3246 23.1649 45.2605 21.3449 44.0432L18.9999 42.473L16.2174 39.6678C14.8524 38.2917 12.6299 38.2917 11.2649 39.6678L10.2324 40.7087" stroke="white" stroke-width="2" stroke-linecap="round" stroke-linejoin="round"/>
<path d="M13.75 61.8796V54.8226L1.5 42.4729V26.5947C4.4225 26.5947 6.6625 28.9412 6.75 31.8875V37.1802L15.5 46.0014" stroke="white" stroke-width="2" stroke-linecap="round" stroke-linejoin="round"/>
<path d="M29.5 7.45292C31.3725 3.78329 35.38 1.40156 39.8775 1.96611C45.0225 2.61888 48.75 7.25885 48.75 12.481C48.75 18.109 46.5275 23.5252 42.5725 27.5124L29.5 40.6913L16.4275 27.5124C12.4725 23.5252 10.25 18.1266 10.25 12.481C10.25 6.97657 14.415 2.19546 19.875 1.89554C24.0575 1.66619 27.7325 3.97735 29.5 7.43527V7.45292Z" stroke="white" stroke-width="2" stroke-linecap="round" stroke-linejoin="round"/>
<path d="M29.5 12.4814V26.5954" stroke="white" stroke-width="2" stroke-linecap="round" stroke-linejoin="round"/>
<path d="M36.5 19.5381H22.5" stroke="white" stroke-width="2" stroke-linecap="round" stroke-linejoin="round"/>
<path d="M34.75 61.8797V49.53C34.75 47.3246 35.835 45.2605 37.655 44.0432L40 42.473L42.7825 39.6678C44.1475 38.2917 46.37 38.2917 47.735 39.6678L48.7675 40.7087" stroke="white" stroke-width="2" stroke-linecap="round" stroke-linejoin="round"/>
<path d="M45.25 61.8796V54.8226L57.5 42.4729V26.5947C54.5775 26.5947 52.3375 28.9412 52.25 31.8875V37.1802L43.5 46.0014" stroke="white" stroke-width="2" stroke-linecap="round" stroke-linejoin="round"/>
</svg>
