<svg width="32" height="32" viewBox="0 0 32 32" fill="none" xmlns="http://www.w3.org/2000/svg">
<g clip-path="url(#clip0_154_2029)">
<path d="M31.375 8.5V6.625H21.9924L19.2224 5.08936C19.011 3.86084 18.1125 2.86475 16.9375 2.51245V0H15.0625V2.5127C13.8875 2.86475 12.989 3.86084 12.7776 5.0896L10.0076 6.625H0.625V8.5H5.66016L2.3125 15.2917H0.990723V17.2141C0.990723 20.2983 3.5 22.8079 6.58447 22.8079C9.6687 22.8079 12.178 20.2986 12.178 17.2141V15.2917H10.8579L7.53345 8.5H10.4924L13.0596 7.0769C13.457 7.89038 14.1824 8.51514 15.0625 8.77905V26.125H8.79175V32H23.2083V26.125H16.9375V8.77905C17.8176 8.51514 18.543 7.89038 18.9404 7.0769L21.5076 8.5H24.4915L21.1438 15.2917H19.822V17.2141C19.822 20.2983 22.3313 22.8079 25.4155 22.8079C28.5 22.8079 31.0093 20.2986 31.0093 17.2141V15.2917H29.6892L26.3647 8.5H31.375ZM10.303 17.2141C10.303 19.2646 8.63477 20.9329 6.58447 20.9329C4.53394 20.9329 2.86572 19.2646 2.86572 17.2141V17.1667H10.303V17.2141ZM4.40308 15.2917L6.59424 10.8459L8.77026 15.2917H4.40308ZM21.3333 30.125H10.6667V28H21.3333V30.125ZM16 7.04175C15.2305 7.04175 14.6042 6.41553 14.6042 5.646C14.6042 4.87622 15.2305 4.25 16 4.25C16.7695 4.25 17.3958 4.87622 17.3958 5.64575C17.3958 6.41553 16.7695 7.04175 16 7.04175ZM29.1343 17.2141C29.1343 19.2646 27.4661 20.9329 25.4155 20.9329C23.3652 20.9329 21.697 19.2646 21.697 17.2141V17.1667H29.1343V17.2141ZM23.2341 15.2917L25.4255 10.8459L27.6016 15.2917H23.2341Z" fill="#00A5BF"/>
</g>
<defs>
<clipPath id="clip0_154_2029">
<rect width="32" height="32" fill="white"/>
</clipPath>
</defs>
</svg>
