<svg width="32" height="32" viewBox="0 0 32 32" fill="none" xmlns="http://www.w3.org/2000/svg">
<path d="M2.68098 20.4873C1.9776 21.1907 1.9776 23.547 2.68098 24.2503C3.39629 24.9657 5.93985 24.9887 6.55779 24.1122L13.696 28.2315C13.472 29.2179 13.6115 30.5818 14.1185 31.0888C14.8265 31.7972 17.1736 31.7975 17.8818 31.0888C18.3889 30.5817 18.5283 29.2178 18.3043 28.2312L25.4424 24.112C25.4782 24.1627 25.5157 24.2099 25.5562 24.2503C26.2594 24.9535 28.6157 24.9537 29.3194 24.2503C30.0228 23.5469 30.0228 21.1905 29.3194 20.4872C29.0148 20.1826 28.4 20.0105 27.744 19.9696V11.7983C28.4 11.7575 29.0149 11.5854 29.3194 11.2809C30.0228 10.5775 30.0228 8.22116 29.3194 7.51784C28.6159 6.81434 26.2594 6.81434 25.5562 7.51784C25.4735 7.60053 25.4015 7.70766 25.3382 7.83053L18.3041 3.76853C18.5284 2.78191 18.3889 1.41741 17.8817 0.910281C17.1738 0.201906 14.8267 0.201656 14.1185 0.910281C13.6113 1.41741 13.4719 2.78209 13.6962 3.76853L6.66223 7.83084C6.59898 7.70778 6.52685 7.60053 6.4441 7.51784C5.7406 6.81434 3.38435 6.81466 2.68085 7.51784C1.97748 8.22122 1.97748 10.5776 2.68085 11.2809C2.98548 11.5855 3.60023 11.7575 4.25623 11.7983V19.9698C3.60035 20.0107 2.9856 20.1826 2.68098 20.4873ZM3.1141 23.8172C2.64029 23.3434 2.64029 21.3942 3.1141 20.9203C3.58785 20.4466 5.53729 20.4465 6.0111 20.9203C6.47648 21.3857 6.48073 23.3476 6.0111 23.8172C5.53729 24.291 3.58785 24.291 3.1141 23.8172ZM17.4487 30.6557C16.981 31.1234 15.0198 31.1238 14.5517 30.6557C14.0779 30.1819 14.0779 28.2328 14.5517 27.759C15.0194 27.2913 16.9806 27.291 17.4487 27.759C17.6591 27.9695 17.8004 28.5515 17.8004 29.2073C17.8004 29.8632 17.6591 30.4453 17.4487 30.6557ZM28.8862 23.8172C28.4126 24.291 26.4632 24.2913 25.9892 23.8172C25.5154 23.3434 25.5154 21.3942 25.9892 20.9203C26.463 20.4465 28.4125 20.4466 28.8862 20.9203C29.3516 21.3858 29.3559 23.3476 28.8862 23.8172ZM28.8862 7.95091C29.0967 8.16134 29.238 8.74341 29.238 9.39934C29.238 10.0553 29.0967 10.6373 28.8862 10.8478C28.4126 11.3217 26.4632 11.3217 25.9892 10.8478C25.5154 10.374 25.5154 8.42472 25.9892 7.95091C26.463 7.47709 28.4125 7.47716 28.8862 7.95091ZM14.5517 1.34334C15.0194 0.875656 16.9806 0.875281 17.4487 1.34334C17.914 1.80872 17.9183 3.77041 17.4487 4.24003C16.981 4.70772 15.0198 4.70816 14.5517 4.24003C14.0779 3.76628 14.0779 1.81716 14.5517 1.34334ZM13.8995 4.35866C13.963 4.48234 14.0355 4.59003 14.1186 4.67316C14.8188 5.37378 17.5144 5.50284 18.1009 4.35847L25.1344 8.42022C24.9094 9.40697 25.0486 10.7733 25.5562 11.2809C25.8608 11.5855 26.4754 11.7575 27.1314 11.7983V19.9697C26.4754 20.0105 25.8607 20.1826 25.5562 20.4873C25.0125 21.0309 24.891 22.5595 25.1877 23.5517L18.1012 27.6412C18.0377 27.5171 17.965 27.4093 17.8818 27.326C17.1739 26.6176 14.8267 26.6173 14.1185 27.326C14.0352 27.4093 13.9626 27.5171 13.899 27.6412L6.81254 23.5518C7.10929 22.5597 6.98779 21.031 6.4441 20.4873C6.13948 20.1828 5.52485 20.0107 4.86885 19.9699V11.7983C5.52491 11.7575 6.1396 11.5855 6.4441 11.2809C6.9516 10.7733 7.09091 9.40728 6.86598 8.42041L13.8995 4.35866ZM3.1141 7.95091C3.58785 7.47716 5.53729 7.47709 6.0111 7.95091C6.22154 8.16134 6.36285 8.74341 6.36285 9.39934C6.36285 10.0553 6.22154 10.6373 6.0111 10.8478C5.53729 11.3216 3.58791 11.3216 3.1141 10.8478C2.64029 10.374 2.64029 8.42472 3.1141 7.95091Z" fill="#00A5BF"/>
<path d="M6.52431 15.3361C6.52431 15.34 6.52344 15.3436 6.52344 15.3475C6.52344 16.47 7.18937 17.4551 8.19019 17.8831C6.86294 19.7943 8.40925 22.4871 10.7902 22.1924C11.0074 24.7934 14.7048 25.6801 15.9999 23.1635C17.2879 25.6666 20.9913 24.8148 21.2096 22.1924C23.62 22.4763 25.1254 19.7776 23.8097 17.8831C24.8105 17.4551 25.4764 16.47 25.4764 15.3475C25.4764 15.3436 25.4756 15.34 25.4756 15.3361C25.4751 15.2135 25.4641 15.0935 25.448 14.9751C25.3183 14.0048 24.6664 13.1537 23.7283 12.7817C23.7198 12.7784 23.7122 12.7735 23.7036 12.7702C24.471 10.8898 22.9774 8.84534 20.9749 8.97796C20.5366 7.98584 19.551 7.33496 18.4501 7.33496C17.3832 7.33496 16.4578 7.94621 15.9998 8.83621C15.5418 7.94621 14.6164 7.33496 13.5495 7.33496C12.4486 7.33496 11.4631 7.98584 11.0247 8.97796C11.0024 8.97646 10.9805 8.97884 10.9582 8.97796C10.9242 8.97659 10.8906 8.9739 10.8564 8.9739C10.8495 8.9739 10.8437 8.97734 10.8369 8.97777C8.89263 8.98265 7.56412 10.9762 8.29619 12.7701C7.23856 13.1748 6.52881 14.2051 6.52431 15.3361ZM18.4502 7.94752C19.2559 7.94752 19.9822 8.39559 20.3494 9.09115C19.6419 9.30534 19.0591 9.80046 18.7166 10.4428C18.7081 10.4427 18.7002 10.4403 18.6917 10.4403C18.0634 10.4403 17.5522 10.9515 17.5522 11.5797C17.5522 12.208 18.0634 12.719 18.6917 12.719C19.3199 12.719 19.831 12.208 19.831 11.5797C19.831 11.1808 19.6242 10.8305 19.3129 10.6268C20.1199 9.29359 22.0236 9.22334 22.9131 10.522C23.3445 11.152 23.4066 11.9363 23.0977 12.6165C22.9725 12.599 22.8458 12.5868 22.7159 12.5868C22.5468 12.5868 22.4096 12.724 22.4096 12.8931C22.4096 13.0623 22.5467 13.1995 22.7159 13.1995C23.8744 13.1995 24.8586 14.1447 24.8632 15.339C24.8632 15.3418 24.8636 15.3445 24.8636 15.3473L24.8639 15.3484C24.8634 16.3373 24.1983 17.1868 23.2439 17.4272H20.6983C20.2945 17.4272 19.9661 17.0986 19.9661 16.6948V16.2592C20.4454 16.1248 20.7999 15.6886 20.7999 15.1669C20.7999 14.5386 20.2889 14.0275 19.6606 14.0275C19.0323 14.0275 18.5211 14.5386 18.5211 15.1669C18.5211 15.6881 18.875 16.1239 19.3536 16.2588V16.6949C19.3536 17.4244 19.9683 18.0398 20.6984 18.0398H23.1532C23.8967 18.8803 23.7516 19.8985 23.3859 20.5315C22.5096 22.0481 20.4301 21.8883 19.6579 20.477C19.9283 20.2685 20.1059 19.9448 20.1059 19.5777C20.1059 18.9495 19.5947 18.4383 18.9664 18.4383C18.3382 18.4383 17.8271 18.9495 17.8271 19.5777C17.8271 20.206 18.3381 20.717 18.9664 20.717C19.0073 20.717 19.0459 20.7093 19.0856 20.7049C19.4026 21.324 19.9444 21.8089 20.6044 22.0475C20.585 23.0014 19.6842 24.0522 18.4504 24.0522C17.2681 24.0522 16.3064 23.0891 16.3064 21.9052V10.0946C16.3062 8.91077 17.268 7.94752 18.4502 7.94752ZM18.6917 11.0528C18.9822 11.0528 19.2185 11.2891 19.2185 11.5797C19.2185 11.8701 18.9822 12.1065 18.6917 12.1065C18.4012 12.1065 18.1649 11.8701 18.1649 11.5797C18.1649 11.2891 18.4012 11.0528 18.6917 11.0528ZM19.6606 15.6935C19.37 15.6935 19.1337 15.4572 19.1337 15.1668C19.1337 14.8762 19.37 14.6399 19.6606 14.6399C19.951 14.6399 20.1873 14.8762 20.1873 15.1668C20.1873 15.4572 19.951 15.6935 19.6606 15.6935ZM18.4396 19.5776C18.4396 19.287 18.6759 19.0507 18.9664 19.0507C19.2569 19.0507 19.4932 19.287 19.4932 19.5776C19.4932 19.868 19.2569 20.1043 18.9664 20.1043C18.6759 20.1043 18.4396 19.868 18.4396 19.5776ZM10.854 9.58602L10.8564 9.58646C11.6337 9.58646 12.3125 10.0045 12.6886 10.6258C12.3766 10.8294 12.1689 11.1801 12.1689 11.5797C12.1689 12.208 12.6799 12.719 13.3083 12.719C13.9365 12.719 14.4477 12.208 14.4477 11.5797C14.4477 10.9515 13.9365 10.4403 13.3083 10.4403C13.3013 10.4403 13.2949 10.4422 13.2881 10.4423C12.9458 9.79884 12.3584 9.30615 11.6499 9.09215C12.0169 8.39596 12.7434 7.94746 13.5496 7.94746C14.7319 7.94746 15.6936 8.91071 15.6936 10.0946V21.905C15.6936 23.0889 14.7319 24.052 13.5496 24.052C12.3188 24.052 11.4149 23.003 11.3956 22.0465C12.056 21.8081 12.5989 21.324 12.9161 20.705C12.9553 20.7091 12.9934 20.7168 13.0336 20.7168C13.6619 20.7168 14.1729 20.2058 14.1729 19.5775C14.1729 18.9492 13.6619 18.4381 13.0336 18.4381C12.4053 18.4381 11.8942 18.9493 11.8942 19.5775C11.8942 19.9446 12.0716 20.2681 12.342 20.4766C11.5672 21.8932 9.48763 22.0429 8.61413 20.5314C8.24838 19.8983 8.10325 18.8801 8.84675 18.0397H11.3016C12.0431 18.0397 12.6464 17.4364 12.6464 16.6948V16.2586C13.125 16.1238 13.4789 15.688 13.4789 15.1668C13.4789 14.5385 12.9677 14.0273 12.3394 14.0273C11.7112 14.0273 11.2001 14.5385 11.2001 15.1668C11.2001 15.6886 11.5546 16.1246 12.0339 16.2591V16.6947C12.0339 17.0985 11.7054 17.4271 11.3017 17.4271H8.75606C7.80169 17.1868 7.13656 16.3371 7.13613 15.3483L7.13637 15.3472C7.13637 15.3444 7.13681 15.3416 7.13681 15.3388C7.14119 14.1873 8.08106 13.1993 9.28413 13.1993C9.45325 13.1993 9.59044 13.0622 9.59044 12.893C9.59044 12.7238 9.45331 12.5867 9.28413 12.5867C9.15425 12.5867 9.02744 12.5988 8.90231 12.6163C8.25256 11.1858 9.32025 9.58146 10.854 9.58602ZM13.8351 11.5797C13.8351 11.8701 13.5988 12.1065 13.3083 12.1065C13.0178 12.1065 12.7815 11.8701 12.7815 11.5797C12.7815 11.2891 13.0178 11.0528 13.3083 11.0528C13.5988 11.0528 13.8351 11.2891 13.8351 11.5797ZM12.5068 19.5776C12.5068 19.287 12.7431 19.0507 13.0337 19.0507C13.3241 19.0507 13.5604 19.287 13.5604 19.5776C13.5604 19.868 13.3241 20.1043 13.0337 20.1043C12.7431 20.1043 12.5068 19.868 12.5068 19.5776ZM12.3394 15.6935C12.049 15.6935 11.8127 15.4572 11.8127 15.1668C11.8127 14.8762 12.049 14.6399 12.3394 14.6399C12.63 14.6399 12.8663 14.8762 12.8663 15.1668C12.8663 15.4572 12.6301 15.6935 12.3394 15.6935Z" fill="#00A5BF"/>
</svg>
