<svg width="32" height="32" viewBox="0 0 32 32" fill="none" xmlns="http://www.w3.org/2000/svg">
<path d="M28.0002 22.6667H4.00016V6.66667H28.0002M28.0002 4H4.00016C2.5335 4 1.3335 5.2 1.3335 6.66667V22.6667C1.3335 23.3739 1.61445 24.0522 2.11454 24.5523C2.61464 25.0524 3.29292 25.3333 4.00016 25.3333H10.6668V28H21.3335V25.3333H28.0002C29.4802 25.3333 30.6668 24.1467 30.6668 22.6667V6.66667C30.6668 5.95942 30.3859 5.28115 29.8858 4.78105C29.3857 4.28095 28.7074 4 28.0002 4ZM20.0002 8.66667L19.1735 10.4933L17.3335 11.3333L19.1735 12.1733L20.0002 14L20.8402 12.1733L22.6668 11.3333L20.8402 10.4933L20.0002 8.66667ZM14.0002 11.3333L12.5468 14.5467L9.3335 16L12.5468 17.4533L14.0002 20.6667L15.4668 17.4533L18.6668 16L15.4668 14.5467L14.0002 11.3333Z" fill="#00A5BF"/>
</svg>
