<svg width="49" height="48" viewBox="0 0 49 48" fill="none" xmlns="http://www.w3.org/2000/svg">
<g clip-path="url(#clip0_171_1129)">
<path d="M21.0745 15.5531L27.5339 33.3L23.1183 41.1938L16.0308 43.7719L8.1558 40.35L1.69642 22.6125C-0.253579 17.2594 2.51205 11.3438 7.8558 9.39375C13.2089 7.44375 19.1339 10.2 21.0745 15.5531Z" fill="#DB3429"/>
<path d="M27.581 33.2811L8.10909 40.3686C7.38722 40.6311 7.01222 41.4279 7.27472 42.1498L8.88722 46.5842C9.14972 47.3061 9.94659 47.6811 10.6685 47.4186L30.1403 40.3311C30.8622 40.0686 31.2372 39.2717 30.9747 38.5498L29.3622 34.1154C29.1091 33.3936 28.3028 33.0186 27.581 33.2811Z" fill="#9CD3FC"/>
<path d="M26.9667 39.8045L24.9468 34.2544L24.0658 34.575L26.0858 40.1251L26.9667 39.8045Z" fill="#6ABDFB"/>
<path d="M22.478 41.4402L20.458 35.8901L19.577 36.2108L21.597 41.7609L22.478 41.4402Z" fill="#6ABDFB"/>
<path d="M18.0737 43.0423L16.0537 37.4922L15.1727 37.8128L17.1927 43.3629L18.0737 43.0423Z" fill="#6ABDFB"/>
<path d="M13.6684 44.6443L11.6484 39.0942L10.7675 39.4149L12.7874 44.965L13.6684 44.6443Z" fill="#6ABDFB"/>
<path d="M13.9869 30.7312V23.9344C13.9869 22.1344 12.5244 20.6719 10.7244 20.6719C8.92441 20.6719 7.46191 22.1344 7.46191 23.9344V30.7312" fill="#DB3429"/>
<path d="M14.4557 30.7312H13.5182V23.9343C13.5182 22.3874 12.2619 21.1405 10.7244 21.1405C9.18691 21.1405 7.93066 22.3968 7.93066 23.9343V30.7312H6.99316V23.9343C6.99316 21.8718 8.67129 20.203 10.7244 20.203C12.7869 20.203 14.4557 21.8812 14.4557 23.9343V30.7312ZM21.0744 15.553C20.0338 12.6937 17.8682 10.5843 15.2525 9.5249C14.3619 10.5749 13.8838 11.8968 13.8932 13.2843C13.9025 14.8405 14.5213 16.303 15.6369 17.3905L19.0588 20.7374C19.7338 21.403 20.0994 22.303 20.0994 23.2218C19.19 23.5312 18.4119 24.2343 18.065 25.1999L16.4525 29.6343C16.1525 30.4499 16.19 31.3405 16.565 32.128C16.9307 32.9155 17.5869 33.5155 18.4119 33.8155L22.2557 35.2124L27.5432 33.2905L21.0744 15.553Z" fill="#B3271E"/>
<path d="M28.1247 7.28457L25.7903 13.6971L22.4153 10.4346C20.8778 8.94395 18.4309 8.97207 16.9215 10.4814C15.384 12.0189 15.3934 14.5314 16.9497 16.0502L20.3809 19.4064C21.8809 20.8689 22.3778 23.0721 21.6653 25.0408L24.4684 32.3533L33.9184 35.7939L41.0528 32.1002L47.5028 14.3439C49.4528 8.99082 46.6872 3.0752 41.3434 1.1252C35.9903 -0.824802 30.0653 1.93145 28.1247 7.28457Z" fill="#DB3429"/>
<path d="M27.5809 33.2811L22.2559 35.2217L30.9277 38.3811L29.3715 34.1154C29.109 33.3936 28.3027 33.0186 27.5809 33.2811Z" fill="#6ABDFB"/>
<path d="M21.6183 25.0125L41.0901 32.1C41.812 32.3625 42.187 33.1594 41.9245 33.8813L40.312 38.3156C40.0495 39.0375 39.2526 39.4125 38.5308 39.15L19.0495 32.0625C18.3276 31.8 17.9526 31.0031 18.2151 30.2813L19.8276 25.8469C20.0901 25.125 20.8964 24.75 21.6183 25.0125Z" fill="#9CD3FC"/>
<path d="M25.131 26.3065L24.25 25.9858L22.23 31.5359L23.111 31.8566L25.131 26.3065Z" fill="#6ABDFB"/>
<path d="M29.6232 27.9373L28.7422 27.6167L26.7222 33.1668L27.6032 33.4874L29.6232 27.9373Z" fill="#6ABDFB"/>
<path d="M34.0294 29.5408L33.1484 29.2202L31.1285 34.7703L32.0094 35.0909L34.0294 29.5408Z" fill="#6ABDFB"/>
<path d="M38.4357 31.1444L37.5547 30.8237L35.5347 36.3738L36.4157 36.6945L38.4357 31.1444Z" fill="#6ABDFB"/>
</g>
<defs>
<clipPath id="clip0_171_1129">
<rect width="48" height="48" fill="white" transform="translate(0.599609)"/>
</clipPath>
</defs>
</svg>
