<svg width="49" height="48" viewBox="0 0 49 48" fill="none" xmlns="http://www.w3.org/2000/svg">
<path d="M44.5666 18.2191C44.5666 18.6181 44.3158 18.9639 43.9564 19.0703L40.7464 20.0456C39.3672 20.4624 38.3055 21.5795 37.8876 23.0337L36.1739 29.1163C36.0652 29.4887 35.7392 29.7458 35.3714 29.7458C35.0036 29.7458 34.6776 29.4887 34.5689 29.1163L32.8553 23.0337C32.4373 21.5795 31.3757 20.4623 29.9964 20.0456L26.7865 19.0703C26.427 18.9639 26.1763 18.6181 26.1763 18.2191C26.1763 17.8201 26.427 17.4743 26.7865 17.3679L29.9964 16.3926C31.3757 15.9758 32.4373 14.8586 32.8553 13.4045L34.5689 7.32193C34.6776 6.94948 35.0036 6.69238 35.3714 6.69238C35.7392 6.69238 36.0652 6.94948 36.1739 7.32193L37.8876 13.4045C38.3055 14.8587 39.3672 15.9758 40.7464 16.3926L43.9564 17.3679C44.3158 17.4743 44.5666 17.8201 44.5666 18.2191Z" fill="#F0C419"/>
<path d="M45.2673 34.8087C41.3124 42.0173 33.749 46.5 25.5278 46.5C13.1182 46.5 3.02783 36.4096 3.02783 24C3.02783 11.5904 13.1182 1.5 25.5278 1.5C26.1423 1.5 26.7567 1.52599 27.3624 1.57792C27.7346 1.61254 28.0461 1.88078 28.124 2.24423C28.2105 2.60771 28.0547 2.98845 27.7346 3.17884C22.5596 6.35479 19.4702 11.8759 19.4702 17.9423C19.4702 27.4875 27.2326 35.25 36.7778 35.25C39.3567 35.25 41.8317 34.6961 44.1336 33.6144C44.4711 33.4499 44.8778 33.5279 45.1374 33.7961C45.3971 34.0731 45.4404 34.4798 45.2673 34.8087Z" fill="#F0C419"/>
<path d="M29.8548 43.9036C17.4451 43.9036 7.35477 33.8133 7.35477 21.4036C7.35477 14.1209 10.8327 7.64042 16.2124 3.52588C8.44197 7.07424 3.02783 14.9123 3.02783 23.9998C3.02783 36.4094 13.1182 46.4998 25.5278 46.4998C30.561 46.4998 35.343 44.813 39.2061 41.8558C36.3181 43.1765 33.1416 43.9036 29.8548 43.9036Z" fill="#E57E25"/>
</svg>
