<svg width="49" height="48" viewBox="0 0 49 48" fill="none" xmlns="http://www.w3.org/2000/svg">
<path d="M32.9395 41.0774H31.282C31.282 36.4049 20.1895 37.6424 20.1895 37.6424V36.2924C20.1895 36.2924 32.9395 34.3274 32.9395 41.0774Z" fill="#A2FEE7"/>
<path d="M31.282 41.0776H20.1895V38.0626V37.6426L31.282 41.0776Z" fill="#D6FFF7"/>
<path d="M31.282 41.0775L20.1895 37.6425C20.1895 37.6425 31.282 36.405 31.282 41.0775Z" fill="#D6FFF7"/>
<path d="M20.1895 38.0625H14.9395V41.0775H20.1895V38.0625Z" fill="#2A44BD"/>
<path d="M19.3123 10.2001C19.2748 10.2601 19.2448 10.3201 19.2148 10.3876C19.1848 10.4551 19.1623 10.5226 19.1398 10.5976C19.1248 10.6501 19.1098 10.7026 19.0948 10.7626L19.0723 10.8976C19.0573 10.9576 19.0498 11.0251 19.0498 11.0926C19.0348 11.1826 19.0348 11.2801 19.0348 11.3701C18.9523 10.5676 19.2223 10.0651 19.6948 9.76514C19.6498 9.80264 19.6123 9.83264 19.5748 9.87014C19.4698 9.96764 19.3873 10.0726 19.3123 10.2001Z" fill="#FCBB60"/>
<path d="M29.5121 9.65264C29.5046 9.64514 29.4971 9.64514 29.4896 9.63764C29.2346 9.49514 28.9421 9.40514 28.6196 9.36764L28.6721 9.06764C28.9046 8.76764 31.2296 5.84264 34.2596 7.35764C34.2596 7.35764 33.4646 12.1426 30.2696 12.1426C30.3146 11.8576 30.3371 11.6026 30.3371 11.3701C30.3371 11.2726 30.3371 11.1826 30.3221 11.0851C30.3521 10.3426 30.0296 9.90014 29.5121 9.65264Z" fill="#EA8A42"/>
<path d="M24.5994 20.2499L24.6144 20.2799H24.5844L24.5994 20.2499ZM22.1019 14.6099C21.2319 14.5649 20.8944 15.5549 20.7819 15.8849C20.6544 16.2824 20.8644 16.7024 21.2544 16.8374C21.5394 16.9274 21.8319 16.8449 22.0269 16.6499C22.1469 17.0024 22.2744 17.4524 22.3569 17.8724C22.4244 18.2249 22.7394 18.4724 23.0919 18.4724C23.1369 18.4724 23.1894 18.4649 23.2419 18.4574C23.6469 18.3749 23.9094 17.9849 23.8269 17.5724C23.2494 14.6849 22.4169 14.6324 22.1019 14.6099ZM28.1169 16.8374C28.5069 16.7024 28.7169 16.2824 28.5894 15.8849C28.4769 15.5624 28.1469 14.5724 27.2769 14.6099C26.9619 14.6324 26.1294 14.6849 25.5444 17.5724C25.4619 17.9774 25.7244 18.3749 26.1294 18.4574C26.1819 18.4649 26.2344 18.4724 26.2794 18.4724C26.6319 18.4724 26.9394 18.2249 27.0144 17.8724C27.0969 17.4524 27.2244 17.0024 27.3444 16.6499C27.5394 16.8449 27.8319 16.9274 28.1169 16.8374Z" fill="#FCBB60"/>
<path d="M18.6973 9.5101C18.6973 8.9476 19.6123 8.6776 20.4148 8.7226C20.6173 8.9401 20.7223 9.0901 20.7223 9.0901L20.7598 9.3676C20.4973 9.3976 20.2573 9.4651 20.0398 9.5626C19.9798 9.5851 19.9198 9.6151 19.8673 9.6526C19.8298 9.6751 19.7923 9.6976 19.7548 9.7276C19.7323 9.7351 19.7173 9.7501 19.7023 9.7651H19.6948C19.2223 10.0651 18.9523 10.5676 19.0348 11.3701C19.0348 11.6026 19.0573 11.8576 19.1023 12.1426C18.8923 12.1426 18.6973 12.1201 18.5098 12.0826L18.6973 9.5101Z" fill="#97BCCC"/>
<path d="M29.8347 9.90734C29.8047 9.86984 29.7672 9.83234 29.7222 9.80234C29.6547 9.74984 29.5872 9.69734 29.5122 9.65234C30.0297 9.89984 30.3522 10.3423 30.3222 11.0848C30.3222 11.0173 30.3147 10.9573 30.2997 10.8973L30.2772 10.7623C30.2772 10.7473 30.2697 10.7323 30.2622 10.7173C30.2622 10.7098 30.2622 10.6948 30.2547 10.6873C30.2547 10.6573 30.2397 10.6273 30.2322 10.5973C30.2172 10.5223 30.1872 10.4473 30.1572 10.3873C30.1272 10.3198 30.0972 10.2523 30.0597 10.1998C29.9997 10.0873 29.9247 9.98984 29.8347 9.90734Z" fill="#FCBB60"/>
<path d="M30.2321 10.5977C30.2396 10.6277 30.2546 10.6577 30.2546 10.6877C30.2471 10.6502 30.2396 10.6277 30.2321 10.5977ZM30.0596 10.2002C30.0971 10.2527 30.1271 10.3202 30.1571 10.3877C30.1271 10.3202 30.0971 10.2602 30.0596 10.2002Z" fill="#FCBB60"/>
<path d="M30.6003 11.085C29.1913 16.125 36.5038 25.4025 32.2218 28.0875C31.5055 28.5 30.0021 29.085 30.0021 29.085L19.2025 29.0325C11.1659 27.2625 20.1707 17.22 18.7539 11.37C18.7539 11.28 18.7539 11.1825 18.7696 11.0925C18.7696 11.025 18.7775 10.9575 18.7932 10.8975L18.8168 10.7625C18.8326 10.7025 18.8483 10.65 18.8641 10.5975C18.8877 10.5225 18.9113 10.455 18.9428 10.3875C18.9743 10.32 19.0058 10.26 19.0451 10.2C19.1238 10.0725 19.2104 9.9675 19.3206 9.87C19.36 9.8325 19.3993 9.8025 19.4465 9.765H19.4544C19.4702 9.75 19.4859 9.735 19.5095 9.7275C21.0366 8.8875 24.3011 9.56776 24.6474 9.83776C24.8678 9.62776 28.1366 8.94 29.7266 9.6375C29.7344 9.645 29.7423 9.645 29.7502 9.6525C29.8289 9.6975 29.8997 9.75 29.9706 9.8025C30.0178 9.8325 30.0572 9.87 30.0887 9.9075C30.1831 9.99 30.2618 10.0875 30.3248 10.2C30.3642 10.26 30.3956 10.32 30.4271 10.3875C30.4586 10.4475 30.4901 10.5225 30.5058 10.5975C30.5137 10.6275 30.5216 10.65 30.5295 10.6875C30.5373 10.695 30.5373 10.71 30.5373 10.7175C30.5452 10.7325 30.5531 10.7475 30.5531 10.7625L30.5767 10.8975C30.5924 10.9575 30.6003 11.0175 30.6003 11.085Z" fill="#FCBB60"/>
<path d="M28.9881 28.9945C29.6052 32.1713 26.4219 32.8663 24.6898 31.4474C24.6898 31.4474 24.6898 32.0774 22.2973 32.0774C19.4714 31.6987 20.563 29.3681 20.5703 28.6043C21.3819 30.9696 24.6376 27.23 24.7116 24.686C25.113 27.1413 26.6141 30.2611 28.9881 28.9945Z" fill="#E2A379"/>
<path d="M29.7522 29.085C29.6097 29.13 29.4747 29.175 29.3322 29.2125C29.3272 29.2175 29.3222 29.2175 29.3172 29.2125C29.1897 29.25 28.6797 29.3325 28.5523 29.3475C28.4247 29.355 27.5248 29.325 27.2323 29.22C26.9322 29.1225 26.6622 28.98 26.4147 28.7775C26.3247 28.7175 26.2498 28.6425 26.1747 28.5675C25.4697 27.8925 24.9747 26.775 24.6897 25.23C24.2697 27.4725 23.4222 28.8 22.1472 29.22C21.8247 29.325 21.4798 29.37 21.1048 29.3625C21.0672 29.355 19.4847 29.0475 19.4623 29.0325C19.4623 29.0325 19.4548 28.92 19.4397 28.7325C19.2223 26.4525 19.5598 24.6375 20.2272 23.28C20.9247 21.6225 22.2298 20.25 24.5997 20.25C26.9922 20.25 28.2972 21.645 28.9872 23.325C29.0022 23.3475 29.0098 23.3625 29.0173 23.3775C29.6922 24.795 30.0147 26.7 29.7522 29.085Z" fill="#FDD59C"/>
<path d="M20.4146 8.72271C19.6121 8.67771 18.6971 8.94771 18.6971 9.51021L18.5096 12.0827C15.8171 11.5427 15.1196 7.35771 15.1196 7.35771C17.6321 6.09771 19.6721 7.90521 20.4146 8.72271Z" fill="#FCBB60"/>
<path d="M27.3444 16.6499C27.2244 17.0024 27.0969 17.4524 27.0144 17.8724C26.9394 18.2249 26.6319 18.4724 26.2794 18.4724C26.2344 18.4724 26.1819 18.4649 26.1294 18.4574C25.7244 18.3749 25.4619 17.9774 25.5444 17.5724C26.1294 14.6849 26.9619 14.6324 27.2769 14.6099C28.1469 14.5724 28.4769 15.5624 28.5894 15.8849C28.7169 16.2824 28.5069 16.7024 28.1169 16.8374C27.8319 16.9274 27.5394 16.8449 27.3444 16.6499ZM22.3569 17.8724C22.2744 17.4524 22.1469 17.0024 22.0269 16.6499C21.8319 16.8449 21.5394 16.9274 21.2544 16.8374C20.8644 16.7024 20.6544 16.2824 20.7819 15.8849C20.8944 15.5549 21.2319 14.5649 22.1019 14.6099C22.4169 14.6324 23.2494 14.6849 23.8269 17.5724C23.9094 17.9849 23.6469 18.3749 23.2419 18.4574C23.1894 18.4649 23.1369 18.4724 23.0919 18.4724C22.7394 18.4724 22.4244 18.2249 22.3569 17.8724Z" fill="black"/>
<path d="M27.232 22.3799L26.287 21.7124L26.2794 21.7274C26.3545 22.2899 26.422 22.8449 26.4144 23.3324V23.3474C26.3995 24.1574 26.197 24.8099 25.5294 25.0799C25.4244 25.1249 25.3045 25.1624 25.177 25.1849C25.0345 25.2074 24.8694 25.2224 24.6895 25.2224C26.0919 25.7174 26.7444 25.1624 27.0294 24.4049C27.382 23.5274 27.232 22.3799 27.232 22.3799Z" fill="#3C4042"/>
<path d="M23.9172 25.1099C23.8872 25.0949 23.8572 25.0874 23.8347 25.0799C23.6022 24.9824 23.4297 24.8399 23.3022 24.6599C23.2722 24.6149 23.2422 24.5699 23.2122 24.5174C23.1597 24.4274 23.1147 24.3224 23.0847 24.2099C23.0622 24.1574 23.0547 24.0974 23.0397 24.0374C22.9722 23.7374 22.9572 23.4074 22.9722 23.0474V23.0399C22.9797 22.6199 23.0322 22.1699 23.0922 21.7124L22.1472 22.3799C22.1472 22.3799 22.0197 23.3774 22.2822 24.2249C22.5372 25.0649 23.1747 25.7549 24.6897 25.2224C24.3822 25.2224 24.1272 25.1849 23.9172 25.1099Z" fill="#3C4042"/>
<path d="M23.0921 18.4723C22.742 18.4723 22.4292 18.2258 22.3574 17.8695C22.2732 17.4513 22.1516 17.0074 22.0308 16.6548C21.836 16.8503 21.5415 16.932 21.2603 16.8386C20.8677 16.7075 20.6553 16.2827 20.7864 15.8897C20.8955 15.5609 21.2581 14.5681 22.0996 14.6142C22.4146 14.634 23.2503 14.686 23.8281 17.5751C23.9094 17.9812 23.6465 18.3763 23.24 18.4576C23.1902 18.4675 23.1411 18.4723 23.0921 18.4723ZM19.1048 12.8894C15.3225 12.8894 14.4136 7.69834 14.377 7.47752C14.3228 7.15269 14.4868 6.83042 14.7813 6.68321C17.7512 5.19566 20.3645 7.31931 21.3284 8.65049C21.5715 8.98594 21.4968 9.45506 21.1614 9.69785C20.8252 9.94102 20.3572 9.86631 20.1148 9.53196C20.0313 9.41807 18.2991 7.10581 15.989 7.80894C16.2944 8.95262 17.1712 11.3894 19.1048 11.3894C19.5193 11.3894 19.8548 11.7252 19.8548 12.1394C19.8548 12.5536 19.5193 12.8894 19.1048 12.8894Z" fill="#042842"/>
<path d="M21.1695 30.1288C20.0152 30.1288 18.6778 29.6659 17.1236 28.7335C14.2737 27.0233 15.6251 23.036 16.9317 19.1801C17.7835 16.6646 18.6653 14.0638 18.365 12.2628C18.1285 10.8459 18.42 9.80734 19.2293 9.17563C20.7864 7.96091 23.7007 8.93832 24.688 9.32614C25.6746 8.93906 28.5875 7.95981 30.146 9.17563C30.9561 9.80698 31.2469 10.8456 31.0103 12.2628C30.71 14.0638 31.5919 16.6646 32.4437 19.1798C33.751 23.0356 35.1023 27.0233 32.2518 28.7335C29.9505 30.1148 28.1216 30.466 26.6634 29.8076C25.8372 29.4348 25.1766 28.7408 24.688 27.7352C24.1995 28.7408 23.5389 29.4348 22.7127 29.8076C22.2388 30.0215 21.7254 30.1284 21.1695 30.1288ZM21.2427 10.082C20.7952 10.082 20.4056 10.16 20.1514 10.3589C19.8094 10.6262 19.7061 11.1839 19.8445 12.016C20.2071 14.1887 19.2637 16.9708 18.3519 19.6613C17.1851 23.1059 16.0821 26.3593 17.8956 27.4474C19.7186 28.5405 21.1321 28.8748 22.096 28.4402C22.8563 28.0974 23.421 27.2295 23.7806 25.8558C23.3909 25.7401 23.0679 25.539 22.8152 25.2541C22.0572 24.3987 22.1553 23.099 22.3494 21.6129C22.4022 21.2024 22.7772 20.9105 23.1895 20.9662C23.6004 21.0196 23.8904 21.3961 23.8362 21.807C23.7374 22.5694 23.5711 23.8453 23.9373 24.2591C24.0662 24.4041 24.3138 24.4701 24.6807 24.4726H24.6946C24.6932 24.4715 24.7107 24.4726 24.7195 24.4726C25.0711 24.4726 25.3128 24.4008 25.438 24.2595C25.8043 23.846 25.638 22.5694 25.5391 21.807C25.4856 21.3961 25.775 21.0196 26.1858 20.9662C26.5967 20.9105 26.9725 21.2024 27.0259 21.6129C27.22 23.0993 27.3189 24.399 26.5608 25.2545C26.3082 25.5394 25.9852 25.7401 25.5955 25.8558C25.9551 27.2295 26.5198 28.0974 27.2801 28.4402C28.2447 28.8741 29.6568 28.5405 31.4798 27.4474C33.2933 26.359 32.191 23.1056 31.0235 19.6613C30.1116 16.9708 29.1683 14.1887 29.5308 12.016C29.6692 11.1839 29.566 10.6262 29.2239 10.3589C28.3714 9.69125 26.0005 10.3845 24.9876 10.8247C24.7972 10.9074 24.5789 10.9074 24.3885 10.8247C23.6773 10.5156 22.2974 10.082 21.2427 10.082Z" fill="#042842"/>
<path d="M26.2834 18.4726C26.2344 18.4726 26.1853 18.4678 26.1355 18.4579C25.729 18.3766 25.4661 17.9815 25.5474 17.5753C26.1252 14.6863 26.9609 14.6343 27.2759 14.6145C28.1123 14.5556 28.48 15.5608 28.5891 15.89C28.7202 16.283 28.5078 16.7078 28.1152 16.8389C27.8318 16.9323 27.5388 16.8506 27.3447 16.6551C27.2239 17.0077 27.1023 17.4516 27.0181 17.8698C26.9463 18.2261 26.6335 18.4726 26.2834 18.4726ZM30.2708 12.8897C29.8562 12.8897 29.5208 12.5539 29.5208 12.1397C29.5208 11.7255 29.8562 11.3897 30.2708 11.3897C32.2146 11.3897 33.0862 8.95217 33.3879 7.80923C31.0618 7.09255 29.3391 9.42348 29.2615 9.53115C29.0183 9.8655 28.5496 9.94167 28.2141 9.69814C27.8787 9.45534 27.804 8.98623 28.0471 8.65078C29.011 7.31997 31.6199 5.19631 34.5942 6.68349C34.8887 6.83071 35.0527 7.15298 34.9985 7.4778C34.9619 7.69863 34.053 12.8897 30.2708 12.8897ZM27.0803 32.8284C25.9158 32.8284 25.1636 32.6775 24.6882 32.4545C24.2129 32.6775 23.4607 32.8284 22.2954 32.8284C21.1953 32.8284 20.5764 32.3571 20.2505 31.9619C19.3936 30.9226 19.6594 29.401 19.6924 29.2311C19.7708 28.8246 20.1633 28.5569 20.5713 28.6382C20.9785 28.7173 21.2437 29.111 21.1646 29.5175C21.1184 29.7694 21.062 30.5916 21.4099 31.0105C21.4751 31.0893 21.6743 31.3284 22.2954 31.3284C23.4343 31.3284 23.8818 31.1753 24.0195 31.1105C24.144 30.8673 24.3967 30.7007 24.6882 30.7007C24.9797 30.7007 25.2332 30.8673 25.3569 31.1105C25.4946 31.1753 25.9421 31.3284 27.0803 31.3284C27.7014 31.3284 27.9006 31.0893 27.9658 31.0105C28.3137 30.5916 28.2573 29.7694 28.2104 29.5142C28.135 29.1084 28.4023 28.7162 28.8074 28.6393C29.219 28.5606 29.605 28.8264 29.6833 29.2311C29.7163 29.401 29.9822 30.9226 29.1252 31.9619C28.7993 32.3571 28.1804 32.8284 27.0803 32.8284ZM20.1882 41.8284H14.9404C14.5259 41.8284 14.1904 41.4926 14.1904 41.0784V38.0626C14.1904 37.6485 14.5259 37.3126 14.9404 37.3126H20.1882C20.6028 37.3126 20.9382 37.6485 20.9382 38.0626V41.0784C20.9382 41.4926 20.6028 41.8284 20.1882 41.8284ZM15.6904 40.3284H19.4382V38.8126H15.6904V40.3284Z" fill="#042842"/>
<path d="M32.9385 41.8285H20.1885C19.7739 41.8285 19.4385 41.4927 19.4385 41.0785C19.4385 40.6643 19.7739 40.3285 20.1885 40.3285H32.1211C31.9812 39.5928 31.6216 38.9827 31.0334 38.478C28.5286 36.3273 22.845 36.7422 20.9385 36.9531V38.0627C20.9385 38.4769 20.603 38.8127 20.1885 38.8127C19.7739 38.8127 19.4385 38.4769 19.4385 38.0627V36.2914C19.4385 35.9211 19.7087 35.6066 20.0742 35.5502C20.4148 35.4985 28.467 34.3003 32.009 37.3387C33.1238 38.2945 33.6885 39.5528 33.6885 41.0785C33.6885 41.4927 33.353 41.8285 32.9385 41.8285Z" fill="#042842"/>
</svg>
