<svg width="26" height="40" viewBox="0 0 26 40" fill="none" xmlns="http://www.w3.org/2000/svg">
<path d="M13 3.29589C13.78 1.78589 15.45 0.805886 17.31 1.03589C19.45 1.30589 21 3.21589 21 5.37589C21 7.69589 20.08 9.92589 18.43 11.5659L13 16.9959L7.57 11.5659C5.93 9.92589 5 7.69589 5 5.37589C5 3.10589 6.73 1.13589 9 1.00589C10.74 0.915888 12.26 1.86589 13 3.29589Z" stroke="#00A5BF" stroke-width="2" stroke-linecap="round" stroke-linejoin="round"/>
<path d="M20.0001 39.0059L2.69008 21.6959C1.21008 20.2159 1.21008 17.8059 2.69008 16.3159L5.00008 14.0059L25.0001 34.0059H20.0001V39.0059Z" stroke="#00A5BF" stroke-width="2" stroke-linecap="round" stroke-linejoin="round"/>
<path d="M18 27.0059L23.31 21.6959C24.79 20.2159 24.79 17.8059 23.31 16.3159L21 14.0059L13 22.0059" stroke="#00A5BF" stroke-width="2" stroke-linecap="round" stroke-linejoin="round"/>
<path d="M8 27.0059L1 34.0059H6V39.0059L13 32.0059" stroke="#00A5BF" stroke-width="2" stroke-linecap="round" stroke-linejoin="round"/>
</svg>
