<svg xmlns="http://www.w3.org/2000/svg" style="display:none">
  <symbol id="donate" viewBox="0 0 24 24" fill="currentColor"><path d="M12 21s8-4.5 8-11a6 6 0 0 0-12 0c0 6.5 4 11 4 11z"/></symbol>
  <symbol id="heart" viewBox="0 0 24 24" fill="currentColor"><path d="M12 21s-7-4.5-9-8a5 5 0 0 1 8-6 5 5 0 0 1 8 6c-2 3.5-7 8-7 8z"/></symbol>
  <symbol id="hands" viewBox="0 0 24 24" fill="currentColor"><path d="M2 12c2-4 6-6 10-6s8 2 10 6v6H2v-6z"/></symbol>
  <symbol id="volunteer" viewBox="0 0 24 24" fill="currentColor"><path d="M12 12a3 3 0 1 0 0-6 3 3 0 0 0 0 6zM4 20v-2a4 4 0 0 1 4-4h8a4 4 0 0 1 4 4v2H4z"/></symbol>
  <symbol id="event" viewBox="0 0 24 24" fill="currentColor"><path d="M3 7h18v14H3zM16 3v4M8 3v4"/></symbol>
  <symbol id="calendar" viewBox="0 0 24 24" fill="currentColor"><path d="M3 5h18v16H3zM16 3v4M8 3v4"/></symbol>
  <symbol id="location" viewBox="0 0 24 24" fill="currentColor"><path d="M12 2a7 7 0 0 0-7 7c0 5 7 13 7 13s7-8 7-13a7 7 0 0 0-7-7z"/></symbol>
  <symbol id="phone" viewBox="0 0 24 24" fill="currentColor"><path d="M6.6 10.8a15 15 0 0 0 6.6 6.6l2.2-2.2a1 1 0 0 1 1-.2 11 11 0 0 0 3.4.6 1 1 0 0 1 1 1v3a1 1 0 0 1-1 1A18 18 0 0 1 3 5a1 1 0 0 1 1-1h3a1 1 0 0 1 1 1 11 11 0 0 0 .6 3.4 1 1 0 0 1-.2 1l-2.8 2.4z"/></symbol>
  <symbol id="whatsapp" viewBox="0 0 24 24" fill="currentColor"><path d="M21 3a11 11 0 0 0-9.7 16l-1 4 4-1A11 11 0 1 0 21 3z"/></symbol>
  <symbol id="mail" viewBox="0 0 24 24" fill="currentColor"><path d="M3 6h18v12H3zM3 6l9 7 9-7"/></symbol>
  <symbol id="share" viewBox="0 0 24 24" fill="currentColor"><path d="M4 12v7a1 1 0 0 0 1 1h14a1 1 0 0 0 1-1v-7"/><path d="M16 6l-8 6V6"/></symbol>
  <symbol id="arrow-left" viewBox="0 0 24 24"><path d="M15 6l-6 6 6 6" fill="none" stroke="currentColor" stroke-width="2" stroke-linecap="round" stroke-linejoin="round"/></symbol>
  <symbol id="arrow-right" viewBox="0 0 24 24"><path d="M9 6l6 6-6 6" fill="none" stroke="currentColor" stroke-width="2" stroke-linecap="round" stroke-linejoin="round"/></symbol>
  <symbol id="menu" viewBox="0 0 24 24"><path d="M3 6h18v2H3V6zm0 5h18v2H3v-2zm0 5h18v2H3v-2z"/></symbol>
  <symbol id="close" viewBox="0 0 24 24"><path d="M6 6l12 12M6 18L18 6" stroke="currentColor" stroke-width="2" stroke-linecap="round" stroke-linejoin="round"/></symbol>
  <symbol id="mobile" viewBox="0 0 24 24" fill="currentColor"><rect x="6" y="2" width="12" height="20" rx="2" ry="2"/><circle cx="12" cy="18" r="1"/></symbol>
  <symbol id="bank" viewBox="0 0 24 24" fill="currentColor"><path d="M12 2L2 7v2h20V7L12 2zM4 11v7h16v-7H4z"/></symbol>
  <symbol id="card" viewBox="0 0 24 24" fill="currentColor"><rect x="2" y="5" width="20" height="14" rx="2" ry="2"/><rect x="3" y="9" width="6" height="2"/></symbol>
  <symbol id="user" viewBox="0 0 24 24" fill="currentColor"><path d="M12 12a4 4 0 1 0 0-8 4 4 0 0 0 0 8z"/><path d="M4 20v-1a6 6 0 0 1 6-6h4a6 6 0 0 1 6 6v1"/></symbol>
  <symbol id="cart" viewBox="0 0 24 24" fill="currentColor"><path d="M6 6h15l-1.5 9h-12z"/><circle cx="10" cy="20" r="1"/><circle cx="18" cy="20" r="1"/></symbol>
  <symbol id="globe" viewBox="0 0 24 24" fill="currentColor"><circle cx="12" cy="12" r="9"/><path d="M2 12h20M12 2a15 15 0 0 1 0 20M7 4a15 15 0 0 0 10 16" stroke="currentColor" stroke-width="0.5" fill="none"/></symbol>
  <symbol id="translate" viewBox="0 0 24 24" fill="currentColor"><path d="M4 4h16v2H4zM6 10h12v2H6zM8 16h8v2H8z"/></symbol>
  <symbol id="chevron-down" viewBox="0 0 24 24" fill="none" stroke="currentColor" stroke-width="2" stroke-linecap="round" stroke-linejoin="round"><path d="M6 9l6 6 6-6"/></symbol>
  <symbol id="check" viewBox="0 0 24 24"><path d="M20 6L9 17l-5-5" stroke="currentColor" stroke-width="2" stroke-linecap="round" stroke-linejoin="round"/></symbol>
  <symbol id="warning" viewBox="0 0 24 24"><path d="M10.29 3.86L1.82 18a2 2 0 0 0 1.71 3h16.94A2 2 0 0 0 22.18 18L13.71 3.86a2 2 0 0 0-3.42 0zM12 9v4M12 17h.01"/></symbol>
  <symbol id="facebook" viewBox="0 0 24 24"><path d="M22 12a10 10 0 1 0-11.5 9.9v-7H8v-3h2.5V9.2c0-2.5 1.5-3.9 3.8-3.9 1.1 0 2 .1 2 .1v2.2H15c-1.2 0-1.6.8-1.6 1.6V12H18l-.5 3H13.5v7A10 10 0 0 0 22 12z"/></symbol>
  <symbol id="x" viewBox="0 0 24 24"><path d="M6 6l12 12M6 18L18 6" stroke="currentColor" stroke-width="2" stroke-linecap="round" stroke-linejoin="round"/></symbol>
  <symbol id="instagram" viewBox="0 0 24 24"><path d="M7 2h10a5 5 0 0 1 5 5v10a5 5 0 0 1-5 5H7a5 5 0 0 1-5-5V7a5 5 0 0 1 5-5zM12 8a4 4 0 1 0 0 8 4 4 0 0 0 0-8zM17.5 6.5h.01"/></symbol>
  <symbol id="youtube" viewBox="0 0 24 24"><path d="M22 8s-.2-1.4-.8-2c-.7-.8-1.4-.8-1.8-.9C16.9 5 12 5 12 5s-4.9 0-7.4.1c-.4 0-1.1.1-1.8.9C2.2 6.6 2 8 2 8S2 9.6 2 11.2v1.6C2 14.4 2.2 16 2.2 16s.2 1.4.8 2c.7.8 1.6.8 2 .9 1.4.1 6.8.1 6.8.1s4.9 0 7.4-.1c.4 0 1.1-.1 1.8-.9.6-.6.8-2 .8-2s.2-1.6.2-3.2v-1.6C22 9.6 22 8 22 8z"/></symbol>
</svg>
