<svg width="49" height="48" viewBox="0 0 49 48" fill="none" xmlns="http://www.w3.org/2000/svg">
<g clip-path="url(#clip0_171_1007)">
<path d="M27.4902 30.015C26.9202 30.69 26.3877 31.4325 25.9002 32.25C24.9927 33.7575 24.5727 36.1125 24.4002 38.3925C24.2277 36.1125 23.8077 33.7575 22.9002 32.25C22.4127 31.4325 21.8802 30.69 21.3102 30.015C19.7202 28.1025 17.8527 26.7075 15.9102 25.695C14.5377 24.9675 13.1202 24.435 11.7327 24.0525L11.7477 24C15.9627 12.375 24.4002 0.75 24.4002 0.75C24.4002 0.75 32.8602 12.405 37.0752 24.045C35.6877 24.435 34.2702 24.9675 32.8902 25.695C30.9477 26.7075 29.0802 28.1025 27.4902 30.015Z" fill="#40BCB2"/>
<path d="M25.0233 30.8903C24.955 30.9931 24.8623 31.0773 24.7536 31.1356C24.6449 31.1939 24.5234 31.2243 24.4001 31.2243C24.2767 31.2243 24.1552 31.1939 24.0465 31.1356C23.9378 31.0773 23.8451 30.9931 23.7768 30.8903C23.3538 30.2536 22.8101 29.4661 22.4561 29.0476C20.8706 27.1403 18.8988 25.5623 16.6038 24.3653C15.8938 23.9901 15.1628 23.6558 14.4146 23.3641C14.3207 23.3288 14.2348 23.2752 14.1618 23.2064C14.0888 23.1376 14.0302 23.055 13.9894 22.9634C13.9486 22.8718 13.9264 22.773 13.924 22.6727C13.9217 22.5725 13.9393 22.4728 13.9758 22.3793C16.9233 15.1051 21.3168 8.0296 23.7761 4.3156C23.8443 4.21256 23.937 4.12803 24.0459 4.06955C24.1548 4.01107 24.2765 3.98047 24.4001 3.98047C24.5237 3.98047 24.6453 4.01107 24.7542 4.06955C24.8631 4.12803 24.9558 4.21256 25.0241 4.3156C27.4811 8.0266 31.8693 15.0961 34.8303 22.3861C34.8669 22.4787 34.8846 22.5776 34.8825 22.6772C34.8804 22.7767 34.8584 22.8748 34.8179 22.9657C34.7774 23.0566 34.7192 23.1386 34.6466 23.2067C34.574 23.2749 34.4886 23.3279 34.3953 23.3626C33.6425 23.6569 32.9067 23.9926 32.1911 24.3683C29.9013 25.5623 27.9296 27.1403 26.3366 29.0566C25.9871 29.4698 25.4456 30.2551 25.0233 30.8903Z" fill="#6CCFCA"/>
<path d="M27.4902 30.015C26.9202 30.69 26.3877 31.4325 25.9002 32.25C24.9927 33.7575 24.5727 36.1125 24.4002 38.3925C24.2277 36.1125 23.8077 33.7575 22.9002 32.25C22.4127 31.4325 21.8802 30.69 21.3102 30.015C19.7202 28.1025 17.8527 26.7075 15.9102 25.695C14.5377 24.9675 13.1202 24.435 11.7327 24.0525L11.7477 24C15.9627 12.375 24.4002 0.75 24.4002 0.75C24.4002 0.75 32.8602 12.405 37.0752 24.045C35.6877 24.435 34.2702 24.9675 32.8902 25.695C30.9477 26.7075 29.0802 28.1025 27.4902 30.015Z" fill="#40BCB2"/>
<path d="M25.0233 30.8903C24.955 30.9931 24.8623 31.0773 24.7536 31.1356C24.6449 31.1939 24.5234 31.2243 24.4001 31.2243C24.2767 31.2243 24.1552 31.1939 24.0465 31.1356C23.9378 31.0773 23.8451 30.9931 23.7768 30.8903C23.3538 30.2536 22.8101 29.4661 22.4561 29.0476C20.8706 27.1403 18.8988 25.5623 16.6038 24.3653C15.8938 23.9901 15.1628 23.6558 14.4146 23.3641C14.3207 23.3288 14.2348 23.2752 14.1618 23.2064C14.0888 23.1376 14.0302 23.055 13.9894 22.9634C13.9486 22.8718 13.9264 22.773 13.924 22.6727C13.9217 22.5725 13.9393 22.4728 13.9758 22.3793C16.9233 15.1051 21.3168 8.0296 23.7761 4.3156C23.8443 4.21256 23.937 4.12803 24.0459 4.06955C24.1548 4.01107 24.2765 3.98047 24.4001 3.98047C24.5237 3.98047 24.6453 4.01107 24.7542 4.06955C24.8631 4.12803 24.9558 4.21256 25.0241 4.3156C27.4811 8.0266 31.8693 15.0961 34.8303 22.3861C34.8669 22.4787 34.8846 22.5776 34.8825 22.6772C34.8804 22.7767 34.8584 22.8748 34.8179 22.9657C34.7774 23.0566 34.7192 23.1386 34.6466 23.2067C34.574 23.2749 34.4886 23.3279 34.3953 23.3626C33.6425 23.6569 32.9067 23.9926 32.1911 24.3683C29.9013 25.5623 27.9296 27.1403 26.3366 29.0566C25.9871 29.4698 25.4456 30.2551 25.0233 30.8903Z" fill="#6CCFCA"/>
<path d="M30.7835 10.8022C28.868 17.637 24.56 24.1282 18.4812 27.3225C19.5247 28.1081 20.474 29.0116 21.3102 30.015C21.8802 30.69 22.4127 31.4325 22.9002 32.25C23.8077 33.7575 24.2277 36.1125 24.4002 38.3925C24.5727 36.1125 24.9927 33.7575 25.9002 32.25C26.3877 31.4325 26.9202 30.69 27.4902 30.015C29.0802 28.1025 30.9477 26.7075 32.8902 25.695C34.2702 24.9675 35.6877 24.435 37.0752 24.045C35.387 19.3822 33.0177 14.7195 30.7835 10.8022Z" fill="#2B9E90"/>
<path d="M34.8305 22.3852C33.4685 19.0305 31.8035 15.7275 30.164 12.7725C28.2065 18.3337 24.6597 23.4637 19.8762 26.511C20.8174 27.2697 21.6816 28.1193 22.4562 29.0475C22.8102 29.4667 23.354 30.2542 23.777 30.8902C23.8453 30.9929 23.9379 31.0772 24.0467 31.1354C24.1554 31.1937 24.2769 31.2242 24.4002 31.2242C24.5236 31.2242 24.645 31.1937 24.7538 31.1354C24.8625 31.0772 24.9552 30.9929 25.0235 30.8902C25.4457 30.255 25.9872 29.4697 26.3367 29.0557C27.9297 27.1395 29.9007 25.5615 32.1912 24.3675C32.9065 23.9911 33.6424 23.6554 34.3955 23.3617C34.4888 23.327 34.5742 23.274 34.6468 23.2058C34.7193 23.1377 34.7775 23.0558 34.8181 22.9648C34.8586 22.8739 34.8805 22.7758 34.8827 22.6763C34.8848 22.5767 34.867 22.4778 34.8305 22.3852Z" fill="#40BCB2"/>
<path d="M43.7501 23.085C42.5201 23.115 41.0726 23.2275 39.5276 23.4975C37.8101 23.7975 35.9651 24.2925 34.1501 25.0875C33.7226 25.275 33.3026 25.47 32.8901 25.695C31.6062 26.3607 30.4076 27.1791 29.3201 28.1325C28.6751 28.695 28.0676 29.325 27.4901 30.015C26.9201 30.69 26.3876 31.4325 25.9001 32.25C25.0001 33.75 24.5801 36.09 24.4001 38.355C24.2201 36.0825 23.8001 33.75 22.9001 32.25C22.4126 31.4325 21.8801 30.69 21.3101 30.015C19.7876 28.185 18.0176 26.8275 16.1651 25.8225C16.0826 25.7775 16.0001 25.7325 15.9101 25.695C13.7051 24.5325 11.3951 23.865 9.27265 23.4975C7.72765 23.2275 6.28015 23.115 5.05015 23.085C2.71015 23.0175 1.15015 23.25 1.15015 23.25L1.15765 23.2575C1.30765 23.385 2.99515 24.8625 4.28515 28.7625C4.80265 30.33 5.26015 32.28 5.52265 34.695C5.57515 35.115 5.61265 35.55 5.65015 36C5.67265 36.2475 5.69515 36.495 5.72515 36.7425C5.94265 38.5875 6.43765 40.23 7.17265 41.6325C8.34265 43.875 10.1051 45.5175 12.2876 46.4175C13.9601 47.1075 15.8726 47.37 17.9501 47.1375C19.9676 46.905 22.1426 46.215 24.4001 45C26.6501 46.215 28.8251 46.905 30.8426 47.13C33.6101 47.445 36.0926 46.8825 38.0876 45.585H38.0951C39.5501 44.64 40.7576 43.305 41.6276 41.6325C42.3626 40.23 42.8576 38.5875 43.0751 36.7425C43.1051 36.495 43.1276 36.2475 43.1501 36C43.1876 35.55 43.2251 35.115 43.2776 34.695C43.5401 32.28 43.9976 30.33 44.5151 28.7625C45.8051 24.8625 47.4926 23.385 47.6426 23.2575L47.6501 23.25C47.6501 23.25 46.0901 23.0175 43.7501 23.085Z" fill="#90B541"/>
<path d="M24.3927 44.9552H24.4002C25.8964 44.7407 27.3604 44.2157 28.7397 43.4402C27.2599 42.5297 25.8357 41.2037 24.3034 40.1679C24.2277 42.5972 24.3687 44.6229 24.3927 44.9552ZM12.4002 34.5002C12.6627 35.1377 12.9552 35.7602 13.2852 36.3602C10.7577 33.8327 7.70516 34.0352 5.52266 34.6952C5.26016 32.2802 4.80266 30.3302 4.28516 28.7627C6.35516 28.7177 8.77766 29.0477 10.2627 30.5177L10.2702 30.5252C11.0502 31.6727 11.7777 32.9927 12.4002 34.5002Z" fill="#76991F"/>
<path d="M17.9502 47.1373C15.8727 47.3698 13.9602 47.1073 12.2877 46.4173C10.1052 45.5173 8.34271 43.8748 7.17271 41.6323C10.1352 40.7473 14.1027 40.1848 17.6502 41.7598C19.6677 43.4623 21.9927 44.6098 24.3927 44.9548C24.4002 44.9848 24.4002 44.9998 24.4002 44.9998C22.1427 46.2148 19.9677 46.9048 17.9502 47.1373ZM3.40021 24.7498C4.49371 26.0001 5.29247 27.3816 5.93597 28.8171C5.38721 28.7674 4.83606 28.7491 4.28521 28.7623C2.99521 24.8623 1.30771 23.3848 1.15771 23.2573C1.19971 23.2693 1.38121 23.3286 1.65496 23.4336C2.48071 23.7778 3.13321 24.2151 3.40021 24.7498Z" fill="#76991F"/>
<path d="M7.1802 41.6326H7.1727C6.4377 40.2301 5.94271 38.5876 5.72521 36.7426C5.69521 36.4951 5.67271 36.2476 5.65021 36.0001C5.61271 35.5501 5.57521 35.1151 5.52271 34.6951C6.28396 34.4606 7.07108 34.3204 7.86645 34.2773C8.6292 36.6878 9.42345 38.9963 10.8582 40.8683C9.61173 41.012 8.38074 41.2678 7.1802 41.6326ZM24.3927 44.9551C22.8927 44.7376 21.4377 44.2126 20.0577 43.4401C21.4827 42.5701 22.8477 41.3176 24.3027 40.3051C24.2352 42.6751 24.3702 44.6326 24.3927 44.9551Z" fill="#76991F"/>
<path d="M5.52266 34.6951C5.26016 32.2801 4.80266 30.3301 4.28516 28.7626C4.81916 28.7506 5.37716 28.7664 5.93591 28.8174C6.73466 30.5994 7.29341 32.4661 7.86641 34.2774C7.07103 34.3204 6.28391 34.4607 5.52266 34.6951ZM13.9002 43.5001C16.2574 45.0721 18.2037 44.5839 20.0607 43.4401C21.4392 44.2149 22.9032 44.7406 24.4002 44.9551H24.4077C24.4002 44.9851 24.4002 45.0001 24.4002 45.0001C22.1502 46.2151 19.9752 46.9051 17.9577 47.1301C15.1902 47.4451 12.7077 46.8826 10.7127 45.5851H10.7052C9.25016 44.6401 8.04266 43.3051 7.17266 41.6326H7.18016C8.38069 41.2678 9.61168 41.012 10.8582 40.8684C11.6775 41.9482 12.7137 42.8446 13.9002 43.5001Z" fill="#627C12"/>
<path d="M47.6501 23.25L47.6426 23.2575C47.3876 23.3325 42.3326 24.93 38.5376 30.5175C38.6201 30.2775 39.8426 26.9925 39.5276 23.4975C41.0726 23.2275 42.5201 23.115 43.7501 23.085C46.0901 23.0175 47.6501 23.25 47.6501 23.25Z" fill="#76991F"/>
<path d="M38.5376 30.5177C40.0226 29.0477 42.4451 28.7177 44.5151 28.7627C43.9976 30.3302 43.5401 32.2802 43.2776 34.6952C41.0951 34.0352 38.0426 33.8327 35.5151 36.3602C35.8451 35.7602 36.1376 35.1377 36.4001 34.5002C37.0226 32.9927 37.7501 31.6727 38.5301 30.5252L38.5376 30.5177ZM24.4001 44.9552C26.8076 44.6102 29.1326 43.4627 31.1501 41.7602C34.6976 40.1852 38.6651 40.7477 41.6201 41.6327H41.6276C40.7576 43.3052 39.5501 44.6402 38.0951 45.5852H38.0876C36.0926 46.8827 33.6101 47.4452 30.8426 47.1302C28.8251 46.9052 26.6501 46.2152 24.4001 45.0002C24.4001 45.0002 24.4001 44.9852 24.3926 44.9552H24.4001Z" fill="#76991F"/>
<path d="M45.4001 24.7498C44.3066 26.0001 43.5079 27.3816 42.8644 28.8171C43.4131 28.7674 43.9643 28.7491 44.5151 28.7623C45.8051 24.8623 47.4926 23.3848 47.6426 23.2573C47.6006 23.2693 47.4191 23.3286 47.1454 23.4336C46.3196 23.7778 45.6671 24.2151 45.4001 24.7498ZM41.6201 41.6323H41.6276C42.3626 40.2298 42.8576 38.5873 43.0751 36.7423C43.1051 36.4948 43.1276 36.2473 43.1501 35.9998C43.1876 35.5498 43.2251 35.1148 43.2776 34.6948C42.5164 34.4604 41.7293 34.3201 40.9339 34.2771C40.1711 36.6876 39.3769 38.9961 37.9421 40.8681C39.1886 41.0118 40.4196 41.2675 41.6201 41.6323Z" fill="#76991F"/>
<path d="M43.2776 34.6948C43.5401 32.2798 43.9976 30.3298 44.5151 28.7623C43.9642 28.7494 43.4131 28.7677 42.8643 28.817C42.0656 30.599 41.5068 32.4658 40.9338 34.277C41.7746 34.3175 42.5718 34.481 43.2776 34.6948Z" fill="#627C12"/>
<path d="M31.1502 41.7598C32.8752 40.3123 34.3752 38.4598 35.5152 36.3598C35.5152 36.3598 35.2752 30.0673 32.8977 25.7173L32.8902 25.6948C31.6063 26.3605 30.4076 27.1789 29.3202 28.1323C28.6752 28.6948 28.0677 29.3248 27.4902 30.0148C31.2627 34.0048 31.1502 41.7598 31.1502 41.7598Z" fill="#76991F"/>
<path d="M34.9001 43.4999C32.5428 45.0719 30.5966 44.5837 28.7396 43.4399C27.3611 44.2147 25.8971 44.7404 24.4001 44.9549H24.3926C24.4001 44.9849 24.4001 44.9999 24.4001 44.9999C26.6501 46.2149 28.8251 46.9049 30.8426 47.1299C33.6101 47.4449 36.0926 46.8824 38.0876 45.5849H38.0951C39.5501 44.6399 40.7576 43.3049 41.6276 41.6324H41.6201C40.4195 41.2676 39.1886 41.0118 37.9421 40.8682C37.1227 41.948 36.0865 42.8444 34.9001 43.4999Z" fill="#627C12"/>
<path d="M1.15015 23.25C1.15015 23.25 2.71015 23.0175 5.05015 23.085C6.28015 23.115 7.72765 23.2275 9.27265 23.4975C8.95765 26.9925 10.1801 30.2775 10.2626 30.5175C6.46765 24.93 1.41265 23.3325 1.15765 23.2575L1.15015 23.25ZM16.1651 25.8225C18.0176 26.8275 19.7876 28.185 21.3101 30.015C17.5376 34.005 17.6501 41.76 17.6501 41.76C15.9251 40.3125 14.4251 38.46 13.2851 36.36C13.2851 36.36 13.5251 30.0675 15.9026 25.7175L15.9101 25.695C16.0001 25.7325 16.0826 25.7775 16.1651 25.8225Z" fill="#76991F"/>
<path d="M17.2346 18.3181C16.0504 16.9718 13.9759 20.2508 15.1624 21.5993C15.7234 22.2368 15.9866 21.0811 16.5986 20.4758C17.2796 19.8023 17.8601 19.0283 17.2346 18.3181ZM15.0491 22.1588C14.3621 21.8963 13.9804 23.0956 14.6689 23.3581C15.3551 23.6206 15.7369 22.4221 15.0491 22.1588Z" fill="#BDEFEB"/>
<path d="M47.7611 22.5081C47.6756 22.4961 42.9409 21.8338 37.5506 23.1793C33.2794 11.7763 25.0909 0.425099 25.0069 0.309599C24.9376 0.213524 24.8465 0.135273 24.741 0.081281C24.6356 0.0272887 24.5188 -0.000903201 24.4003 -0.00097642C24.2819 -0.00104964 24.1651 0.0269979 24.0596 0.0808599C23.954 0.134722 23.8628 0.21286 23.7934 0.308849C23.7559 0.360599 19.9916 5.56635 16.2724 12.3906C16.2215 12.4773 16.1885 12.5733 16.1754 12.6729C16.1623 12.7726 16.1694 12.8739 16.1962 12.9707C16.223 13.0676 16.269 13.1581 16.3315 13.2369C16.394 13.3156 16.4717 13.381 16.5599 13.4291C16.6482 13.4772 16.7452 13.5071 16.8452 13.517C16.9453 13.5269 17.0463 13.5165 17.1422 13.4866C17.2382 13.4567 17.3272 13.4078 17.4038 13.3428C17.4805 13.2778 17.5434 13.1981 17.5886 13.1083C19.6691 9.30933 21.9425 5.61925 24.4001 2.0526C26.3569 4.88085 32.5654 14.2161 36.0971 23.5881C32.1379 24.8361 28.0219 27.2556 25.2574 31.8636C24.9236 32.4201 24.6394 33.1049 24.4009 33.9028C24.1744 33.1423 23.8939 32.4471 23.5444 31.8636C20.7806 27.2571 16.6646 24.8376 12.7061 23.5896C13.6759 21.0156 14.9096 18.2503 16.4066 15.3433C16.4518 15.2557 16.4792 15.1601 16.4873 15.0619C16.4955 14.9637 16.4842 14.8649 16.4541 14.771C16.4241 14.6772 16.3758 14.5902 16.3122 14.515C16.2485 14.4398 16.1706 14.3778 16.083 14.3327C15.9954 14.2876 15.8998 14.2602 15.8016 14.2521C15.7034 14.2439 15.6045 14.2552 15.5107 14.2852C15.4168 14.3153 15.3298 14.3635 15.2546 14.4272C15.1794 14.4909 15.1175 14.5687 15.0724 14.6563C13.5266 17.6601 12.2524 20.5191 11.2564 23.1816C5.86389 21.8346 1.12539 22.4961 1.03989 22.5081C0.895987 22.5304 0.761649 22.594 0.653215 22.6912C0.544781 22.7884 0.466922 22.915 0.429105 23.0556C0.391287 23.1962 0.39514 23.3448 0.440196 23.4833C0.485251 23.6217 0.569568 23.7442 0.682894 23.8356C0.717394 23.8633 4.18689 26.7396 4.90314 36.0576C5.27814 40.9326 7.43514 44.6833 10.9766 46.6184C12.6386 47.5259 14.4971 47.9774 16.4801 47.9774C18.9724 47.9774 21.6611 47.2558 24.4009 45.8399C27.1399 47.2558 29.8286 47.9774 32.3216 47.9774C34.3046 47.9774 36.1639 47.5251 37.8251 46.6184C41.3666 44.6833 43.5236 40.9326 43.8986 36.0576C44.6081 26.8296 48.0881 23.8603 48.1189 23.8356C48.2329 23.7444 48.3178 23.622 48.3632 23.4833C48.4086 23.3446 48.4126 23.1957 48.3746 23.0547C48.3366 22.9138 48.2584 22.787 48.1494 22.6899C48.0404 22.5928 47.9055 22.5296 47.7611 22.5081ZM33.9056 26.0436C35.5466 25.2666 37.2274 24.7506 38.8256 24.4138C38.8766 27.2046 38.0224 29.7201 37.8566 30.1799C37.1413 31.2501 36.5181 32.3792 35.9936 33.5549C35.7034 31.4654 35.1086 28.5493 33.9056 26.0436ZM39.1391 30.9936C40.2461 29.9504 41.9666 29.6046 43.4929 29.5318C43.1494 30.7416 42.8516 32.1433 42.6349 33.7521C41.0779 33.4078 39.2066 33.3516 37.3781 34.1661C37.872 33.0595 38.4612 31.998 39.1391 30.9936ZM41.3156 28.3131C42.4818 27.1107 43.8017 26.0677 45.2411 25.2111C44.7396 26.1112 44.3155 27.0523 43.9736 28.0244C42.9964 28.0356 42.1106 28.1323 41.3156 28.3131ZM44.5886 23.8281C42.9322 24.7878 41.4221 25.9802 40.1044 27.3689C40.2604 26.3999 40.3631 25.2966 40.3211 24.1439C41.7339 23.9335 43.1603 23.828 44.5886 23.8281ZM32.5721 26.7396C34.3166 30.4079 34.6909 35.1726 34.7516 36.1836C33.9567 37.6059 32.9758 38.9159 31.8349 40.0791C31.6564 37.6281 30.9829 33.0718 28.4891 30.0171C29.6708 28.7182 31.0485 27.6123 32.5721 26.7396ZM26.5429 32.6361C26.8413 32.1401 27.165 31.6597 27.5126 31.1968C30.0544 34.5411 30.3589 39.9381 30.3941 41.3856C28.7906 42.6778 27.0184 43.6049 25.2124 44.0376C25.2739 42.8069 25.3309 40.6348 25.1524 38.3638C25.3616 35.7846 25.8416 33.8038 26.5429 32.6361ZM20.3111 30.0178C17.8129 33.0786 17.1416 37.6476 16.9646 40.0948C15.8206 38.9246 14.84 37.6052 14.0494 36.1723C14.1124 35.1351 14.4896 30.3936 16.2274 26.7396C17.7514 27.6125 19.1293 28.7187 20.3111 30.0178ZM9.69414 31.0221C10.3584 32.0198 10.9372 33.0718 11.4244 34.1669C9.59514 33.3516 7.72314 33.4086 6.16539 33.7521C5.94864 32.1426 5.65014 30.7409 5.30664 29.5311C6.84414 29.6031 8.58864 29.9548 9.69414 31.0221ZM4.82664 28.0251C4.48033 27.0412 4.04999 26.0889 3.54039 25.1788C5.00414 26.0394 6.34267 27.097 7.51839 28.3221C6.71289 28.1354 5.81514 28.0364 4.82664 28.0251ZM10.9594 30.2226C10.8371 29.8926 9.92064 27.3058 9.97464 24.4138C11.5729 24.7498 13.2536 25.2666 14.8946 26.0436C13.6864 28.5591 13.0924 31.4871 12.8036 33.5781C12.2848 32.4095 11.6678 31.287 10.9594 30.2226ZM8.47839 24.1439C8.43639 25.3064 8.54064 26.4171 8.69889 27.3921C7.37313 25.9944 5.85364 24.7941 4.18689 23.8281C5.62325 23.8266 7.05772 23.9322 8.47839 24.1439ZM6.33564 35.2641C8.86914 34.6558 11.0164 35.1831 12.7151 36.8556C13.3745 38.0531 14.1554 39.1795 15.0454 40.2171C12.3604 39.7686 9.68739 40.1729 7.58739 40.7391C6.94989 39.3389 6.53664 37.7338 6.39864 35.9421C6.37989 35.7096 6.35664 35.4891 6.33564 35.2641ZM11.6951 45.3013C10.3166 44.5484 9.19389 43.4511 8.32689 42.0958C10.8949 41.4486 14.2699 41.1036 17.2931 42.4266C17.7551 42.8132 18.2373 43.1749 18.7376 43.5103C18.9038 43.6194 19.1063 43.6582 19.301 43.6183C19.4957 43.5784 19.6666 43.463 19.7764 43.2973C19.8859 43.1312 19.9249 42.9284 19.885 42.7335C19.8451 42.5386 19.7294 42.3675 19.5634 42.2579C19.1643 41.9918 18.7779 41.7073 18.4054 41.4051C18.4376 39.9891 18.7339 34.5561 21.2876 31.1954C21.6274 31.6484 21.9521 32.1261 22.2574 32.6346C23.9629 35.4771 23.8234 41.7591 23.7064 44.0631C23.0173 43.9082 22.3439 43.69 21.6949 43.4114C21.6039 43.3702 21.5057 43.3476 21.4058 43.3449C21.306 43.3422 21.2067 43.3595 21.1136 43.3957C21.0206 43.4319 20.9357 43.4864 20.864 43.5558C20.7922 43.6253 20.7351 43.7084 20.6959 43.8002C20.6567 43.892 20.6362 43.9908 20.6357 44.0906C20.6351 44.1905 20.6546 44.2894 20.6928 44.3817C20.731 44.4739 20.7872 44.5576 20.8582 44.6278C20.9292 44.698 21.0135 44.7534 21.1061 44.7906C21.4774 44.9489 21.8516 45.0831 22.2274 45.2053C18.3124 46.8554 14.6254 46.9041 11.6951 45.3013ZM37.1051 45.3013C34.1756 46.9034 30.4886 46.8568 26.5744 45.2091C28.3294 44.6384 30.0139 43.6783 31.5416 42.4131C34.5566 41.1073 37.9159 41.4508 40.4734 42.0958C39.6064 43.4511 38.4836 44.5484 37.1051 45.3013ZM41.2129 40.7391C39.1174 40.1736 36.4511 39.7693 33.7706 40.2141C34.665 39.1708 35.4489 38.0378 36.1099 36.8331C37.8041 35.1794 39.9416 34.6604 42.4639 35.2641C42.4429 35.4891 42.4189 35.7096 42.4016 35.9421C42.2644 37.7338 41.8511 39.3389 41.2129 40.7391Z" fill="#472B3C"/>
</g>
<defs>
<clipPath id="clip0_171_1007">
<rect width="48" height="48" fill="white" transform="translate(0.400146)"/>
</clipPath>
</defs>
</svg>
